M48
; DRILL file {KiCad 8.0.8-8.0.8-0~ubuntu24.10.1} date 2025-03-15T20:59:00-0700
; FORMAT={-:-/ absolute / metric / decimal}
; #@! TF.CreationDate,2025-03-15T20:59:00-07:00
; #@! TF.GenerationSoftware,Kicad,Pcbnew,8.0.8-8.0.8-0~ubuntu24.10.1
; #@! TF.FileFunction,Plated,1,2,PTH
FMAT,2
METRIC
; #@! TA.AperFunction,Plated,PTH,ComponentDrill
T1C0.800
; #@! TA.AperFunction,Plated,PTH,ComponentDrill
T2C0.900
; #@! TA.AperFunction,Plated,PTH,ComponentDrill
T3C1.000
; #@! TA.AperFunction,Plated,PTH,ComponentDrill
T4C1.100
%
G90
G05
T1
X119.21Y-68.0
X121.75Y-68.0
X153.455Y-60.0
X153.455Y-70.5
X153.455Y-81.5
X153.455Y-92.0
X155.995Y-60.0
X155.995Y-70.5
X155.995Y-81.5
X155.995Y-92.0
T2
X135.23Y-68.565
X137.77Y-68.565
T3
X115.75Y-85.71
X115.75Y-88.25
X115.75Y-90.79
X118.796Y-49.2
X119.525Y-56.25
X119.525Y-58.79
X121.336Y-49.2
X122.5Y-83.63
X122.5Y-86.17
X122.5Y-88.71
X122.5Y-91.25
X123.876Y-49.2
X125.7Y-60.75
X126.416Y-49.2
X127.5Y-74.96
X127.5Y-77.5
X127.94Y-97.46
X128.956Y-49.2
X130.48Y-97.46
X131.496Y-49.2
X133.02Y-97.46
X133.3Y-60.75
X134.036Y-49.2
X135.56Y-97.46
X136.5Y-78.71
X136.5Y-81.25
X136.576Y-49.2
X138.1Y-97.46
X139.116Y-49.2
X140.64Y-97.46
X141.656Y-49.2
X143.18Y-97.46
X145.72Y-49.2
X145.72Y-97.46
X148.26Y-49.2
X150.8Y-49.2
X150.8Y-97.46
X153.34Y-49.2
X153.34Y-97.46
X155.88Y-49.2
X155.88Y-97.46
X158.42Y-49.2
X158.42Y-97.46
X159.5Y-55.96
X159.5Y-58.5
X159.5Y-67.96
X159.5Y-70.5
X159.5Y-78.46
X159.5Y-81.0
X160.0Y-88.225
X160.0Y-90.765
X160.96Y-49.2
X160.96Y-97.46
X163.5Y-49.2
X163.5Y-97.46
T4
X129.5Y-87.0
X129.5Y-91.5
X136.0Y-87.0
X136.0Y-91.5
X143.0Y-56.0
X143.0Y-60.5
X143.0Y-66.5
X143.0Y-71.0
X143.0Y-77.0
X143.0Y-81.5
X143.0Y-87.5
X143.0Y-92.0
X149.5Y-56.0
X149.5Y-60.5
X149.5Y-66.5
X149.5Y-71.0
X149.5Y-77.0
X149.5Y-81.5
X149.5Y-87.5
X149.5Y-92.0
M30
