%TF.GenerationSoftware,KiCad,Pcbnew,8.0.8-8.0.8-0~ubuntu24.10.1*%
%TF.CreationDate,2025-03-23T20:29:31-07:00*%
%TF.ProjectId,sailingRegattaTimer,7361696c-696e-4675-9265-676174746154,rev?*%
%TF.SameCoordinates,Original*%
%TF.FileFunction,Legend,Top*%
%TF.FilePolarity,Positive*%
%FSLAX46Y46*%
G04 Gerber Fmt 4.6, Leading zero omitted, Abs format (unit mm)*
G04 Created by KiCad (PCBNEW 8.0.8-8.0.8-0~ubuntu24.10.1) date 2025-03-23 20:29:31*
%MOMM*%
%LPD*%
G01*
G04 APERTURE LIST*
%ADD10C,0.150000*%
%ADD11C,0.120000*%
G04 APERTURE END LIST*
D10*
X151284104Y-104510839D02*
X151284104Y-104034649D01*
X151569819Y-104606077D02*
X150569819Y-104272744D01*
X150569819Y-104272744D02*
X151569819Y-103939411D01*
X150569819Y-103415601D02*
X150569819Y-103320363D01*
X150569819Y-103320363D02*
X150617438Y-103225125D01*
X150617438Y-103225125D02*
X150665057Y-103177506D01*
X150665057Y-103177506D02*
X150760295Y-103129887D01*
X150760295Y-103129887D02*
X150950771Y-103082268D01*
X150950771Y-103082268D02*
X151188866Y-103082268D01*
X151188866Y-103082268D02*
X151379342Y-103129887D01*
X151379342Y-103129887D02*
X151474580Y-103177506D01*
X151474580Y-103177506D02*
X151522200Y-103225125D01*
X151522200Y-103225125D02*
X151569819Y-103320363D01*
X151569819Y-103320363D02*
X151569819Y-103415601D01*
X151569819Y-103415601D02*
X151522200Y-103510839D01*
X151522200Y-103510839D02*
X151474580Y-103558458D01*
X151474580Y-103558458D02*
X151379342Y-103606077D01*
X151379342Y-103606077D02*
X151188866Y-103653696D01*
X151188866Y-103653696D02*
X150950771Y-103653696D01*
X150950771Y-103653696D02*
X150760295Y-103606077D01*
X150760295Y-103606077D02*
X150665057Y-103558458D01*
X150665057Y-103558458D02*
X150617438Y-103510839D01*
X150617438Y-103510839D02*
X150569819Y-103415601D01*
X130969819Y-104463220D02*
X129969819Y-104463220D01*
X129969819Y-103796554D02*
X129969819Y-103606078D01*
X129969819Y-103606078D02*
X130017438Y-103510840D01*
X130017438Y-103510840D02*
X130112676Y-103415602D01*
X130112676Y-103415602D02*
X130303152Y-103367983D01*
X130303152Y-103367983D02*
X130636485Y-103367983D01*
X130636485Y-103367983D02*
X130826961Y-103415602D01*
X130826961Y-103415602D02*
X130922200Y-103510840D01*
X130922200Y-103510840D02*
X130969819Y-103606078D01*
X130969819Y-103606078D02*
X130969819Y-103796554D01*
X130969819Y-103796554D02*
X130922200Y-103891792D01*
X130922200Y-103891792D02*
X130826961Y-103987030D01*
X130826961Y-103987030D02*
X130636485Y-104034649D01*
X130636485Y-104034649D02*
X130303152Y-104034649D01*
X130303152Y-104034649D02*
X130112676Y-103987030D01*
X130112676Y-103987030D02*
X130017438Y-103891792D01*
X130017438Y-103891792D02*
X129969819Y-103796554D01*
X130969819Y-102367983D02*
X130493628Y-102701316D01*
X130969819Y-102939411D02*
X129969819Y-102939411D01*
X129969819Y-102939411D02*
X129969819Y-102558459D01*
X129969819Y-102558459D02*
X130017438Y-102463221D01*
X130017438Y-102463221D02*
X130065057Y-102415602D01*
X130065057Y-102415602D02*
X130160295Y-102367983D01*
X130160295Y-102367983D02*
X130303152Y-102367983D01*
X130303152Y-102367983D02*
X130398390Y-102415602D01*
X130398390Y-102415602D02*
X130446009Y-102463221D01*
X130446009Y-102463221D02*
X130493628Y-102558459D01*
X130493628Y-102558459D02*
X130493628Y-102939411D01*
X130446009Y-101939411D02*
X130446009Y-101606078D01*
X130969819Y-101463221D02*
X130969819Y-101939411D01*
X130969819Y-101939411D02*
X129969819Y-101939411D01*
X129969819Y-101939411D02*
X129969819Y-101463221D01*
X130446009Y-100701316D02*
X130446009Y-101034649D01*
X130969819Y-101034649D02*
X129969819Y-101034649D01*
X129969819Y-101034649D02*
X129969819Y-100558459D01*
X137869819Y-103987030D02*
X137869819Y-104463220D01*
X137869819Y-104463220D02*
X138346009Y-104510839D01*
X138346009Y-104510839D02*
X138298390Y-104463220D01*
X138298390Y-104463220D02*
X138250771Y-104367982D01*
X138250771Y-104367982D02*
X138250771Y-104129887D01*
X138250771Y-104129887D02*
X138298390Y-104034649D01*
X138298390Y-104034649D02*
X138346009Y-103987030D01*
X138346009Y-103987030D02*
X138441247Y-103939411D01*
X138441247Y-103939411D02*
X138679342Y-103939411D01*
X138679342Y-103939411D02*
X138774580Y-103987030D01*
X138774580Y-103987030D02*
X138822200Y-104034649D01*
X138822200Y-104034649D02*
X138869819Y-104129887D01*
X138869819Y-104129887D02*
X138869819Y-104367982D01*
X138869819Y-104367982D02*
X138822200Y-104463220D01*
X138822200Y-104463220D02*
X138774580Y-104510839D01*
X137869819Y-103653696D02*
X138869819Y-103320363D01*
X138869819Y-103320363D02*
X137869819Y-102987030D01*
X139169819Y-44115601D02*
X139169819Y-43925125D01*
X139169819Y-43925125D02*
X139122200Y-43829887D01*
X139122200Y-43829887D02*
X139074580Y-43782268D01*
X139074580Y-43782268D02*
X138931723Y-43687030D01*
X138931723Y-43687030D02*
X138741247Y-43639411D01*
X138741247Y-43639411D02*
X138360295Y-43639411D01*
X138360295Y-43639411D02*
X138265057Y-43687030D01*
X138265057Y-43687030D02*
X138217438Y-43734649D01*
X138217438Y-43734649D02*
X138169819Y-43829887D01*
X138169819Y-43829887D02*
X138169819Y-44020363D01*
X138169819Y-44020363D02*
X138217438Y-44115601D01*
X138217438Y-44115601D02*
X138265057Y-44163220D01*
X138265057Y-44163220D02*
X138360295Y-44210839D01*
X138360295Y-44210839D02*
X138598390Y-44210839D01*
X138598390Y-44210839D02*
X138693628Y-44163220D01*
X138693628Y-44163220D02*
X138741247Y-44115601D01*
X138741247Y-44115601D02*
X138788866Y-44020363D01*
X138788866Y-44020363D02*
X138788866Y-43829887D01*
X138788866Y-43829887D02*
X138741247Y-43734649D01*
X138741247Y-43734649D02*
X138693628Y-43687030D01*
X138693628Y-43687030D02*
X138598390Y-43639411D01*
X141398390Y-44020363D02*
X141350771Y-44115601D01*
X141350771Y-44115601D02*
X141303152Y-44163220D01*
X141303152Y-44163220D02*
X141207914Y-44210839D01*
X141207914Y-44210839D02*
X141160295Y-44210839D01*
X141160295Y-44210839D02*
X141065057Y-44163220D01*
X141065057Y-44163220D02*
X141017438Y-44115601D01*
X141017438Y-44115601D02*
X140969819Y-44020363D01*
X140969819Y-44020363D02*
X140969819Y-43829887D01*
X140969819Y-43829887D02*
X141017438Y-43734649D01*
X141017438Y-43734649D02*
X141065057Y-43687030D01*
X141065057Y-43687030D02*
X141160295Y-43639411D01*
X141160295Y-43639411D02*
X141207914Y-43639411D01*
X141207914Y-43639411D02*
X141303152Y-43687030D01*
X141303152Y-43687030D02*
X141350771Y-43734649D01*
X141350771Y-43734649D02*
X141398390Y-43829887D01*
X141398390Y-43829887D02*
X141398390Y-44020363D01*
X141398390Y-44020363D02*
X141446009Y-44115601D01*
X141446009Y-44115601D02*
X141493628Y-44163220D01*
X141493628Y-44163220D02*
X141588866Y-44210839D01*
X141588866Y-44210839D02*
X141779342Y-44210839D01*
X141779342Y-44210839D02*
X141874580Y-44163220D01*
X141874580Y-44163220D02*
X141922200Y-44115601D01*
X141922200Y-44115601D02*
X141969819Y-44020363D01*
X141969819Y-44020363D02*
X141969819Y-43829887D01*
X141969819Y-43829887D02*
X141922200Y-43734649D01*
X141922200Y-43734649D02*
X141874580Y-43687030D01*
X141874580Y-43687030D02*
X141779342Y-43639411D01*
X141779342Y-43639411D02*
X141588866Y-43639411D01*
X141588866Y-43639411D02*
X141493628Y-43687030D01*
X141493628Y-43687030D02*
X141446009Y-43734649D01*
X141446009Y-43734649D02*
X141398390Y-43829887D01*
X153353152Y-43734649D02*
X154019819Y-43734649D01*
X152972200Y-43972744D02*
X153686485Y-44210839D01*
X153686485Y-44210839D02*
X153686485Y-43591792D01*
X113369819Y-76991792D02*
X112893628Y-77325125D01*
X113369819Y-77563220D02*
X112369819Y-77563220D01*
X112369819Y-77563220D02*
X112369819Y-77182268D01*
X112369819Y-77182268D02*
X112417438Y-77087030D01*
X112417438Y-77087030D02*
X112465057Y-77039411D01*
X112465057Y-77039411D02*
X112560295Y-76991792D01*
X112560295Y-76991792D02*
X112703152Y-76991792D01*
X112703152Y-76991792D02*
X112798390Y-77039411D01*
X112798390Y-77039411D02*
X112846009Y-77087030D01*
X112846009Y-77087030D02*
X112893628Y-77182268D01*
X112893628Y-77182268D02*
X112893628Y-77563220D01*
X113322200Y-76182268D02*
X113369819Y-76277506D01*
X113369819Y-76277506D02*
X113369819Y-76467982D01*
X113369819Y-76467982D02*
X113322200Y-76563220D01*
X113322200Y-76563220D02*
X113226961Y-76610839D01*
X113226961Y-76610839D02*
X112846009Y-76610839D01*
X112846009Y-76610839D02*
X112750771Y-76563220D01*
X112750771Y-76563220D02*
X112703152Y-76467982D01*
X112703152Y-76467982D02*
X112703152Y-76277506D01*
X112703152Y-76277506D02*
X112750771Y-76182268D01*
X112750771Y-76182268D02*
X112846009Y-76134649D01*
X112846009Y-76134649D02*
X112941247Y-76134649D01*
X112941247Y-76134649D02*
X113036485Y-76610839D01*
X112703152Y-75277506D02*
X113512676Y-75277506D01*
X113512676Y-75277506D02*
X113607914Y-75325125D01*
X113607914Y-75325125D02*
X113655533Y-75372744D01*
X113655533Y-75372744D02*
X113703152Y-75467982D01*
X113703152Y-75467982D02*
X113703152Y-75610839D01*
X113703152Y-75610839D02*
X113655533Y-75706077D01*
X113322200Y-75277506D02*
X113369819Y-75372744D01*
X113369819Y-75372744D02*
X113369819Y-75563220D01*
X113369819Y-75563220D02*
X113322200Y-75658458D01*
X113322200Y-75658458D02*
X113274580Y-75706077D01*
X113274580Y-75706077D02*
X113179342Y-75753696D01*
X113179342Y-75753696D02*
X112893628Y-75753696D01*
X112893628Y-75753696D02*
X112798390Y-75706077D01*
X112798390Y-75706077D02*
X112750771Y-75658458D01*
X112750771Y-75658458D02*
X112703152Y-75563220D01*
X112703152Y-75563220D02*
X112703152Y-75372744D01*
X112703152Y-75372744D02*
X112750771Y-75277506D01*
X113369819Y-74372744D02*
X112846009Y-74372744D01*
X112846009Y-74372744D02*
X112750771Y-74420363D01*
X112750771Y-74420363D02*
X112703152Y-74515601D01*
X112703152Y-74515601D02*
X112703152Y-74706077D01*
X112703152Y-74706077D02*
X112750771Y-74801315D01*
X113322200Y-74372744D02*
X113369819Y-74467982D01*
X113369819Y-74467982D02*
X113369819Y-74706077D01*
X113369819Y-74706077D02*
X113322200Y-74801315D01*
X113322200Y-74801315D02*
X113226961Y-74848934D01*
X113226961Y-74848934D02*
X113131723Y-74848934D01*
X113131723Y-74848934D02*
X113036485Y-74801315D01*
X113036485Y-74801315D02*
X112988866Y-74706077D01*
X112988866Y-74706077D02*
X112988866Y-74467982D01*
X112988866Y-74467982D02*
X112941247Y-74372744D01*
X112703152Y-74039410D02*
X112703152Y-73658458D01*
X112369819Y-73896553D02*
X113226961Y-73896553D01*
X113226961Y-73896553D02*
X113322200Y-73848934D01*
X113322200Y-73848934D02*
X113369819Y-73753696D01*
X113369819Y-73753696D02*
X113369819Y-73658458D01*
X112703152Y-73467981D02*
X112703152Y-73087029D01*
X112369819Y-73325124D02*
X113226961Y-73325124D01*
X113226961Y-73325124D02*
X113322200Y-73277505D01*
X113322200Y-73277505D02*
X113369819Y-73182267D01*
X113369819Y-73182267D02*
X113369819Y-73087029D01*
X113369819Y-72325124D02*
X112846009Y-72325124D01*
X112846009Y-72325124D02*
X112750771Y-72372743D01*
X112750771Y-72372743D02*
X112703152Y-72467981D01*
X112703152Y-72467981D02*
X112703152Y-72658457D01*
X112703152Y-72658457D02*
X112750771Y-72753695D01*
X113322200Y-72325124D02*
X113369819Y-72420362D01*
X113369819Y-72420362D02*
X113369819Y-72658457D01*
X113369819Y-72658457D02*
X113322200Y-72753695D01*
X113322200Y-72753695D02*
X113226961Y-72801314D01*
X113226961Y-72801314D02*
X113131723Y-72801314D01*
X113131723Y-72801314D02*
X113036485Y-72753695D01*
X113036485Y-72753695D02*
X112988866Y-72658457D01*
X112988866Y-72658457D02*
X112988866Y-72420362D01*
X112988866Y-72420362D02*
X112941247Y-72325124D01*
X112369819Y-71229885D02*
X112369819Y-70658457D01*
X113369819Y-70944171D02*
X112369819Y-70944171D01*
X113369819Y-70325123D02*
X112703152Y-70325123D01*
X112369819Y-70325123D02*
X112417438Y-70372742D01*
X112417438Y-70372742D02*
X112465057Y-70325123D01*
X112465057Y-70325123D02*
X112417438Y-70277504D01*
X112417438Y-70277504D02*
X112369819Y-70325123D01*
X112369819Y-70325123D02*
X112465057Y-70325123D01*
X113369819Y-69848933D02*
X112703152Y-69848933D01*
X112798390Y-69848933D02*
X112750771Y-69801314D01*
X112750771Y-69801314D02*
X112703152Y-69706076D01*
X112703152Y-69706076D02*
X112703152Y-69563219D01*
X112703152Y-69563219D02*
X112750771Y-69467981D01*
X112750771Y-69467981D02*
X112846009Y-69420362D01*
X112846009Y-69420362D02*
X113369819Y-69420362D01*
X112846009Y-69420362D02*
X112750771Y-69372743D01*
X112750771Y-69372743D02*
X112703152Y-69277505D01*
X112703152Y-69277505D02*
X112703152Y-69134648D01*
X112703152Y-69134648D02*
X112750771Y-69039409D01*
X112750771Y-69039409D02*
X112846009Y-68991790D01*
X112846009Y-68991790D02*
X113369819Y-68991790D01*
X113322200Y-68134648D02*
X113369819Y-68229886D01*
X113369819Y-68229886D02*
X113369819Y-68420362D01*
X113369819Y-68420362D02*
X113322200Y-68515600D01*
X113322200Y-68515600D02*
X113226961Y-68563219D01*
X113226961Y-68563219D02*
X112846009Y-68563219D01*
X112846009Y-68563219D02*
X112750771Y-68515600D01*
X112750771Y-68515600D02*
X112703152Y-68420362D01*
X112703152Y-68420362D02*
X112703152Y-68229886D01*
X112703152Y-68229886D02*
X112750771Y-68134648D01*
X112750771Y-68134648D02*
X112846009Y-68087029D01*
X112846009Y-68087029D02*
X112941247Y-68087029D01*
X112941247Y-68087029D02*
X113036485Y-68563219D01*
X113369819Y-67658457D02*
X112703152Y-67658457D01*
X112893628Y-67658457D02*
X112798390Y-67610838D01*
X112798390Y-67610838D02*
X112750771Y-67563219D01*
X112750771Y-67563219D02*
X112703152Y-67467981D01*
X112703152Y-67467981D02*
X112703152Y-67372743D01*
X112703152Y-66372742D02*
X113369819Y-66134647D01*
X113369819Y-66134647D02*
X112703152Y-65896552D01*
X112369819Y-65325123D02*
X112369819Y-65229885D01*
X112369819Y-65229885D02*
X112417438Y-65134647D01*
X112417438Y-65134647D02*
X112465057Y-65087028D01*
X112465057Y-65087028D02*
X112560295Y-65039409D01*
X112560295Y-65039409D02*
X112750771Y-64991790D01*
X112750771Y-64991790D02*
X112988866Y-64991790D01*
X112988866Y-64991790D02*
X113179342Y-65039409D01*
X113179342Y-65039409D02*
X113274580Y-65087028D01*
X113274580Y-65087028D02*
X113322200Y-65134647D01*
X113322200Y-65134647D02*
X113369819Y-65229885D01*
X113369819Y-65229885D02*
X113369819Y-65325123D01*
X113369819Y-65325123D02*
X113322200Y-65420361D01*
X113322200Y-65420361D02*
X113274580Y-65467980D01*
X113274580Y-65467980D02*
X113179342Y-65515599D01*
X113179342Y-65515599D02*
X112988866Y-65563218D01*
X112988866Y-65563218D02*
X112750771Y-65563218D01*
X112750771Y-65563218D02*
X112560295Y-65515599D01*
X112560295Y-65515599D02*
X112465057Y-65467980D01*
X112465057Y-65467980D02*
X112417438Y-65420361D01*
X112417438Y-65420361D02*
X112369819Y-65325123D01*
X113274580Y-64563218D02*
X113322200Y-64515599D01*
X113322200Y-64515599D02*
X113369819Y-64563218D01*
X113369819Y-64563218D02*
X113322200Y-64610837D01*
X113322200Y-64610837D02*
X113274580Y-64563218D01*
X113274580Y-64563218D02*
X113369819Y-64563218D01*
X112798390Y-63944171D02*
X112750771Y-64039409D01*
X112750771Y-64039409D02*
X112703152Y-64087028D01*
X112703152Y-64087028D02*
X112607914Y-64134647D01*
X112607914Y-64134647D02*
X112560295Y-64134647D01*
X112560295Y-64134647D02*
X112465057Y-64087028D01*
X112465057Y-64087028D02*
X112417438Y-64039409D01*
X112417438Y-64039409D02*
X112369819Y-63944171D01*
X112369819Y-63944171D02*
X112369819Y-63753695D01*
X112369819Y-63753695D02*
X112417438Y-63658457D01*
X112417438Y-63658457D02*
X112465057Y-63610838D01*
X112465057Y-63610838D02*
X112560295Y-63563219D01*
X112560295Y-63563219D02*
X112607914Y-63563219D01*
X112607914Y-63563219D02*
X112703152Y-63610838D01*
X112703152Y-63610838D02*
X112750771Y-63658457D01*
X112750771Y-63658457D02*
X112798390Y-63753695D01*
X112798390Y-63753695D02*
X112798390Y-63944171D01*
X112798390Y-63944171D02*
X112846009Y-64039409D01*
X112846009Y-64039409D02*
X112893628Y-64087028D01*
X112893628Y-64087028D02*
X112988866Y-64134647D01*
X112988866Y-64134647D02*
X113179342Y-64134647D01*
X113179342Y-64134647D02*
X113274580Y-64087028D01*
X113274580Y-64087028D02*
X113322200Y-64039409D01*
X113322200Y-64039409D02*
X113369819Y-63944171D01*
X113369819Y-63944171D02*
X113369819Y-63753695D01*
X113369819Y-63753695D02*
X113322200Y-63658457D01*
X113322200Y-63658457D02*
X113274580Y-63610838D01*
X113274580Y-63610838D02*
X113179342Y-63563219D01*
X113179342Y-63563219D02*
X112988866Y-63563219D01*
X112988866Y-63563219D02*
X112893628Y-63610838D01*
X112893628Y-63610838D02*
X112846009Y-63658457D01*
X112846009Y-63658457D02*
X112798390Y-63753695D01*
X113274580Y-63134647D02*
X113322200Y-63087028D01*
X113322200Y-63087028D02*
X113369819Y-63134647D01*
X113369819Y-63134647D02*
X113322200Y-63182266D01*
X113322200Y-63182266D02*
X113274580Y-63134647D01*
X113274580Y-63134647D02*
X113369819Y-63134647D01*
X112369819Y-62182267D02*
X112369819Y-62658457D01*
X112369819Y-62658457D02*
X112846009Y-62706076D01*
X112846009Y-62706076D02*
X112798390Y-62658457D01*
X112798390Y-62658457D02*
X112750771Y-62563219D01*
X112750771Y-62563219D02*
X112750771Y-62325124D01*
X112750771Y-62325124D02*
X112798390Y-62229886D01*
X112798390Y-62229886D02*
X112846009Y-62182267D01*
X112846009Y-62182267D02*
X112941247Y-62134648D01*
X112941247Y-62134648D02*
X113179342Y-62134648D01*
X113179342Y-62134648D02*
X113274580Y-62182267D01*
X113274580Y-62182267D02*
X113322200Y-62229886D01*
X113322200Y-62229886D02*
X113369819Y-62325124D01*
X113369819Y-62325124D02*
X113369819Y-62563219D01*
X113369819Y-62563219D02*
X113322200Y-62658457D01*
X113322200Y-62658457D02*
X113274580Y-62706076D01*
X129169819Y-43639411D02*
X129169819Y-44210839D01*
X129169819Y-43925125D02*
X128169819Y-43925125D01*
X128169819Y-43925125D02*
X128312676Y-44020363D01*
X128312676Y-44020363D02*
X128407914Y-44115601D01*
X128407914Y-44115601D02*
X128455533Y-44210839D01*
X128169819Y-43306077D02*
X128169819Y-42687030D01*
X128169819Y-42687030D02*
X128550771Y-43020363D01*
X128550771Y-43020363D02*
X128550771Y-42877506D01*
X128550771Y-42877506D02*
X128598390Y-42782268D01*
X128598390Y-42782268D02*
X128646009Y-42734649D01*
X128646009Y-42734649D02*
X128741247Y-42687030D01*
X128741247Y-42687030D02*
X128979342Y-42687030D01*
X128979342Y-42687030D02*
X129074580Y-42734649D01*
X129074580Y-42734649D02*
X129122200Y-42782268D01*
X129122200Y-42782268D02*
X129169819Y-42877506D01*
X129169819Y-42877506D02*
X129169819Y-43163220D01*
X129169819Y-43163220D02*
X129122200Y-43258458D01*
X129122200Y-43258458D02*
X129074580Y-43306077D01*
X163984104Y-104510839D02*
X163984104Y-104034649D01*
X164269819Y-104606077D02*
X163269819Y-104272744D01*
X163269819Y-104272744D02*
X164269819Y-103939411D01*
X163269819Y-103129887D02*
X163269819Y-103606077D01*
X163269819Y-103606077D02*
X163746009Y-103653696D01*
X163746009Y-103653696D02*
X163698390Y-103606077D01*
X163698390Y-103606077D02*
X163650771Y-103510839D01*
X163650771Y-103510839D02*
X163650771Y-103272744D01*
X163650771Y-103272744D02*
X163698390Y-103177506D01*
X163698390Y-103177506D02*
X163746009Y-103129887D01*
X163746009Y-103129887D02*
X163841247Y-103082268D01*
X163841247Y-103082268D02*
X164079342Y-103082268D01*
X164079342Y-103082268D02*
X164174580Y-103129887D01*
X164174580Y-103129887D02*
X164222200Y-103177506D01*
X164222200Y-103177506D02*
X164269819Y-103272744D01*
X164269819Y-103272744D02*
X164269819Y-103510839D01*
X164269819Y-103510839D02*
X164222200Y-103606077D01*
X164222200Y-103606077D02*
X164174580Y-103653696D01*
X156484104Y-104510839D02*
X156484104Y-104034649D01*
X156769819Y-104606077D02*
X155769819Y-104272744D01*
X155769819Y-104272744D02*
X156769819Y-103939411D01*
X155865057Y-103653696D02*
X155817438Y-103606077D01*
X155817438Y-103606077D02*
X155769819Y-103510839D01*
X155769819Y-103510839D02*
X155769819Y-103272744D01*
X155769819Y-103272744D02*
X155817438Y-103177506D01*
X155817438Y-103177506D02*
X155865057Y-103129887D01*
X155865057Y-103129887D02*
X155960295Y-103082268D01*
X155960295Y-103082268D02*
X156055533Y-103082268D01*
X156055533Y-103082268D02*
X156198390Y-103129887D01*
X156198390Y-103129887D02*
X156769819Y-103701315D01*
X156769819Y-103701315D02*
X156769819Y-103082268D01*
X125967438Y-43639411D02*
X125919819Y-43734649D01*
X125919819Y-43734649D02*
X125919819Y-43877506D01*
X125919819Y-43877506D02*
X125967438Y-44020363D01*
X125967438Y-44020363D02*
X126062676Y-44115601D01*
X126062676Y-44115601D02*
X126157914Y-44163220D01*
X126157914Y-44163220D02*
X126348390Y-44210839D01*
X126348390Y-44210839D02*
X126491247Y-44210839D01*
X126491247Y-44210839D02*
X126681723Y-44163220D01*
X126681723Y-44163220D02*
X126776961Y-44115601D01*
X126776961Y-44115601D02*
X126872200Y-44020363D01*
X126872200Y-44020363D02*
X126919819Y-43877506D01*
X126919819Y-43877506D02*
X126919819Y-43782268D01*
X126919819Y-43782268D02*
X126872200Y-43639411D01*
X126872200Y-43639411D02*
X126824580Y-43591792D01*
X126824580Y-43591792D02*
X126491247Y-43591792D01*
X126491247Y-43591792D02*
X126491247Y-43782268D01*
X126919819Y-43163220D02*
X125919819Y-43163220D01*
X125919819Y-43163220D02*
X126919819Y-42591792D01*
X126919819Y-42591792D02*
X125919819Y-42591792D01*
X126919819Y-42115601D02*
X125919819Y-42115601D01*
X125919819Y-42115601D02*
X125919819Y-41877506D01*
X125919819Y-41877506D02*
X125967438Y-41734649D01*
X125967438Y-41734649D02*
X126062676Y-41639411D01*
X126062676Y-41639411D02*
X126157914Y-41591792D01*
X126157914Y-41591792D02*
X126348390Y-41544173D01*
X126348390Y-41544173D02*
X126491247Y-41544173D01*
X126491247Y-41544173D02*
X126681723Y-41591792D01*
X126681723Y-41591792D02*
X126776961Y-41639411D01*
X126776961Y-41639411D02*
X126872200Y-41734649D01*
X126872200Y-41734649D02*
X126919819Y-41877506D01*
X126919819Y-41877506D02*
X126919819Y-42115601D01*
X147469819Y-43734649D02*
X147469819Y-43925125D01*
X147469819Y-43925125D02*
X147517438Y-44020363D01*
X147517438Y-44020363D02*
X147565057Y-44067982D01*
X147565057Y-44067982D02*
X147707914Y-44163220D01*
X147707914Y-44163220D02*
X147898390Y-44210839D01*
X147898390Y-44210839D02*
X148279342Y-44210839D01*
X148279342Y-44210839D02*
X148374580Y-44163220D01*
X148374580Y-44163220D02*
X148422200Y-44115601D01*
X148422200Y-44115601D02*
X148469819Y-44020363D01*
X148469819Y-44020363D02*
X148469819Y-43829887D01*
X148469819Y-43829887D02*
X148422200Y-43734649D01*
X148422200Y-43734649D02*
X148374580Y-43687030D01*
X148374580Y-43687030D02*
X148279342Y-43639411D01*
X148279342Y-43639411D02*
X148041247Y-43639411D01*
X148041247Y-43639411D02*
X147946009Y-43687030D01*
X147946009Y-43687030D02*
X147898390Y-43734649D01*
X147898390Y-43734649D02*
X147850771Y-43829887D01*
X147850771Y-43829887D02*
X147850771Y-44020363D01*
X147850771Y-44020363D02*
X147898390Y-44115601D01*
X147898390Y-44115601D02*
X147946009Y-44163220D01*
X147946009Y-44163220D02*
X148041247Y-44210839D01*
X134369819Y-43639411D02*
X134369819Y-44210839D01*
X134369819Y-43925125D02*
X133369819Y-43925125D01*
X133369819Y-43925125D02*
X133512676Y-44020363D01*
X133512676Y-44020363D02*
X133607914Y-44115601D01*
X133607914Y-44115601D02*
X133655533Y-44210839D01*
X134369819Y-42687030D02*
X134369819Y-43258458D01*
X134369819Y-42972744D02*
X133369819Y-42972744D01*
X133369819Y-42972744D02*
X133512676Y-43067982D01*
X133512676Y-43067982D02*
X133607914Y-43163220D01*
X133607914Y-43163220D02*
X133655533Y-43258458D01*
X135269819Y-104558458D02*
X135269819Y-103939411D01*
X135269819Y-103939411D02*
X135650771Y-104272744D01*
X135650771Y-104272744D02*
X135650771Y-104129887D01*
X135650771Y-104129887D02*
X135698390Y-104034649D01*
X135698390Y-104034649D02*
X135746009Y-103987030D01*
X135746009Y-103987030D02*
X135841247Y-103939411D01*
X135841247Y-103939411D02*
X136079342Y-103939411D01*
X136079342Y-103939411D02*
X136174580Y-103987030D01*
X136174580Y-103987030D02*
X136222200Y-104034649D01*
X136222200Y-104034649D02*
X136269819Y-104129887D01*
X136269819Y-104129887D02*
X136269819Y-104415601D01*
X136269819Y-104415601D02*
X136222200Y-104510839D01*
X136222200Y-104510839D02*
X136174580Y-104558458D01*
X135269819Y-103653696D02*
X136269819Y-103320363D01*
X136269819Y-103320363D02*
X135269819Y-102987030D01*
X135269819Y-102748934D02*
X135269819Y-102129887D01*
X135269819Y-102129887D02*
X135650771Y-102463220D01*
X135650771Y-102463220D02*
X135650771Y-102320363D01*
X135650771Y-102320363D02*
X135698390Y-102225125D01*
X135698390Y-102225125D02*
X135746009Y-102177506D01*
X135746009Y-102177506D02*
X135841247Y-102129887D01*
X135841247Y-102129887D02*
X136079342Y-102129887D01*
X136079342Y-102129887D02*
X136174580Y-102177506D01*
X136174580Y-102177506D02*
X136222200Y-102225125D01*
X136222200Y-102225125D02*
X136269819Y-102320363D01*
X136269819Y-102320363D02*
X136269819Y-102606077D01*
X136269819Y-102606077D02*
X136222200Y-102701315D01*
X136222200Y-102701315D02*
X136174580Y-102748934D01*
X155319819Y-44258458D02*
X155319819Y-43639411D01*
X155319819Y-43639411D02*
X155700771Y-43972744D01*
X155700771Y-43972744D02*
X155700771Y-43829887D01*
X155700771Y-43829887D02*
X155748390Y-43734649D01*
X155748390Y-43734649D02*
X155796009Y-43687030D01*
X155796009Y-43687030D02*
X155891247Y-43639411D01*
X155891247Y-43639411D02*
X156129342Y-43639411D01*
X156129342Y-43639411D02*
X156224580Y-43687030D01*
X156224580Y-43687030D02*
X156272200Y-43734649D01*
X156272200Y-43734649D02*
X156319819Y-43829887D01*
X156319819Y-43829887D02*
X156319819Y-44115601D01*
X156319819Y-44115601D02*
X156272200Y-44210839D01*
X156272200Y-44210839D02*
X156224580Y-44258458D01*
X164369819Y-43591792D02*
X163893628Y-43925125D01*
X164369819Y-44163220D02*
X163369819Y-44163220D01*
X163369819Y-44163220D02*
X163369819Y-43782268D01*
X163369819Y-43782268D02*
X163417438Y-43687030D01*
X163417438Y-43687030D02*
X163465057Y-43639411D01*
X163465057Y-43639411D02*
X163560295Y-43591792D01*
X163560295Y-43591792D02*
X163703152Y-43591792D01*
X163703152Y-43591792D02*
X163798390Y-43639411D01*
X163798390Y-43639411D02*
X163846009Y-43687030D01*
X163846009Y-43687030D02*
X163893628Y-43782268D01*
X163893628Y-43782268D02*
X163893628Y-44163220D01*
X163369819Y-43258458D02*
X164369819Y-42591792D01*
X163369819Y-42591792D02*
X164369819Y-43258458D01*
X163369819Y-42020363D02*
X163369819Y-41829887D01*
X163369819Y-41829887D02*
X163417438Y-41734649D01*
X163417438Y-41734649D02*
X163512676Y-41639411D01*
X163512676Y-41639411D02*
X163703152Y-41591792D01*
X163703152Y-41591792D02*
X164036485Y-41591792D01*
X164036485Y-41591792D02*
X164226961Y-41639411D01*
X164226961Y-41639411D02*
X164322200Y-41734649D01*
X164322200Y-41734649D02*
X164369819Y-41829887D01*
X164369819Y-41829887D02*
X164369819Y-42020363D01*
X164369819Y-42020363D02*
X164322200Y-42115601D01*
X164322200Y-42115601D02*
X164226961Y-42210839D01*
X164226961Y-42210839D02*
X164036485Y-42258458D01*
X164036485Y-42258458D02*
X163703152Y-42258458D01*
X163703152Y-42258458D02*
X163512676Y-42210839D01*
X163512676Y-42210839D02*
X163417438Y-42115601D01*
X163417438Y-42115601D02*
X163369819Y-42020363D01*
X163988866Y-41163220D02*
X163988866Y-40401316D01*
X163369819Y-39734649D02*
X163369819Y-39639411D01*
X163369819Y-39639411D02*
X163417438Y-39544173D01*
X163417438Y-39544173D02*
X163465057Y-39496554D01*
X163465057Y-39496554D02*
X163560295Y-39448935D01*
X163560295Y-39448935D02*
X163750771Y-39401316D01*
X163750771Y-39401316D02*
X163988866Y-39401316D01*
X163988866Y-39401316D02*
X164179342Y-39448935D01*
X164179342Y-39448935D02*
X164274580Y-39496554D01*
X164274580Y-39496554D02*
X164322200Y-39544173D01*
X164322200Y-39544173D02*
X164369819Y-39639411D01*
X164369819Y-39639411D02*
X164369819Y-39734649D01*
X164369819Y-39734649D02*
X164322200Y-39829887D01*
X164322200Y-39829887D02*
X164274580Y-39877506D01*
X164274580Y-39877506D02*
X164179342Y-39925125D01*
X164179342Y-39925125D02*
X163988866Y-39972744D01*
X163988866Y-39972744D02*
X163750771Y-39972744D01*
X163750771Y-39972744D02*
X163560295Y-39925125D01*
X163560295Y-39925125D02*
X163465057Y-39877506D01*
X163465057Y-39877506D02*
X163417438Y-39829887D01*
X163417438Y-39829887D02*
X163369819Y-39734649D01*
X157915057Y-44210839D02*
X157867438Y-44163220D01*
X157867438Y-44163220D02*
X157819819Y-44067982D01*
X157819819Y-44067982D02*
X157819819Y-43829887D01*
X157819819Y-43829887D02*
X157867438Y-43734649D01*
X157867438Y-43734649D02*
X157915057Y-43687030D01*
X157915057Y-43687030D02*
X158010295Y-43639411D01*
X158010295Y-43639411D02*
X158105533Y-43639411D01*
X158105533Y-43639411D02*
X158248390Y-43687030D01*
X158248390Y-43687030D02*
X158819819Y-44258458D01*
X158819819Y-44258458D02*
X158819819Y-43639411D01*
X160569819Y-44306077D02*
X160569819Y-43734649D01*
X161569819Y-44020363D02*
X160569819Y-44020363D01*
X160569819Y-43496553D02*
X161569819Y-42829887D01*
X160569819Y-42829887D02*
X161569819Y-43496553D01*
X160569819Y-42258458D02*
X160569819Y-42067982D01*
X160569819Y-42067982D02*
X160617438Y-41972744D01*
X160617438Y-41972744D02*
X160712676Y-41877506D01*
X160712676Y-41877506D02*
X160903152Y-41829887D01*
X160903152Y-41829887D02*
X161236485Y-41829887D01*
X161236485Y-41829887D02*
X161426961Y-41877506D01*
X161426961Y-41877506D02*
X161522200Y-41972744D01*
X161522200Y-41972744D02*
X161569819Y-42067982D01*
X161569819Y-42067982D02*
X161569819Y-42258458D01*
X161569819Y-42258458D02*
X161522200Y-42353696D01*
X161522200Y-42353696D02*
X161426961Y-42448934D01*
X161426961Y-42448934D02*
X161236485Y-42496553D01*
X161236485Y-42496553D02*
X160903152Y-42496553D01*
X160903152Y-42496553D02*
X160712676Y-42448934D01*
X160712676Y-42448934D02*
X160617438Y-42353696D01*
X160617438Y-42353696D02*
X160569819Y-42258458D01*
X161188866Y-41401315D02*
X161188866Y-40639411D01*
X161569819Y-39639411D02*
X161569819Y-40210839D01*
X161569819Y-39925125D02*
X160569819Y-39925125D01*
X160569819Y-39925125D02*
X160712676Y-40020363D01*
X160712676Y-40020363D02*
X160807914Y-40115601D01*
X160807914Y-40115601D02*
X160855533Y-40210839D01*
X144969819Y-44258458D02*
X144969819Y-43591792D01*
X144969819Y-43591792D02*
X145969819Y-44020363D01*
X161584104Y-104510839D02*
X161584104Y-104034649D01*
X161869819Y-104606077D02*
X160869819Y-104272744D01*
X160869819Y-104272744D02*
X161869819Y-103939411D01*
X161203152Y-103177506D02*
X161869819Y-103177506D01*
X160822200Y-103415601D02*
X161536485Y-103653696D01*
X161536485Y-103653696D02*
X161536485Y-103034649D01*
X158884104Y-104510839D02*
X158884104Y-104034649D01*
X159169819Y-104606077D02*
X158169819Y-104272744D01*
X158169819Y-104272744D02*
X159169819Y-103939411D01*
X158169819Y-103701315D02*
X158169819Y-103082268D01*
X158169819Y-103082268D02*
X158550771Y-103415601D01*
X158550771Y-103415601D02*
X158550771Y-103272744D01*
X158550771Y-103272744D02*
X158598390Y-103177506D01*
X158598390Y-103177506D02*
X158646009Y-103129887D01*
X158646009Y-103129887D02*
X158741247Y-103082268D01*
X158741247Y-103082268D02*
X158979342Y-103082268D01*
X158979342Y-103082268D02*
X159074580Y-103129887D01*
X159074580Y-103129887D02*
X159122200Y-103177506D01*
X159122200Y-103177506D02*
X159169819Y-103272744D01*
X159169819Y-103272744D02*
X159169819Y-103558458D01*
X159169819Y-103558458D02*
X159122200Y-103653696D01*
X159122200Y-103653696D02*
X159074580Y-103701315D01*
X153684104Y-104510839D02*
X153684104Y-104034649D01*
X153969819Y-104606077D02*
X152969819Y-104272744D01*
X152969819Y-104272744D02*
X153969819Y-103939411D01*
X153969819Y-103082268D02*
X153969819Y-103653696D01*
X153969819Y-103367982D02*
X152969819Y-103367982D01*
X152969819Y-103367982D02*
X153112676Y-103463220D01*
X153112676Y-103463220D02*
X153207914Y-103558458D01*
X153207914Y-103558458D02*
X153255533Y-103653696D01*
X133869819Y-103891792D02*
X133393628Y-104225125D01*
X133869819Y-104463220D02*
X132869819Y-104463220D01*
X132869819Y-104463220D02*
X132869819Y-104082268D01*
X132869819Y-104082268D02*
X132917438Y-103987030D01*
X132917438Y-103987030D02*
X132965057Y-103939411D01*
X132965057Y-103939411D02*
X133060295Y-103891792D01*
X133060295Y-103891792D02*
X133203152Y-103891792D01*
X133203152Y-103891792D02*
X133298390Y-103939411D01*
X133298390Y-103939411D02*
X133346009Y-103987030D01*
X133346009Y-103987030D02*
X133393628Y-104082268D01*
X133393628Y-104082268D02*
X133393628Y-104463220D01*
X133346009Y-103463220D02*
X133346009Y-103129887D01*
X133869819Y-102987030D02*
X133869819Y-103463220D01*
X133869819Y-103463220D02*
X132869819Y-103463220D01*
X132869819Y-103463220D02*
X132869819Y-102987030D01*
X133822200Y-102606077D02*
X133869819Y-102463220D01*
X133869819Y-102463220D02*
X133869819Y-102225125D01*
X133869819Y-102225125D02*
X133822200Y-102129887D01*
X133822200Y-102129887D02*
X133774580Y-102082268D01*
X133774580Y-102082268D02*
X133679342Y-102034649D01*
X133679342Y-102034649D02*
X133584104Y-102034649D01*
X133584104Y-102034649D02*
X133488866Y-102082268D01*
X133488866Y-102082268D02*
X133441247Y-102129887D01*
X133441247Y-102129887D02*
X133393628Y-102225125D01*
X133393628Y-102225125D02*
X133346009Y-102415601D01*
X133346009Y-102415601D02*
X133298390Y-102510839D01*
X133298390Y-102510839D02*
X133250771Y-102558458D01*
X133250771Y-102558458D02*
X133155533Y-102606077D01*
X133155533Y-102606077D02*
X133060295Y-102606077D01*
X133060295Y-102606077D02*
X132965057Y-102558458D01*
X132965057Y-102558458D02*
X132917438Y-102510839D01*
X132917438Y-102510839D02*
X132869819Y-102415601D01*
X132869819Y-102415601D02*
X132869819Y-102177506D01*
X132869819Y-102177506D02*
X132917438Y-102034649D01*
X133346009Y-101606077D02*
X133346009Y-101272744D01*
X133869819Y-101129887D02*
X133869819Y-101606077D01*
X133869819Y-101606077D02*
X132869819Y-101606077D01*
X132869819Y-101606077D02*
X132869819Y-101129887D01*
X132869819Y-100844172D02*
X132869819Y-100272744D01*
X133869819Y-100558458D02*
X132869819Y-100558458D01*
X136869819Y-43639411D02*
X136869819Y-44210839D01*
X136869819Y-43925125D02*
X135869819Y-43925125D01*
X135869819Y-43925125D02*
X136012676Y-44020363D01*
X136012676Y-44020363D02*
X136107914Y-44115601D01*
X136107914Y-44115601D02*
X136155533Y-44210839D01*
X135869819Y-43020363D02*
X135869819Y-42925125D01*
X135869819Y-42925125D02*
X135917438Y-42829887D01*
X135917438Y-42829887D02*
X135965057Y-42782268D01*
X135965057Y-42782268D02*
X136060295Y-42734649D01*
X136060295Y-42734649D02*
X136250771Y-42687030D01*
X136250771Y-42687030D02*
X136488866Y-42687030D01*
X136488866Y-42687030D02*
X136679342Y-42734649D01*
X136679342Y-42734649D02*
X136774580Y-42782268D01*
X136774580Y-42782268D02*
X136822200Y-42829887D01*
X136822200Y-42829887D02*
X136869819Y-42925125D01*
X136869819Y-42925125D02*
X136869819Y-43020363D01*
X136869819Y-43020363D02*
X136822200Y-43115601D01*
X136822200Y-43115601D02*
X136774580Y-43163220D01*
X136774580Y-43163220D02*
X136679342Y-43210839D01*
X136679342Y-43210839D02*
X136488866Y-43258458D01*
X136488866Y-43258458D02*
X136250771Y-43258458D01*
X136250771Y-43258458D02*
X136060295Y-43210839D01*
X136060295Y-43210839D02*
X135965057Y-43163220D01*
X135965057Y-43163220D02*
X135917438Y-43115601D01*
X135917438Y-43115601D02*
X135869819Y-43020363D01*
X140317438Y-103939411D02*
X140269819Y-104034649D01*
X140269819Y-104034649D02*
X140269819Y-104177506D01*
X140269819Y-104177506D02*
X140317438Y-104320363D01*
X140317438Y-104320363D02*
X140412676Y-104415601D01*
X140412676Y-104415601D02*
X140507914Y-104463220D01*
X140507914Y-104463220D02*
X140698390Y-104510839D01*
X140698390Y-104510839D02*
X140841247Y-104510839D01*
X140841247Y-104510839D02*
X141031723Y-104463220D01*
X141031723Y-104463220D02*
X141126961Y-104415601D01*
X141126961Y-104415601D02*
X141222200Y-104320363D01*
X141222200Y-104320363D02*
X141269819Y-104177506D01*
X141269819Y-104177506D02*
X141269819Y-104082268D01*
X141269819Y-104082268D02*
X141222200Y-103939411D01*
X141222200Y-103939411D02*
X141174580Y-103891792D01*
X141174580Y-103891792D02*
X140841247Y-103891792D01*
X140841247Y-103891792D02*
X140841247Y-104082268D01*
X141269819Y-103463220D02*
X140269819Y-103463220D01*
X140269819Y-103463220D02*
X141269819Y-102891792D01*
X141269819Y-102891792D02*
X140269819Y-102891792D01*
X141269819Y-102415601D02*
X140269819Y-102415601D01*
X140269819Y-102415601D02*
X140269819Y-102177506D01*
X140269819Y-102177506D02*
X140317438Y-102034649D01*
X140317438Y-102034649D02*
X140412676Y-101939411D01*
X140412676Y-101939411D02*
X140507914Y-101891792D01*
X140507914Y-101891792D02*
X140698390Y-101844173D01*
X140698390Y-101844173D02*
X140841247Y-101844173D01*
X140841247Y-101844173D02*
X141031723Y-101891792D01*
X141031723Y-101891792D02*
X141126961Y-101939411D01*
X141126961Y-101939411D02*
X141222200Y-102034649D01*
X141222200Y-102034649D02*
X141269819Y-102177506D01*
X141269819Y-102177506D02*
X141269819Y-102415601D01*
X123984104Y-44210839D02*
X123984104Y-43734649D01*
X124269819Y-44306077D02*
X123269819Y-43972744D01*
X123269819Y-43972744D02*
X124269819Y-43639411D01*
X124269819Y-42734649D02*
X123793628Y-43067982D01*
X124269819Y-43306077D02*
X123269819Y-43306077D01*
X123269819Y-43306077D02*
X123269819Y-42925125D01*
X123269819Y-42925125D02*
X123317438Y-42829887D01*
X123317438Y-42829887D02*
X123365057Y-42782268D01*
X123365057Y-42782268D02*
X123460295Y-42734649D01*
X123460295Y-42734649D02*
X123603152Y-42734649D01*
X123603152Y-42734649D02*
X123698390Y-42782268D01*
X123698390Y-42782268D02*
X123746009Y-42829887D01*
X123746009Y-42829887D02*
X123793628Y-42925125D01*
X123793628Y-42925125D02*
X123793628Y-43306077D01*
X123746009Y-42306077D02*
X123746009Y-41972744D01*
X124269819Y-41829887D02*
X124269819Y-42306077D01*
X124269819Y-42306077D02*
X123269819Y-42306077D01*
X123269819Y-42306077D02*
X123269819Y-41829887D01*
X123746009Y-41067982D02*
X123746009Y-41401315D01*
X124269819Y-41401315D02*
X123269819Y-41401315D01*
X123269819Y-41401315D02*
X123269819Y-40925125D01*
X150219819Y-43687030D02*
X150219819Y-44163220D01*
X150219819Y-44163220D02*
X150696009Y-44210839D01*
X150696009Y-44210839D02*
X150648390Y-44163220D01*
X150648390Y-44163220D02*
X150600771Y-44067982D01*
X150600771Y-44067982D02*
X150600771Y-43829887D01*
X150600771Y-43829887D02*
X150648390Y-43734649D01*
X150648390Y-43734649D02*
X150696009Y-43687030D01*
X150696009Y-43687030D02*
X150791247Y-43639411D01*
X150791247Y-43639411D02*
X151029342Y-43639411D01*
X151029342Y-43639411D02*
X151124580Y-43687030D01*
X151124580Y-43687030D02*
X151172200Y-43734649D01*
X151172200Y-43734649D02*
X151219819Y-43829887D01*
X151219819Y-43829887D02*
X151219819Y-44067982D01*
X151219819Y-44067982D02*
X151172200Y-44163220D01*
X151172200Y-44163220D02*
X151124580Y-44210839D01*
X131919819Y-43639411D02*
X131919819Y-44210839D01*
X131919819Y-43925125D02*
X130919819Y-43925125D01*
X130919819Y-43925125D02*
X131062676Y-44020363D01*
X131062676Y-44020363D02*
X131157914Y-44115601D01*
X131157914Y-44115601D02*
X131205533Y-44210839D01*
X131015057Y-43258458D02*
X130967438Y-43210839D01*
X130967438Y-43210839D02*
X130919819Y-43115601D01*
X130919819Y-43115601D02*
X130919819Y-42877506D01*
X130919819Y-42877506D02*
X130967438Y-42782268D01*
X130967438Y-42782268D02*
X131015057Y-42734649D01*
X131015057Y-42734649D02*
X131110295Y-42687030D01*
X131110295Y-42687030D02*
X131205533Y-42687030D01*
X131205533Y-42687030D02*
X131348390Y-42734649D01*
X131348390Y-42734649D02*
X131919819Y-43306077D01*
X131919819Y-43306077D02*
X131919819Y-42687030D01*
X145569819Y-104606077D02*
X146569819Y-104272744D01*
X146569819Y-104272744D02*
X145569819Y-103939411D01*
X146569819Y-103606077D02*
X145569819Y-103606077D01*
X146569819Y-103129887D02*
X145569819Y-103129887D01*
X145569819Y-103129887D02*
X146569819Y-102558459D01*
X146569819Y-102558459D02*
X145569819Y-102558459D01*
X142717438Y-103939411D02*
X142669819Y-104034649D01*
X142669819Y-104034649D02*
X142669819Y-104177506D01*
X142669819Y-104177506D02*
X142717438Y-104320363D01*
X142717438Y-104320363D02*
X142812676Y-104415601D01*
X142812676Y-104415601D02*
X142907914Y-104463220D01*
X142907914Y-104463220D02*
X143098390Y-104510839D01*
X143098390Y-104510839D02*
X143241247Y-104510839D01*
X143241247Y-104510839D02*
X143431723Y-104463220D01*
X143431723Y-104463220D02*
X143526961Y-104415601D01*
X143526961Y-104415601D02*
X143622200Y-104320363D01*
X143622200Y-104320363D02*
X143669819Y-104177506D01*
X143669819Y-104177506D02*
X143669819Y-104082268D01*
X143669819Y-104082268D02*
X143622200Y-103939411D01*
X143622200Y-103939411D02*
X143574580Y-103891792D01*
X143574580Y-103891792D02*
X143241247Y-103891792D01*
X143241247Y-103891792D02*
X143241247Y-104082268D01*
X143669819Y-103463220D02*
X142669819Y-103463220D01*
X142669819Y-103463220D02*
X143669819Y-102891792D01*
X143669819Y-102891792D02*
X142669819Y-102891792D01*
X143669819Y-102415601D02*
X142669819Y-102415601D01*
X142669819Y-102415601D02*
X142669819Y-102177506D01*
X142669819Y-102177506D02*
X142717438Y-102034649D01*
X142717438Y-102034649D02*
X142812676Y-101939411D01*
X142812676Y-101939411D02*
X142907914Y-101891792D01*
X142907914Y-101891792D02*
X143098390Y-101844173D01*
X143098390Y-101844173D02*
X143241247Y-101844173D01*
X143241247Y-101844173D02*
X143431723Y-101891792D01*
X143431723Y-101891792D02*
X143526961Y-101939411D01*
X143526961Y-101939411D02*
X143622200Y-102034649D01*
X143622200Y-102034649D02*
X143669819Y-102177506D01*
X143669819Y-102177506D02*
X143669819Y-102415601D01*
X133785714Y-67559819D02*
X133785714Y-66559819D01*
X133785714Y-66559819D02*
X134023809Y-66559819D01*
X134023809Y-66559819D02*
X134166666Y-66607438D01*
X134166666Y-66607438D02*
X134261904Y-66702676D01*
X134261904Y-66702676D02*
X134309523Y-66797914D01*
X134309523Y-66797914D02*
X134357142Y-66988390D01*
X134357142Y-66988390D02*
X134357142Y-67131247D01*
X134357142Y-67131247D02*
X134309523Y-67321723D01*
X134309523Y-67321723D02*
X134261904Y-67416961D01*
X134261904Y-67416961D02*
X134166666Y-67512200D01*
X134166666Y-67512200D02*
X134023809Y-67559819D01*
X134023809Y-67559819D02*
X133785714Y-67559819D01*
X135309523Y-67559819D02*
X134738095Y-67559819D01*
X135023809Y-67559819D02*
X135023809Y-66559819D01*
X135023809Y-66559819D02*
X134928571Y-66702676D01*
X134928571Y-66702676D02*
X134833333Y-66797914D01*
X134833333Y-66797914D02*
X134738095Y-66845533D01*
X135738095Y-67178866D02*
X136500000Y-67178866D01*
X137452380Y-67559819D02*
X136976190Y-67559819D01*
X136976190Y-67559819D02*
X136976190Y-66559819D01*
X137785714Y-67036009D02*
X138119047Y-67036009D01*
X138261904Y-67559819D02*
X137785714Y-67559819D01*
X137785714Y-67559819D02*
X137785714Y-66559819D01*
X137785714Y-66559819D02*
X138261904Y-66559819D01*
X138690476Y-67559819D02*
X138690476Y-66559819D01*
X138690476Y-66559819D02*
X138928571Y-66559819D01*
X138928571Y-66559819D02*
X139071428Y-66607438D01*
X139071428Y-66607438D02*
X139166666Y-66702676D01*
X139166666Y-66702676D02*
X139214285Y-66797914D01*
X139214285Y-66797914D02*
X139261904Y-66988390D01*
X139261904Y-66988390D02*
X139261904Y-67131247D01*
X139261904Y-67131247D02*
X139214285Y-67321723D01*
X139214285Y-67321723D02*
X139166666Y-67416961D01*
X139166666Y-67416961D02*
X139071428Y-67512200D01*
X139071428Y-67512200D02*
X138928571Y-67559819D01*
X138928571Y-67559819D02*
X138690476Y-67559819D01*
X123238095Y-71644819D02*
X123238095Y-72359104D01*
X123238095Y-72359104D02*
X123190476Y-72501961D01*
X123190476Y-72501961D02*
X123095238Y-72597200D01*
X123095238Y-72597200D02*
X122952381Y-72644819D01*
X122952381Y-72644819D02*
X122857143Y-72644819D01*
X124190476Y-71644819D02*
X123714286Y-71644819D01*
X123714286Y-71644819D02*
X123666667Y-72121009D01*
X123666667Y-72121009D02*
X123714286Y-72073390D01*
X123714286Y-72073390D02*
X123809524Y-72025771D01*
X123809524Y-72025771D02*
X124047619Y-72025771D01*
X124047619Y-72025771D02*
X124142857Y-72073390D01*
X124142857Y-72073390D02*
X124190476Y-72121009D01*
X124190476Y-72121009D02*
X124238095Y-72216247D01*
X124238095Y-72216247D02*
X124238095Y-72454342D01*
X124238095Y-72454342D02*
X124190476Y-72549580D01*
X124190476Y-72549580D02*
X124142857Y-72597200D01*
X124142857Y-72597200D02*
X124047619Y-72644819D01*
X124047619Y-72644819D02*
X123809524Y-72644819D01*
X123809524Y-72644819D02*
X123714286Y-72597200D01*
X123714286Y-72597200D02*
X123666667Y-72549580D01*
X124666667Y-72263866D02*
X125428572Y-72263866D01*
X126380952Y-71644819D02*
X125904762Y-71644819D01*
X125904762Y-71644819D02*
X125857143Y-72121009D01*
X125857143Y-72121009D02*
X125904762Y-72073390D01*
X125904762Y-72073390D02*
X126000000Y-72025771D01*
X126000000Y-72025771D02*
X126238095Y-72025771D01*
X126238095Y-72025771D02*
X126333333Y-72073390D01*
X126333333Y-72073390D02*
X126380952Y-72121009D01*
X126380952Y-72121009D02*
X126428571Y-72216247D01*
X126428571Y-72216247D02*
X126428571Y-72454342D01*
X126428571Y-72454342D02*
X126380952Y-72549580D01*
X126380952Y-72549580D02*
X126333333Y-72597200D01*
X126333333Y-72597200D02*
X126238095Y-72644819D01*
X126238095Y-72644819D02*
X126000000Y-72644819D01*
X126000000Y-72644819D02*
X125904762Y-72597200D01*
X125904762Y-72597200D02*
X125857143Y-72549580D01*
X126761905Y-71978152D02*
X127000000Y-72644819D01*
X127000000Y-72644819D02*
X127238095Y-71978152D01*
X127619048Y-72263866D02*
X128380953Y-72263866D01*
X129333333Y-72644819D02*
X128857143Y-72644819D01*
X128857143Y-72644819D02*
X128857143Y-71644819D01*
X129666667Y-72121009D02*
X130000000Y-72121009D01*
X130142857Y-72644819D02*
X129666667Y-72644819D01*
X129666667Y-72644819D02*
X129666667Y-71644819D01*
X129666667Y-71644819D02*
X130142857Y-71644819D01*
X130571429Y-72644819D02*
X130571429Y-71644819D01*
X130571429Y-71644819D02*
X130809524Y-71644819D01*
X130809524Y-71644819D02*
X130952381Y-71692438D01*
X130952381Y-71692438D02*
X131047619Y-71787676D01*
X131047619Y-71787676D02*
X131095238Y-71882914D01*
X131095238Y-71882914D02*
X131142857Y-72073390D01*
X131142857Y-72073390D02*
X131142857Y-72216247D01*
X131142857Y-72216247D02*
X131095238Y-72406723D01*
X131095238Y-72406723D02*
X131047619Y-72501961D01*
X131047619Y-72501961D02*
X130952381Y-72597200D01*
X130952381Y-72597200D02*
X130809524Y-72644819D01*
X130809524Y-72644819D02*
X130571429Y-72644819D01*
X132095238Y-72644819D02*
X131523810Y-72644819D01*
X131809524Y-72644819D02*
X131809524Y-71644819D01*
X131809524Y-71644819D02*
X131714286Y-71787676D01*
X131714286Y-71787676D02*
X131619048Y-71882914D01*
X131619048Y-71882914D02*
X131523810Y-71930533D01*
X128619047Y-53481009D02*
X128761904Y-53528628D01*
X128761904Y-53528628D02*
X128809523Y-53576247D01*
X128809523Y-53576247D02*
X128857142Y-53671485D01*
X128857142Y-53671485D02*
X128857142Y-53814342D01*
X128857142Y-53814342D02*
X128809523Y-53909580D01*
X128809523Y-53909580D02*
X128761904Y-53957200D01*
X128761904Y-53957200D02*
X128666666Y-54004819D01*
X128666666Y-54004819D02*
X128285714Y-54004819D01*
X128285714Y-54004819D02*
X128285714Y-53004819D01*
X128285714Y-53004819D02*
X128619047Y-53004819D01*
X128619047Y-53004819D02*
X128714285Y-53052438D01*
X128714285Y-53052438D02*
X128761904Y-53100057D01*
X128761904Y-53100057D02*
X128809523Y-53195295D01*
X128809523Y-53195295D02*
X128809523Y-53290533D01*
X128809523Y-53290533D02*
X128761904Y-53385771D01*
X128761904Y-53385771D02*
X128714285Y-53433390D01*
X128714285Y-53433390D02*
X128619047Y-53481009D01*
X128619047Y-53481009D02*
X128285714Y-53481009D01*
X129190476Y-53004819D02*
X129857142Y-53004819D01*
X129857142Y-53004819D02*
X129190476Y-54004819D01*
X129190476Y-54004819D02*
X129857142Y-54004819D01*
X130761904Y-54004819D02*
X130190476Y-54004819D01*
X130476190Y-54004819D02*
X130476190Y-53004819D01*
X130476190Y-53004819D02*
X130380952Y-53147676D01*
X130380952Y-53147676D02*
X130285714Y-53242914D01*
X130285714Y-53242914D02*
X130190476Y-53290533D01*
X125309048Y-58283866D02*
X126070953Y-58283866D01*
X125690000Y-58664819D02*
X125690000Y-57902914D01*
X128273809Y-85407200D02*
X128416666Y-85454819D01*
X128416666Y-85454819D02*
X128654761Y-85454819D01*
X128654761Y-85454819D02*
X128749999Y-85407200D01*
X128749999Y-85407200D02*
X128797618Y-85359580D01*
X128797618Y-85359580D02*
X128845237Y-85264342D01*
X128845237Y-85264342D02*
X128845237Y-85169104D01*
X128845237Y-85169104D02*
X128797618Y-85073866D01*
X128797618Y-85073866D02*
X128749999Y-85026247D01*
X128749999Y-85026247D02*
X128654761Y-84978628D01*
X128654761Y-84978628D02*
X128464285Y-84931009D01*
X128464285Y-84931009D02*
X128369047Y-84883390D01*
X128369047Y-84883390D02*
X128321428Y-84835771D01*
X128321428Y-84835771D02*
X128273809Y-84740533D01*
X128273809Y-84740533D02*
X128273809Y-84645295D01*
X128273809Y-84645295D02*
X128321428Y-84550057D01*
X128321428Y-84550057D02*
X128369047Y-84502438D01*
X128369047Y-84502438D02*
X128464285Y-84454819D01*
X128464285Y-84454819D02*
X128702380Y-84454819D01*
X128702380Y-84454819D02*
X128845237Y-84502438D01*
X129178571Y-84454819D02*
X129416666Y-85454819D01*
X129416666Y-85454819D02*
X129607142Y-84740533D01*
X129607142Y-84740533D02*
X129797618Y-85454819D01*
X129797618Y-85454819D02*
X130035714Y-84454819D01*
X130892856Y-84454819D02*
X130416666Y-84454819D01*
X130416666Y-84454819D02*
X130369047Y-84931009D01*
X130369047Y-84931009D02*
X130416666Y-84883390D01*
X130416666Y-84883390D02*
X130511904Y-84835771D01*
X130511904Y-84835771D02*
X130749999Y-84835771D01*
X130749999Y-84835771D02*
X130845237Y-84883390D01*
X130845237Y-84883390D02*
X130892856Y-84931009D01*
X130892856Y-84931009D02*
X130940475Y-85026247D01*
X130940475Y-85026247D02*
X130940475Y-85264342D01*
X130940475Y-85264342D02*
X130892856Y-85359580D01*
X130892856Y-85359580D02*
X130845237Y-85407200D01*
X130845237Y-85407200D02*
X130749999Y-85454819D01*
X130749999Y-85454819D02*
X130511904Y-85454819D01*
X130511904Y-85454819D02*
X130416666Y-85407200D01*
X130416666Y-85407200D02*
X130369047Y-85359580D01*
X131369047Y-85073866D02*
X132130952Y-85073866D01*
X133178570Y-85454819D02*
X132845237Y-84978628D01*
X132607142Y-85454819D02*
X132607142Y-84454819D01*
X132607142Y-84454819D02*
X132988094Y-84454819D01*
X132988094Y-84454819D02*
X133083332Y-84502438D01*
X133083332Y-84502438D02*
X133130951Y-84550057D01*
X133130951Y-84550057D02*
X133178570Y-84645295D01*
X133178570Y-84645295D02*
X133178570Y-84788152D01*
X133178570Y-84788152D02*
X133130951Y-84883390D01*
X133130951Y-84883390D02*
X133083332Y-84931009D01*
X133083332Y-84931009D02*
X132988094Y-84978628D01*
X132988094Y-84978628D02*
X132607142Y-84978628D01*
X133988094Y-85407200D02*
X133892856Y-85454819D01*
X133892856Y-85454819D02*
X133702380Y-85454819D01*
X133702380Y-85454819D02*
X133607142Y-85407200D01*
X133607142Y-85407200D02*
X133559523Y-85311961D01*
X133559523Y-85311961D02*
X133559523Y-84931009D01*
X133559523Y-84931009D02*
X133607142Y-84835771D01*
X133607142Y-84835771D02*
X133702380Y-84788152D01*
X133702380Y-84788152D02*
X133892856Y-84788152D01*
X133892856Y-84788152D02*
X133988094Y-84835771D01*
X133988094Y-84835771D02*
X134035713Y-84931009D01*
X134035713Y-84931009D02*
X134035713Y-85026247D01*
X134035713Y-85026247D02*
X133559523Y-85121485D01*
X134416666Y-85407200D02*
X134511904Y-85454819D01*
X134511904Y-85454819D02*
X134702380Y-85454819D01*
X134702380Y-85454819D02*
X134797618Y-85407200D01*
X134797618Y-85407200D02*
X134845237Y-85311961D01*
X134845237Y-85311961D02*
X134845237Y-85264342D01*
X134845237Y-85264342D02*
X134797618Y-85169104D01*
X134797618Y-85169104D02*
X134702380Y-85121485D01*
X134702380Y-85121485D02*
X134559523Y-85121485D01*
X134559523Y-85121485D02*
X134464285Y-85073866D01*
X134464285Y-85073866D02*
X134416666Y-84978628D01*
X134416666Y-84978628D02*
X134416666Y-84931009D01*
X134416666Y-84931009D02*
X134464285Y-84835771D01*
X134464285Y-84835771D02*
X134559523Y-84788152D01*
X134559523Y-84788152D02*
X134702380Y-84788152D01*
X134702380Y-84788152D02*
X134797618Y-84835771D01*
X135654761Y-85407200D02*
X135559523Y-85454819D01*
X135559523Y-85454819D02*
X135369047Y-85454819D01*
X135369047Y-85454819D02*
X135273809Y-85407200D01*
X135273809Y-85407200D02*
X135226190Y-85311961D01*
X135226190Y-85311961D02*
X135226190Y-84931009D01*
X135226190Y-84931009D02*
X135273809Y-84835771D01*
X135273809Y-84835771D02*
X135369047Y-84788152D01*
X135369047Y-84788152D02*
X135559523Y-84788152D01*
X135559523Y-84788152D02*
X135654761Y-84835771D01*
X135654761Y-84835771D02*
X135702380Y-84931009D01*
X135702380Y-84931009D02*
X135702380Y-85026247D01*
X135702380Y-85026247D02*
X135226190Y-85121485D01*
X135988095Y-84788152D02*
X136369047Y-84788152D01*
X136130952Y-84454819D02*
X136130952Y-85311961D01*
X136130952Y-85311961D02*
X136178571Y-85407200D01*
X136178571Y-85407200D02*
X136273809Y-85454819D01*
X136273809Y-85454819D02*
X136369047Y-85454819D01*
X137226190Y-85454819D02*
X136654762Y-85454819D01*
X136940476Y-85454819D02*
X136940476Y-84454819D01*
X136940476Y-84454819D02*
X136845238Y-84597676D01*
X136845238Y-84597676D02*
X136750000Y-84692914D01*
X136750000Y-84692914D02*
X136654762Y-84740533D01*
X140892857Y-74657200D02*
X141035714Y-74704819D01*
X141035714Y-74704819D02*
X141273809Y-74704819D01*
X141273809Y-74704819D02*
X141369047Y-74657200D01*
X141369047Y-74657200D02*
X141416666Y-74609580D01*
X141416666Y-74609580D02*
X141464285Y-74514342D01*
X141464285Y-74514342D02*
X141464285Y-74419104D01*
X141464285Y-74419104D02*
X141416666Y-74323866D01*
X141416666Y-74323866D02*
X141369047Y-74276247D01*
X141369047Y-74276247D02*
X141273809Y-74228628D01*
X141273809Y-74228628D02*
X141083333Y-74181009D01*
X141083333Y-74181009D02*
X140988095Y-74133390D01*
X140988095Y-74133390D02*
X140940476Y-74085771D01*
X140940476Y-74085771D02*
X140892857Y-73990533D01*
X140892857Y-73990533D02*
X140892857Y-73895295D01*
X140892857Y-73895295D02*
X140940476Y-73800057D01*
X140940476Y-73800057D02*
X140988095Y-73752438D01*
X140988095Y-73752438D02*
X141083333Y-73704819D01*
X141083333Y-73704819D02*
X141321428Y-73704819D01*
X141321428Y-73704819D02*
X141464285Y-73752438D01*
X141797619Y-73704819D02*
X142035714Y-74704819D01*
X142035714Y-74704819D02*
X142226190Y-73990533D01*
X142226190Y-73990533D02*
X142416666Y-74704819D01*
X142416666Y-74704819D02*
X142654762Y-73704819D01*
X142940476Y-73704819D02*
X143559523Y-73704819D01*
X143559523Y-73704819D02*
X143226190Y-74085771D01*
X143226190Y-74085771D02*
X143369047Y-74085771D01*
X143369047Y-74085771D02*
X143464285Y-74133390D01*
X143464285Y-74133390D02*
X143511904Y-74181009D01*
X143511904Y-74181009D02*
X143559523Y-74276247D01*
X143559523Y-74276247D02*
X143559523Y-74514342D01*
X143559523Y-74514342D02*
X143511904Y-74609580D01*
X143511904Y-74609580D02*
X143464285Y-74657200D01*
X143464285Y-74657200D02*
X143369047Y-74704819D01*
X143369047Y-74704819D02*
X143083333Y-74704819D01*
X143083333Y-74704819D02*
X142988095Y-74657200D01*
X142988095Y-74657200D02*
X142940476Y-74609580D01*
X143988095Y-74323866D02*
X144750000Y-74323866D01*
X145749999Y-73752438D02*
X145654761Y-73704819D01*
X145654761Y-73704819D02*
X145511904Y-73704819D01*
X145511904Y-73704819D02*
X145369047Y-73752438D01*
X145369047Y-73752438D02*
X145273809Y-73847676D01*
X145273809Y-73847676D02*
X145226190Y-73942914D01*
X145226190Y-73942914D02*
X145178571Y-74133390D01*
X145178571Y-74133390D02*
X145178571Y-74276247D01*
X145178571Y-74276247D02*
X145226190Y-74466723D01*
X145226190Y-74466723D02*
X145273809Y-74561961D01*
X145273809Y-74561961D02*
X145369047Y-74657200D01*
X145369047Y-74657200D02*
X145511904Y-74704819D01*
X145511904Y-74704819D02*
X145607142Y-74704819D01*
X145607142Y-74704819D02*
X145749999Y-74657200D01*
X145749999Y-74657200D02*
X145797618Y-74609580D01*
X145797618Y-74609580D02*
X145797618Y-74276247D01*
X145797618Y-74276247D02*
X145607142Y-74276247D01*
X146226190Y-74704819D02*
X146226190Y-74038152D01*
X146226190Y-74228628D02*
X146273809Y-74133390D01*
X146273809Y-74133390D02*
X146321428Y-74085771D01*
X146321428Y-74085771D02*
X146416666Y-74038152D01*
X146416666Y-74038152D02*
X146511904Y-74038152D01*
X146845238Y-74038152D02*
X146845238Y-74704819D01*
X146845238Y-74133390D02*
X146892857Y-74085771D01*
X146892857Y-74085771D02*
X146988095Y-74038152D01*
X146988095Y-74038152D02*
X147130952Y-74038152D01*
X147130952Y-74038152D02*
X147226190Y-74085771D01*
X147226190Y-74085771D02*
X147273809Y-74181009D01*
X147273809Y-74181009D02*
X147273809Y-74704819D01*
X147750000Y-74323866D02*
X148511905Y-74323866D01*
X148892857Y-73704819D02*
X149511904Y-73704819D01*
X149511904Y-73704819D02*
X149178571Y-74085771D01*
X149178571Y-74085771D02*
X149321428Y-74085771D01*
X149321428Y-74085771D02*
X149416666Y-74133390D01*
X149416666Y-74133390D02*
X149464285Y-74181009D01*
X149464285Y-74181009D02*
X149511904Y-74276247D01*
X149511904Y-74276247D02*
X149511904Y-74514342D01*
X149511904Y-74514342D02*
X149464285Y-74609580D01*
X149464285Y-74609580D02*
X149416666Y-74657200D01*
X149416666Y-74657200D02*
X149321428Y-74704819D01*
X149321428Y-74704819D02*
X149035714Y-74704819D01*
X149035714Y-74704819D02*
X148940476Y-74657200D01*
X148940476Y-74657200D02*
X148892857Y-74609580D01*
X149940476Y-74704819D02*
X149940476Y-73704819D01*
X149940476Y-73704819D02*
X150273809Y-74419104D01*
X150273809Y-74419104D02*
X150607142Y-73704819D01*
X150607142Y-73704819D02*
X150607142Y-74704819D01*
X151607142Y-74704819D02*
X151035714Y-74704819D01*
X151321428Y-74704819D02*
X151321428Y-73704819D01*
X151321428Y-73704819D02*
X151226190Y-73847676D01*
X151226190Y-73847676D02*
X151130952Y-73942914D01*
X151130952Y-73942914D02*
X151035714Y-73990533D01*
X140785714Y-64407200D02*
X140928571Y-64454819D01*
X140928571Y-64454819D02*
X141166666Y-64454819D01*
X141166666Y-64454819D02*
X141261904Y-64407200D01*
X141261904Y-64407200D02*
X141309523Y-64359580D01*
X141309523Y-64359580D02*
X141357142Y-64264342D01*
X141357142Y-64264342D02*
X141357142Y-64169104D01*
X141357142Y-64169104D02*
X141309523Y-64073866D01*
X141309523Y-64073866D02*
X141261904Y-64026247D01*
X141261904Y-64026247D02*
X141166666Y-63978628D01*
X141166666Y-63978628D02*
X140976190Y-63931009D01*
X140976190Y-63931009D02*
X140880952Y-63883390D01*
X140880952Y-63883390D02*
X140833333Y-63835771D01*
X140833333Y-63835771D02*
X140785714Y-63740533D01*
X140785714Y-63740533D02*
X140785714Y-63645295D01*
X140785714Y-63645295D02*
X140833333Y-63550057D01*
X140833333Y-63550057D02*
X140880952Y-63502438D01*
X140880952Y-63502438D02*
X140976190Y-63454819D01*
X140976190Y-63454819D02*
X141214285Y-63454819D01*
X141214285Y-63454819D02*
X141357142Y-63502438D01*
X141690476Y-63454819D02*
X141928571Y-64454819D01*
X141928571Y-64454819D02*
X142119047Y-63740533D01*
X142119047Y-63740533D02*
X142309523Y-64454819D01*
X142309523Y-64454819D02*
X142547619Y-63454819D01*
X142880952Y-63550057D02*
X142928571Y-63502438D01*
X142928571Y-63502438D02*
X143023809Y-63454819D01*
X143023809Y-63454819D02*
X143261904Y-63454819D01*
X143261904Y-63454819D02*
X143357142Y-63502438D01*
X143357142Y-63502438D02*
X143404761Y-63550057D01*
X143404761Y-63550057D02*
X143452380Y-63645295D01*
X143452380Y-63645295D02*
X143452380Y-63740533D01*
X143452380Y-63740533D02*
X143404761Y-63883390D01*
X143404761Y-63883390D02*
X142833333Y-64454819D01*
X142833333Y-64454819D02*
X143452380Y-64454819D01*
X143880952Y-64073866D02*
X144642857Y-64073866D01*
X145309523Y-63978628D02*
X145309523Y-64454819D01*
X144976190Y-63454819D02*
X145309523Y-63978628D01*
X145309523Y-63978628D02*
X145642856Y-63454819D01*
X146357142Y-64407200D02*
X146261904Y-64454819D01*
X146261904Y-64454819D02*
X146071428Y-64454819D01*
X146071428Y-64454819D02*
X145976190Y-64407200D01*
X145976190Y-64407200D02*
X145928571Y-64311961D01*
X145928571Y-64311961D02*
X145928571Y-63931009D01*
X145928571Y-63931009D02*
X145976190Y-63835771D01*
X145976190Y-63835771D02*
X146071428Y-63788152D01*
X146071428Y-63788152D02*
X146261904Y-63788152D01*
X146261904Y-63788152D02*
X146357142Y-63835771D01*
X146357142Y-63835771D02*
X146404761Y-63931009D01*
X146404761Y-63931009D02*
X146404761Y-64026247D01*
X146404761Y-64026247D02*
X145928571Y-64121485D01*
X146976190Y-64454819D02*
X146880952Y-64407200D01*
X146880952Y-64407200D02*
X146833333Y-64311961D01*
X146833333Y-64311961D02*
X146833333Y-63454819D01*
X147357143Y-64073866D02*
X148119048Y-64073866D01*
X148547619Y-63550057D02*
X148595238Y-63502438D01*
X148595238Y-63502438D02*
X148690476Y-63454819D01*
X148690476Y-63454819D02*
X148928571Y-63454819D01*
X148928571Y-63454819D02*
X149023809Y-63502438D01*
X149023809Y-63502438D02*
X149071428Y-63550057D01*
X149071428Y-63550057D02*
X149119047Y-63645295D01*
X149119047Y-63645295D02*
X149119047Y-63740533D01*
X149119047Y-63740533D02*
X149071428Y-63883390D01*
X149071428Y-63883390D02*
X148500000Y-64454819D01*
X148500000Y-64454819D02*
X149119047Y-64454819D01*
X149547619Y-64454819D02*
X149547619Y-63454819D01*
X149547619Y-63454819D02*
X149880952Y-64169104D01*
X149880952Y-64169104D02*
X150214285Y-63454819D01*
X150214285Y-63454819D02*
X150214285Y-64454819D01*
X151214285Y-64454819D02*
X150642857Y-64454819D01*
X150928571Y-64454819D02*
X150928571Y-63454819D01*
X150928571Y-63454819D02*
X150833333Y-63597676D01*
X150833333Y-63597676D02*
X150738095Y-63692914D01*
X150738095Y-63692914D02*
X150642857Y-63740533D01*
X114977380Y-52934819D02*
X114977380Y-53649104D01*
X114977380Y-53649104D02*
X114929761Y-53791961D01*
X114929761Y-53791961D02*
X114834523Y-53887200D01*
X114834523Y-53887200D02*
X114691666Y-53934819D01*
X114691666Y-53934819D02*
X114596428Y-53934819D01*
X115358333Y-52934819D02*
X116024999Y-52934819D01*
X116024999Y-52934819D02*
X115596428Y-53934819D01*
X116405952Y-53553866D02*
X117167857Y-53553866D01*
X117644047Y-53411009D02*
X117977380Y-53411009D01*
X118120237Y-53934819D02*
X117644047Y-53934819D01*
X117644047Y-53934819D02*
X117644047Y-52934819D01*
X117644047Y-52934819D02*
X118120237Y-52934819D01*
X118453571Y-53934819D02*
X118977380Y-53268152D01*
X118453571Y-53268152D02*
X118977380Y-53934819D01*
X119215476Y-53268152D02*
X119596428Y-53268152D01*
X119358333Y-52934819D02*
X119358333Y-53791961D01*
X119358333Y-53791961D02*
X119405952Y-53887200D01*
X119405952Y-53887200D02*
X119501190Y-53934819D01*
X119501190Y-53934819D02*
X119596428Y-53934819D01*
X119929762Y-53553866D02*
X120691667Y-53553866D01*
X121501190Y-53411009D02*
X121644047Y-53458628D01*
X121644047Y-53458628D02*
X121691666Y-53506247D01*
X121691666Y-53506247D02*
X121739285Y-53601485D01*
X121739285Y-53601485D02*
X121739285Y-53744342D01*
X121739285Y-53744342D02*
X121691666Y-53839580D01*
X121691666Y-53839580D02*
X121644047Y-53887200D01*
X121644047Y-53887200D02*
X121548809Y-53934819D01*
X121548809Y-53934819D02*
X121167857Y-53934819D01*
X121167857Y-53934819D02*
X121167857Y-52934819D01*
X121167857Y-52934819D02*
X121501190Y-52934819D01*
X121501190Y-52934819D02*
X121596428Y-52982438D01*
X121596428Y-52982438D02*
X121644047Y-53030057D01*
X121644047Y-53030057D02*
X121691666Y-53125295D01*
X121691666Y-53125295D02*
X121691666Y-53220533D01*
X121691666Y-53220533D02*
X121644047Y-53315771D01*
X121644047Y-53315771D02*
X121596428Y-53363390D01*
X121596428Y-53363390D02*
X121501190Y-53411009D01*
X121501190Y-53411009D02*
X121167857Y-53411009D01*
X122596428Y-53268152D02*
X122596428Y-53934819D01*
X122167857Y-53268152D02*
X122167857Y-53791961D01*
X122167857Y-53791961D02*
X122215476Y-53887200D01*
X122215476Y-53887200D02*
X122310714Y-53934819D01*
X122310714Y-53934819D02*
X122453571Y-53934819D01*
X122453571Y-53934819D02*
X122548809Y-53887200D01*
X122548809Y-53887200D02*
X122596428Y-53839580D01*
X122977381Y-53268152D02*
X123501190Y-53268152D01*
X123501190Y-53268152D02*
X122977381Y-53934819D01*
X122977381Y-53934819D02*
X123501190Y-53934819D01*
X124405952Y-53934819D02*
X123834524Y-53934819D01*
X124120238Y-53934819D02*
X124120238Y-52934819D01*
X124120238Y-52934819D02*
X124025000Y-53077676D01*
X124025000Y-53077676D02*
X123929762Y-53172914D01*
X123929762Y-53172914D02*
X123834524Y-53220533D01*
X140773810Y-53657200D02*
X140916667Y-53704819D01*
X140916667Y-53704819D02*
X141154762Y-53704819D01*
X141154762Y-53704819D02*
X141250000Y-53657200D01*
X141250000Y-53657200D02*
X141297619Y-53609580D01*
X141297619Y-53609580D02*
X141345238Y-53514342D01*
X141345238Y-53514342D02*
X141345238Y-53419104D01*
X141345238Y-53419104D02*
X141297619Y-53323866D01*
X141297619Y-53323866D02*
X141250000Y-53276247D01*
X141250000Y-53276247D02*
X141154762Y-53228628D01*
X141154762Y-53228628D02*
X140964286Y-53181009D01*
X140964286Y-53181009D02*
X140869048Y-53133390D01*
X140869048Y-53133390D02*
X140821429Y-53085771D01*
X140821429Y-53085771D02*
X140773810Y-52990533D01*
X140773810Y-52990533D02*
X140773810Y-52895295D01*
X140773810Y-52895295D02*
X140821429Y-52800057D01*
X140821429Y-52800057D02*
X140869048Y-52752438D01*
X140869048Y-52752438D02*
X140964286Y-52704819D01*
X140964286Y-52704819D02*
X141202381Y-52704819D01*
X141202381Y-52704819D02*
X141345238Y-52752438D01*
X141678572Y-52704819D02*
X141916667Y-53704819D01*
X141916667Y-53704819D02*
X142107143Y-52990533D01*
X142107143Y-52990533D02*
X142297619Y-53704819D01*
X142297619Y-53704819D02*
X142535715Y-52704819D01*
X143440476Y-53704819D02*
X142869048Y-53704819D01*
X143154762Y-53704819D02*
X143154762Y-52704819D01*
X143154762Y-52704819D02*
X143059524Y-52847676D01*
X143059524Y-52847676D02*
X142964286Y-52942914D01*
X142964286Y-52942914D02*
X142869048Y-52990533D01*
X143869048Y-53323866D02*
X144630953Y-53323866D01*
X145678571Y-53704819D02*
X145345238Y-53228628D01*
X145107143Y-53704819D02*
X145107143Y-52704819D01*
X145107143Y-52704819D02*
X145488095Y-52704819D01*
X145488095Y-52704819D02*
X145583333Y-52752438D01*
X145583333Y-52752438D02*
X145630952Y-52800057D01*
X145630952Y-52800057D02*
X145678571Y-52895295D01*
X145678571Y-52895295D02*
X145678571Y-53038152D01*
X145678571Y-53038152D02*
X145630952Y-53133390D01*
X145630952Y-53133390D02*
X145583333Y-53181009D01*
X145583333Y-53181009D02*
X145488095Y-53228628D01*
X145488095Y-53228628D02*
X145107143Y-53228628D01*
X146488095Y-53657200D02*
X146392857Y-53704819D01*
X146392857Y-53704819D02*
X146202381Y-53704819D01*
X146202381Y-53704819D02*
X146107143Y-53657200D01*
X146107143Y-53657200D02*
X146059524Y-53561961D01*
X146059524Y-53561961D02*
X146059524Y-53181009D01*
X146059524Y-53181009D02*
X146107143Y-53085771D01*
X146107143Y-53085771D02*
X146202381Y-53038152D01*
X146202381Y-53038152D02*
X146392857Y-53038152D01*
X146392857Y-53038152D02*
X146488095Y-53085771D01*
X146488095Y-53085771D02*
X146535714Y-53181009D01*
X146535714Y-53181009D02*
X146535714Y-53276247D01*
X146535714Y-53276247D02*
X146059524Y-53371485D01*
X147392857Y-53704819D02*
X147392857Y-52704819D01*
X147392857Y-53657200D02*
X147297619Y-53704819D01*
X147297619Y-53704819D02*
X147107143Y-53704819D01*
X147107143Y-53704819D02*
X147011905Y-53657200D01*
X147011905Y-53657200D02*
X146964286Y-53609580D01*
X146964286Y-53609580D02*
X146916667Y-53514342D01*
X146916667Y-53514342D02*
X146916667Y-53228628D01*
X146916667Y-53228628D02*
X146964286Y-53133390D01*
X146964286Y-53133390D02*
X147011905Y-53085771D01*
X147011905Y-53085771D02*
X147107143Y-53038152D01*
X147107143Y-53038152D02*
X147297619Y-53038152D01*
X147297619Y-53038152D02*
X147392857Y-53085771D01*
X147869048Y-53323866D02*
X148630953Y-53323866D01*
X149630952Y-53704819D02*
X149059524Y-53704819D01*
X149345238Y-53704819D02*
X149345238Y-52704819D01*
X149345238Y-52704819D02*
X149250000Y-52847676D01*
X149250000Y-52847676D02*
X149154762Y-52942914D01*
X149154762Y-52942914D02*
X149059524Y-52990533D01*
X150059524Y-53704819D02*
X150059524Y-52704819D01*
X150059524Y-52704819D02*
X150392857Y-53419104D01*
X150392857Y-53419104D02*
X150726190Y-52704819D01*
X150726190Y-52704819D02*
X150726190Y-53704819D01*
X151726190Y-53704819D02*
X151154762Y-53704819D01*
X151440476Y-53704819D02*
X151440476Y-52704819D01*
X151440476Y-52704819D02*
X151345238Y-52847676D01*
X151345238Y-52847676D02*
X151250000Y-52942914D01*
X151250000Y-52942914D02*
X151154762Y-52990533D01*
X155142857Y-75144819D02*
X155142857Y-75859104D01*
X155142857Y-75859104D02*
X155095238Y-76001961D01*
X155095238Y-76001961D02*
X155000000Y-76097200D01*
X155000000Y-76097200D02*
X154857143Y-76144819D01*
X154857143Y-76144819D02*
X154761905Y-76144819D01*
X155523810Y-75144819D02*
X156142857Y-75144819D01*
X156142857Y-75144819D02*
X155809524Y-75525771D01*
X155809524Y-75525771D02*
X155952381Y-75525771D01*
X155952381Y-75525771D02*
X156047619Y-75573390D01*
X156047619Y-75573390D02*
X156095238Y-75621009D01*
X156095238Y-75621009D02*
X156142857Y-75716247D01*
X156142857Y-75716247D02*
X156142857Y-75954342D01*
X156142857Y-75954342D02*
X156095238Y-76049580D01*
X156095238Y-76049580D02*
X156047619Y-76097200D01*
X156047619Y-76097200D02*
X155952381Y-76144819D01*
X155952381Y-76144819D02*
X155666667Y-76144819D01*
X155666667Y-76144819D02*
X155571429Y-76097200D01*
X155571429Y-76097200D02*
X155523810Y-76049580D01*
X156571429Y-75763866D02*
X157333334Y-75763866D01*
X158333333Y-75192438D02*
X158238095Y-75144819D01*
X158238095Y-75144819D02*
X158095238Y-75144819D01*
X158095238Y-75144819D02*
X157952381Y-75192438D01*
X157952381Y-75192438D02*
X157857143Y-75287676D01*
X157857143Y-75287676D02*
X157809524Y-75382914D01*
X157809524Y-75382914D02*
X157761905Y-75573390D01*
X157761905Y-75573390D02*
X157761905Y-75716247D01*
X157761905Y-75716247D02*
X157809524Y-75906723D01*
X157809524Y-75906723D02*
X157857143Y-76001961D01*
X157857143Y-76001961D02*
X157952381Y-76097200D01*
X157952381Y-76097200D02*
X158095238Y-76144819D01*
X158095238Y-76144819D02*
X158190476Y-76144819D01*
X158190476Y-76144819D02*
X158333333Y-76097200D01*
X158333333Y-76097200D02*
X158380952Y-76049580D01*
X158380952Y-76049580D02*
X158380952Y-75716247D01*
X158380952Y-75716247D02*
X158190476Y-75716247D01*
X158809524Y-76144819D02*
X158809524Y-75478152D01*
X158809524Y-75668628D02*
X158857143Y-75573390D01*
X158857143Y-75573390D02*
X158904762Y-75525771D01*
X158904762Y-75525771D02*
X159000000Y-75478152D01*
X159000000Y-75478152D02*
X159095238Y-75478152D01*
X159428572Y-75478152D02*
X159428572Y-76144819D01*
X159428572Y-75573390D02*
X159476191Y-75525771D01*
X159476191Y-75525771D02*
X159571429Y-75478152D01*
X159571429Y-75478152D02*
X159714286Y-75478152D01*
X159714286Y-75478152D02*
X159809524Y-75525771D01*
X159809524Y-75525771D02*
X159857143Y-75621009D01*
X159857143Y-75621009D02*
X159857143Y-76144819D01*
X160333334Y-75763866D02*
X161095239Y-75763866D01*
X161476191Y-75144819D02*
X162095238Y-75144819D01*
X162095238Y-75144819D02*
X161761905Y-75525771D01*
X161761905Y-75525771D02*
X161904762Y-75525771D01*
X161904762Y-75525771D02*
X162000000Y-75573390D01*
X162000000Y-75573390D02*
X162047619Y-75621009D01*
X162047619Y-75621009D02*
X162095238Y-75716247D01*
X162095238Y-75716247D02*
X162095238Y-75954342D01*
X162095238Y-75954342D02*
X162047619Y-76049580D01*
X162047619Y-76049580D02*
X162000000Y-76097200D01*
X162000000Y-76097200D02*
X161904762Y-76144819D01*
X161904762Y-76144819D02*
X161619048Y-76144819D01*
X161619048Y-76144819D02*
X161523810Y-76097200D01*
X161523810Y-76097200D02*
X161476191Y-76049580D01*
X162523810Y-76144819D02*
X162523810Y-75144819D01*
X162523810Y-75144819D02*
X162857143Y-75859104D01*
X162857143Y-75859104D02*
X163190476Y-75144819D01*
X163190476Y-75144819D02*
X163190476Y-76144819D01*
X164190476Y-76144819D02*
X163619048Y-76144819D01*
X163904762Y-76144819D02*
X163904762Y-75144819D01*
X163904762Y-75144819D02*
X163809524Y-75287676D01*
X163809524Y-75287676D02*
X163714286Y-75382914D01*
X163714286Y-75382914D02*
X163619048Y-75430533D01*
X140940476Y-85407200D02*
X141083333Y-85454819D01*
X141083333Y-85454819D02*
X141321428Y-85454819D01*
X141321428Y-85454819D02*
X141416666Y-85407200D01*
X141416666Y-85407200D02*
X141464285Y-85359580D01*
X141464285Y-85359580D02*
X141511904Y-85264342D01*
X141511904Y-85264342D02*
X141511904Y-85169104D01*
X141511904Y-85169104D02*
X141464285Y-85073866D01*
X141464285Y-85073866D02*
X141416666Y-85026247D01*
X141416666Y-85026247D02*
X141321428Y-84978628D01*
X141321428Y-84978628D02*
X141130952Y-84931009D01*
X141130952Y-84931009D02*
X141035714Y-84883390D01*
X141035714Y-84883390D02*
X140988095Y-84835771D01*
X140988095Y-84835771D02*
X140940476Y-84740533D01*
X140940476Y-84740533D02*
X140940476Y-84645295D01*
X140940476Y-84645295D02*
X140988095Y-84550057D01*
X140988095Y-84550057D02*
X141035714Y-84502438D01*
X141035714Y-84502438D02*
X141130952Y-84454819D01*
X141130952Y-84454819D02*
X141369047Y-84454819D01*
X141369047Y-84454819D02*
X141511904Y-84502438D01*
X141845238Y-84454819D02*
X142083333Y-85454819D01*
X142083333Y-85454819D02*
X142273809Y-84740533D01*
X142273809Y-84740533D02*
X142464285Y-85454819D01*
X142464285Y-85454819D02*
X142702381Y-84454819D01*
X143511904Y-84788152D02*
X143511904Y-85454819D01*
X143273809Y-84407200D02*
X143035714Y-85121485D01*
X143035714Y-85121485D02*
X143654761Y-85121485D01*
X144035714Y-85073866D02*
X144797619Y-85073866D01*
X145607142Y-84931009D02*
X145749999Y-84978628D01*
X145749999Y-84978628D02*
X145797618Y-85026247D01*
X145797618Y-85026247D02*
X145845237Y-85121485D01*
X145845237Y-85121485D02*
X145845237Y-85264342D01*
X145845237Y-85264342D02*
X145797618Y-85359580D01*
X145797618Y-85359580D02*
X145749999Y-85407200D01*
X145749999Y-85407200D02*
X145654761Y-85454819D01*
X145654761Y-85454819D02*
X145273809Y-85454819D01*
X145273809Y-85454819D02*
X145273809Y-84454819D01*
X145273809Y-84454819D02*
X145607142Y-84454819D01*
X145607142Y-84454819D02*
X145702380Y-84502438D01*
X145702380Y-84502438D02*
X145749999Y-84550057D01*
X145749999Y-84550057D02*
X145797618Y-84645295D01*
X145797618Y-84645295D02*
X145797618Y-84740533D01*
X145797618Y-84740533D02*
X145749999Y-84835771D01*
X145749999Y-84835771D02*
X145702380Y-84883390D01*
X145702380Y-84883390D02*
X145607142Y-84931009D01*
X145607142Y-84931009D02*
X145273809Y-84931009D01*
X146416666Y-85454819D02*
X146321428Y-85407200D01*
X146321428Y-85407200D02*
X146273809Y-85311961D01*
X146273809Y-85311961D02*
X146273809Y-84454819D01*
X147226190Y-84788152D02*
X147226190Y-85454819D01*
X146797619Y-84788152D02*
X146797619Y-85311961D01*
X146797619Y-85311961D02*
X146845238Y-85407200D01*
X146845238Y-85407200D02*
X146940476Y-85454819D01*
X146940476Y-85454819D02*
X147083333Y-85454819D01*
X147083333Y-85454819D02*
X147178571Y-85407200D01*
X147178571Y-85407200D02*
X147226190Y-85359580D01*
X147702381Y-85073866D02*
X148464286Y-85073866D01*
X149416666Y-84454819D02*
X148940476Y-84454819D01*
X148940476Y-84454819D02*
X148892857Y-84931009D01*
X148892857Y-84931009D02*
X148940476Y-84883390D01*
X148940476Y-84883390D02*
X149035714Y-84835771D01*
X149035714Y-84835771D02*
X149273809Y-84835771D01*
X149273809Y-84835771D02*
X149369047Y-84883390D01*
X149369047Y-84883390D02*
X149416666Y-84931009D01*
X149416666Y-84931009D02*
X149464285Y-85026247D01*
X149464285Y-85026247D02*
X149464285Y-85264342D01*
X149464285Y-85264342D02*
X149416666Y-85359580D01*
X149416666Y-85359580D02*
X149369047Y-85407200D01*
X149369047Y-85407200D02*
X149273809Y-85454819D01*
X149273809Y-85454819D02*
X149035714Y-85454819D01*
X149035714Y-85454819D02*
X148940476Y-85407200D01*
X148940476Y-85407200D02*
X148892857Y-85359580D01*
X149892857Y-85454819D02*
X149892857Y-84454819D01*
X149892857Y-84454819D02*
X150226190Y-85169104D01*
X150226190Y-85169104D02*
X150559523Y-84454819D01*
X150559523Y-84454819D02*
X150559523Y-85454819D01*
X151559523Y-85454819D02*
X150988095Y-85454819D01*
X151273809Y-85454819D02*
X151273809Y-84454819D01*
X151273809Y-84454819D02*
X151178571Y-84597676D01*
X151178571Y-84597676D02*
X151083333Y-84692914D01*
X151083333Y-84692914D02*
X150988095Y-84740533D01*
X120313333Y-65734819D02*
X119980000Y-65258628D01*
X119741905Y-65734819D02*
X119741905Y-64734819D01*
X119741905Y-64734819D02*
X120122857Y-64734819D01*
X120122857Y-64734819D02*
X120218095Y-64782438D01*
X120218095Y-64782438D02*
X120265714Y-64830057D01*
X120265714Y-64830057D02*
X120313333Y-64925295D01*
X120313333Y-64925295D02*
X120313333Y-65068152D01*
X120313333Y-65068152D02*
X120265714Y-65163390D01*
X120265714Y-65163390D02*
X120218095Y-65211009D01*
X120218095Y-65211009D02*
X120122857Y-65258628D01*
X120122857Y-65258628D02*
X119741905Y-65258628D01*
X121218095Y-64734819D02*
X120741905Y-64734819D01*
X120741905Y-64734819D02*
X120694286Y-65211009D01*
X120694286Y-65211009D02*
X120741905Y-65163390D01*
X120741905Y-65163390D02*
X120837143Y-65115771D01*
X120837143Y-65115771D02*
X121075238Y-65115771D01*
X121075238Y-65115771D02*
X121170476Y-65163390D01*
X121170476Y-65163390D02*
X121218095Y-65211009D01*
X121218095Y-65211009D02*
X121265714Y-65306247D01*
X121265714Y-65306247D02*
X121265714Y-65544342D01*
X121265714Y-65544342D02*
X121218095Y-65639580D01*
X121218095Y-65639580D02*
X121170476Y-65687200D01*
X121170476Y-65687200D02*
X121075238Y-65734819D01*
X121075238Y-65734819D02*
X120837143Y-65734819D01*
X120837143Y-65734819D02*
X120741905Y-65687200D01*
X120741905Y-65687200D02*
X120694286Y-65639580D01*
X154558333Y-68234819D02*
X154225000Y-67758628D01*
X153986905Y-68234819D02*
X153986905Y-67234819D01*
X153986905Y-67234819D02*
X154367857Y-67234819D01*
X154367857Y-67234819D02*
X154463095Y-67282438D01*
X154463095Y-67282438D02*
X154510714Y-67330057D01*
X154510714Y-67330057D02*
X154558333Y-67425295D01*
X154558333Y-67425295D02*
X154558333Y-67568152D01*
X154558333Y-67568152D02*
X154510714Y-67663390D01*
X154510714Y-67663390D02*
X154463095Y-67711009D01*
X154463095Y-67711009D02*
X154367857Y-67758628D01*
X154367857Y-67758628D02*
X153986905Y-67758628D01*
X154939286Y-67330057D02*
X154986905Y-67282438D01*
X154986905Y-67282438D02*
X155082143Y-67234819D01*
X155082143Y-67234819D02*
X155320238Y-67234819D01*
X155320238Y-67234819D02*
X155415476Y-67282438D01*
X155415476Y-67282438D02*
X155463095Y-67330057D01*
X155463095Y-67330057D02*
X155510714Y-67425295D01*
X155510714Y-67425295D02*
X155510714Y-67520533D01*
X155510714Y-67520533D02*
X155463095Y-67663390D01*
X155463095Y-67663390D02*
X154891667Y-68234819D01*
X154891667Y-68234819D02*
X155510714Y-68234819D01*
X155023809Y-52644819D02*
X155023809Y-53359104D01*
X155023809Y-53359104D02*
X154976190Y-53501961D01*
X154976190Y-53501961D02*
X154880952Y-53597200D01*
X154880952Y-53597200D02*
X154738095Y-53644819D01*
X154738095Y-53644819D02*
X154642857Y-53644819D01*
X156023809Y-53644819D02*
X155452381Y-53644819D01*
X155738095Y-53644819D02*
X155738095Y-52644819D01*
X155738095Y-52644819D02*
X155642857Y-52787676D01*
X155642857Y-52787676D02*
X155547619Y-52882914D01*
X155547619Y-52882914D02*
X155452381Y-52930533D01*
X156452381Y-53263866D02*
X157214286Y-53263866D01*
X158261904Y-53644819D02*
X157928571Y-53168628D01*
X157690476Y-53644819D02*
X157690476Y-52644819D01*
X157690476Y-52644819D02*
X158071428Y-52644819D01*
X158071428Y-52644819D02*
X158166666Y-52692438D01*
X158166666Y-52692438D02*
X158214285Y-52740057D01*
X158214285Y-52740057D02*
X158261904Y-52835295D01*
X158261904Y-52835295D02*
X158261904Y-52978152D01*
X158261904Y-52978152D02*
X158214285Y-53073390D01*
X158214285Y-53073390D02*
X158166666Y-53121009D01*
X158166666Y-53121009D02*
X158071428Y-53168628D01*
X158071428Y-53168628D02*
X157690476Y-53168628D01*
X159071428Y-53597200D02*
X158976190Y-53644819D01*
X158976190Y-53644819D02*
X158785714Y-53644819D01*
X158785714Y-53644819D02*
X158690476Y-53597200D01*
X158690476Y-53597200D02*
X158642857Y-53501961D01*
X158642857Y-53501961D02*
X158642857Y-53121009D01*
X158642857Y-53121009D02*
X158690476Y-53025771D01*
X158690476Y-53025771D02*
X158785714Y-52978152D01*
X158785714Y-52978152D02*
X158976190Y-52978152D01*
X158976190Y-52978152D02*
X159071428Y-53025771D01*
X159071428Y-53025771D02*
X159119047Y-53121009D01*
X159119047Y-53121009D02*
X159119047Y-53216247D01*
X159119047Y-53216247D02*
X158642857Y-53311485D01*
X159976190Y-53644819D02*
X159976190Y-52644819D01*
X159976190Y-53597200D02*
X159880952Y-53644819D01*
X159880952Y-53644819D02*
X159690476Y-53644819D01*
X159690476Y-53644819D02*
X159595238Y-53597200D01*
X159595238Y-53597200D02*
X159547619Y-53549580D01*
X159547619Y-53549580D02*
X159500000Y-53454342D01*
X159500000Y-53454342D02*
X159500000Y-53168628D01*
X159500000Y-53168628D02*
X159547619Y-53073390D01*
X159547619Y-53073390D02*
X159595238Y-53025771D01*
X159595238Y-53025771D02*
X159690476Y-52978152D01*
X159690476Y-52978152D02*
X159880952Y-52978152D01*
X159880952Y-52978152D02*
X159976190Y-53025771D01*
X160452381Y-53263866D02*
X161214286Y-53263866D01*
X162214285Y-53644819D02*
X161642857Y-53644819D01*
X161928571Y-53644819D02*
X161928571Y-52644819D01*
X161928571Y-52644819D02*
X161833333Y-52787676D01*
X161833333Y-52787676D02*
X161738095Y-52882914D01*
X161738095Y-52882914D02*
X161642857Y-52930533D01*
X162642857Y-53644819D02*
X162642857Y-52644819D01*
X162642857Y-52644819D02*
X162976190Y-53359104D01*
X162976190Y-53359104D02*
X163309523Y-52644819D01*
X163309523Y-52644819D02*
X163309523Y-53644819D01*
X164309523Y-53644819D02*
X163738095Y-53644819D01*
X164023809Y-53644819D02*
X164023809Y-52644819D01*
X164023809Y-52644819D02*
X163928571Y-52787676D01*
X163928571Y-52787676D02*
X163833333Y-52882914D01*
X163833333Y-52882914D02*
X163738095Y-52930533D01*
X116261904Y-80314819D02*
X116261904Y-81029104D01*
X116261904Y-81029104D02*
X116214285Y-81171961D01*
X116214285Y-81171961D02*
X116119047Y-81267200D01*
X116119047Y-81267200D02*
X115976190Y-81314819D01*
X115976190Y-81314819D02*
X115880952Y-81314819D01*
X116880952Y-80743390D02*
X116785714Y-80695771D01*
X116785714Y-80695771D02*
X116738095Y-80648152D01*
X116738095Y-80648152D02*
X116690476Y-80552914D01*
X116690476Y-80552914D02*
X116690476Y-80505295D01*
X116690476Y-80505295D02*
X116738095Y-80410057D01*
X116738095Y-80410057D02*
X116785714Y-80362438D01*
X116785714Y-80362438D02*
X116880952Y-80314819D01*
X116880952Y-80314819D02*
X117071428Y-80314819D01*
X117071428Y-80314819D02*
X117166666Y-80362438D01*
X117166666Y-80362438D02*
X117214285Y-80410057D01*
X117214285Y-80410057D02*
X117261904Y-80505295D01*
X117261904Y-80505295D02*
X117261904Y-80552914D01*
X117261904Y-80552914D02*
X117214285Y-80648152D01*
X117214285Y-80648152D02*
X117166666Y-80695771D01*
X117166666Y-80695771D02*
X117071428Y-80743390D01*
X117071428Y-80743390D02*
X116880952Y-80743390D01*
X116880952Y-80743390D02*
X116785714Y-80791009D01*
X116785714Y-80791009D02*
X116738095Y-80838628D01*
X116738095Y-80838628D02*
X116690476Y-80933866D01*
X116690476Y-80933866D02*
X116690476Y-81124342D01*
X116690476Y-81124342D02*
X116738095Y-81219580D01*
X116738095Y-81219580D02*
X116785714Y-81267200D01*
X116785714Y-81267200D02*
X116880952Y-81314819D01*
X116880952Y-81314819D02*
X117071428Y-81314819D01*
X117071428Y-81314819D02*
X117166666Y-81267200D01*
X117166666Y-81267200D02*
X117214285Y-81219580D01*
X117214285Y-81219580D02*
X117261904Y-81124342D01*
X117261904Y-81124342D02*
X117261904Y-80933866D01*
X117261904Y-80933866D02*
X117214285Y-80838628D01*
X117214285Y-80838628D02*
X117166666Y-80791009D01*
X117166666Y-80791009D02*
X117071428Y-80743390D01*
X117690476Y-80933866D02*
X118452381Y-80933866D01*
X118928571Y-81314819D02*
X118928571Y-80314819D01*
X118928571Y-80314819D02*
X119309523Y-80314819D01*
X119309523Y-80314819D02*
X119404761Y-80362438D01*
X119404761Y-80362438D02*
X119452380Y-80410057D01*
X119452380Y-80410057D02*
X119499999Y-80505295D01*
X119499999Y-80505295D02*
X119499999Y-80648152D01*
X119499999Y-80648152D02*
X119452380Y-80743390D01*
X119452380Y-80743390D02*
X119404761Y-80791009D01*
X119404761Y-80791009D02*
X119309523Y-80838628D01*
X119309523Y-80838628D02*
X118928571Y-80838628D01*
X120071428Y-81314819D02*
X119976190Y-81267200D01*
X119976190Y-81267200D02*
X119928571Y-81219580D01*
X119928571Y-81219580D02*
X119880952Y-81124342D01*
X119880952Y-81124342D02*
X119880952Y-80838628D01*
X119880952Y-80838628D02*
X119928571Y-80743390D01*
X119928571Y-80743390D02*
X119976190Y-80695771D01*
X119976190Y-80695771D02*
X120071428Y-80648152D01*
X120071428Y-80648152D02*
X120214285Y-80648152D01*
X120214285Y-80648152D02*
X120309523Y-80695771D01*
X120309523Y-80695771D02*
X120357142Y-80743390D01*
X120357142Y-80743390D02*
X120404761Y-80838628D01*
X120404761Y-80838628D02*
X120404761Y-81124342D01*
X120404761Y-81124342D02*
X120357142Y-81219580D01*
X120357142Y-81219580D02*
X120309523Y-81267200D01*
X120309523Y-81267200D02*
X120214285Y-81314819D01*
X120214285Y-81314819D02*
X120071428Y-81314819D01*
X120976190Y-81314819D02*
X120880952Y-81267200D01*
X120880952Y-81267200D02*
X120833333Y-81171961D01*
X120833333Y-81171961D02*
X120833333Y-80314819D01*
X121500000Y-81314819D02*
X121404762Y-81267200D01*
X121404762Y-81267200D02*
X121357143Y-81219580D01*
X121357143Y-81219580D02*
X121309524Y-81124342D01*
X121309524Y-81124342D02*
X121309524Y-80838628D01*
X121309524Y-80838628D02*
X121357143Y-80743390D01*
X121357143Y-80743390D02*
X121404762Y-80695771D01*
X121404762Y-80695771D02*
X121500000Y-80648152D01*
X121500000Y-80648152D02*
X121642857Y-80648152D01*
X121642857Y-80648152D02*
X121738095Y-80695771D01*
X121738095Y-80695771D02*
X121785714Y-80743390D01*
X121785714Y-80743390D02*
X121833333Y-80838628D01*
X121833333Y-80838628D02*
X121833333Y-81124342D01*
X121833333Y-81124342D02*
X121785714Y-81219580D01*
X121785714Y-81219580D02*
X121738095Y-81267200D01*
X121738095Y-81267200D02*
X121642857Y-81314819D01*
X121642857Y-81314819D02*
X121500000Y-81314819D01*
X122404762Y-81314819D02*
X122309524Y-81267200D01*
X122309524Y-81267200D02*
X122261905Y-81171961D01*
X122261905Y-81171961D02*
X122261905Y-80314819D01*
X123214286Y-80648152D02*
X123214286Y-81314819D01*
X122785715Y-80648152D02*
X122785715Y-81171961D01*
X122785715Y-81171961D02*
X122833334Y-81267200D01*
X122833334Y-81267200D02*
X122928572Y-81314819D01*
X122928572Y-81314819D02*
X123071429Y-81314819D01*
X123071429Y-81314819D02*
X123166667Y-81267200D01*
X123166667Y-81267200D02*
X123214286Y-81219580D01*
X123690477Y-80933866D02*
X124452382Y-80933866D01*
X124785715Y-80314819D02*
X125119048Y-81314819D01*
X125119048Y-81314819D02*
X125452381Y-80314819D01*
X126357143Y-81314819D02*
X126023810Y-80838628D01*
X125785715Y-81314819D02*
X125785715Y-80314819D01*
X125785715Y-80314819D02*
X126166667Y-80314819D01*
X126166667Y-80314819D02*
X126261905Y-80362438D01*
X126261905Y-80362438D02*
X126309524Y-80410057D01*
X126309524Y-80410057D02*
X126357143Y-80505295D01*
X126357143Y-80505295D02*
X126357143Y-80648152D01*
X126357143Y-80648152D02*
X126309524Y-80743390D01*
X126309524Y-80743390D02*
X126261905Y-80791009D01*
X126261905Y-80791009D02*
X126166667Y-80838628D01*
X126166667Y-80838628D02*
X125785715Y-80838628D01*
X127166667Y-81267200D02*
X127071429Y-81314819D01*
X127071429Y-81314819D02*
X126880953Y-81314819D01*
X126880953Y-81314819D02*
X126785715Y-81267200D01*
X126785715Y-81267200D02*
X126738096Y-81171961D01*
X126738096Y-81171961D02*
X126738096Y-80791009D01*
X126738096Y-80791009D02*
X126785715Y-80695771D01*
X126785715Y-80695771D02*
X126880953Y-80648152D01*
X126880953Y-80648152D02*
X127071429Y-80648152D01*
X127071429Y-80648152D02*
X127166667Y-80695771D01*
X127166667Y-80695771D02*
X127214286Y-80791009D01*
X127214286Y-80791009D02*
X127214286Y-80886247D01*
X127214286Y-80886247D02*
X126738096Y-80981485D01*
X128071429Y-80648152D02*
X128071429Y-81457676D01*
X128071429Y-81457676D02*
X128023810Y-81552914D01*
X128023810Y-81552914D02*
X127976191Y-81600533D01*
X127976191Y-81600533D02*
X127880953Y-81648152D01*
X127880953Y-81648152D02*
X127738096Y-81648152D01*
X127738096Y-81648152D02*
X127642858Y-81600533D01*
X128071429Y-81267200D02*
X127976191Y-81314819D01*
X127976191Y-81314819D02*
X127785715Y-81314819D01*
X127785715Y-81314819D02*
X127690477Y-81267200D01*
X127690477Y-81267200D02*
X127642858Y-81219580D01*
X127642858Y-81219580D02*
X127595239Y-81124342D01*
X127595239Y-81124342D02*
X127595239Y-80838628D01*
X127595239Y-80838628D02*
X127642858Y-80743390D01*
X127642858Y-80743390D02*
X127690477Y-80695771D01*
X127690477Y-80695771D02*
X127785715Y-80648152D01*
X127785715Y-80648152D02*
X127976191Y-80648152D01*
X127976191Y-80648152D02*
X128071429Y-80695771D01*
X129071429Y-81314819D02*
X128500001Y-81314819D01*
X128785715Y-81314819D02*
X128785715Y-80314819D01*
X128785715Y-80314819D02*
X128690477Y-80457676D01*
X128690477Y-80457676D02*
X128595239Y-80552914D01*
X128595239Y-80552914D02*
X128500001Y-80600533D01*
X133023809Y-75394819D02*
X133023809Y-76109104D01*
X133023809Y-76109104D02*
X132976190Y-76251961D01*
X132976190Y-76251961D02*
X132880952Y-76347200D01*
X132880952Y-76347200D02*
X132738095Y-76394819D01*
X132738095Y-76394819D02*
X132642857Y-76394819D01*
X133928571Y-75394819D02*
X133738095Y-75394819D01*
X133738095Y-75394819D02*
X133642857Y-75442438D01*
X133642857Y-75442438D02*
X133595238Y-75490057D01*
X133595238Y-75490057D02*
X133500000Y-75632914D01*
X133500000Y-75632914D02*
X133452381Y-75823390D01*
X133452381Y-75823390D02*
X133452381Y-76204342D01*
X133452381Y-76204342D02*
X133500000Y-76299580D01*
X133500000Y-76299580D02*
X133547619Y-76347200D01*
X133547619Y-76347200D02*
X133642857Y-76394819D01*
X133642857Y-76394819D02*
X133833333Y-76394819D01*
X133833333Y-76394819D02*
X133928571Y-76347200D01*
X133928571Y-76347200D02*
X133976190Y-76299580D01*
X133976190Y-76299580D02*
X134023809Y-76204342D01*
X134023809Y-76204342D02*
X134023809Y-75966247D01*
X134023809Y-75966247D02*
X133976190Y-75871009D01*
X133976190Y-75871009D02*
X133928571Y-75823390D01*
X133928571Y-75823390D02*
X133833333Y-75775771D01*
X133833333Y-75775771D02*
X133642857Y-75775771D01*
X133642857Y-75775771D02*
X133547619Y-75823390D01*
X133547619Y-75823390D02*
X133500000Y-75871009D01*
X133500000Y-75871009D02*
X133452381Y-75966247D01*
X134452381Y-76013866D02*
X135214286Y-76013866D01*
X136261904Y-76394819D02*
X135928571Y-75918628D01*
X135690476Y-76394819D02*
X135690476Y-75394819D01*
X135690476Y-75394819D02*
X136071428Y-75394819D01*
X136071428Y-75394819D02*
X136166666Y-75442438D01*
X136166666Y-75442438D02*
X136214285Y-75490057D01*
X136214285Y-75490057D02*
X136261904Y-75585295D01*
X136261904Y-75585295D02*
X136261904Y-75728152D01*
X136261904Y-75728152D02*
X136214285Y-75823390D01*
X136214285Y-75823390D02*
X136166666Y-75871009D01*
X136166666Y-75871009D02*
X136071428Y-75918628D01*
X136071428Y-75918628D02*
X135690476Y-75918628D01*
X137071428Y-76347200D02*
X136976190Y-76394819D01*
X136976190Y-76394819D02*
X136785714Y-76394819D01*
X136785714Y-76394819D02*
X136690476Y-76347200D01*
X136690476Y-76347200D02*
X136642857Y-76251961D01*
X136642857Y-76251961D02*
X136642857Y-75871009D01*
X136642857Y-75871009D02*
X136690476Y-75775771D01*
X136690476Y-75775771D02*
X136785714Y-75728152D01*
X136785714Y-75728152D02*
X136976190Y-75728152D01*
X136976190Y-75728152D02*
X137071428Y-75775771D01*
X137071428Y-75775771D02*
X137119047Y-75871009D01*
X137119047Y-75871009D02*
X137119047Y-75966247D01*
X137119047Y-75966247D02*
X136642857Y-76061485D01*
X137500000Y-76347200D02*
X137595238Y-76394819D01*
X137595238Y-76394819D02*
X137785714Y-76394819D01*
X137785714Y-76394819D02*
X137880952Y-76347200D01*
X137880952Y-76347200D02*
X137928571Y-76251961D01*
X137928571Y-76251961D02*
X137928571Y-76204342D01*
X137928571Y-76204342D02*
X137880952Y-76109104D01*
X137880952Y-76109104D02*
X137785714Y-76061485D01*
X137785714Y-76061485D02*
X137642857Y-76061485D01*
X137642857Y-76061485D02*
X137547619Y-76013866D01*
X137547619Y-76013866D02*
X137500000Y-75918628D01*
X137500000Y-75918628D02*
X137500000Y-75871009D01*
X137500000Y-75871009D02*
X137547619Y-75775771D01*
X137547619Y-75775771D02*
X137642857Y-75728152D01*
X137642857Y-75728152D02*
X137785714Y-75728152D01*
X137785714Y-75728152D02*
X137880952Y-75775771D01*
X138738095Y-76347200D02*
X138642857Y-76394819D01*
X138642857Y-76394819D02*
X138452381Y-76394819D01*
X138452381Y-76394819D02*
X138357143Y-76347200D01*
X138357143Y-76347200D02*
X138309524Y-76251961D01*
X138309524Y-76251961D02*
X138309524Y-75871009D01*
X138309524Y-75871009D02*
X138357143Y-75775771D01*
X138357143Y-75775771D02*
X138452381Y-75728152D01*
X138452381Y-75728152D02*
X138642857Y-75728152D01*
X138642857Y-75728152D02*
X138738095Y-75775771D01*
X138738095Y-75775771D02*
X138785714Y-75871009D01*
X138785714Y-75871009D02*
X138785714Y-75966247D01*
X138785714Y-75966247D02*
X138309524Y-76061485D01*
X139071429Y-75728152D02*
X139452381Y-75728152D01*
X139214286Y-75394819D02*
X139214286Y-76251961D01*
X139214286Y-76251961D02*
X139261905Y-76347200D01*
X139261905Y-76347200D02*
X139357143Y-76394819D01*
X139357143Y-76394819D02*
X139452381Y-76394819D01*
X140309524Y-76394819D02*
X139738096Y-76394819D01*
X140023810Y-76394819D02*
X140023810Y-75394819D01*
X140023810Y-75394819D02*
X139928572Y-75537676D01*
X139928572Y-75537676D02*
X139833334Y-75632914D01*
X139833334Y-75632914D02*
X139738096Y-75680533D01*
X154558333Y-57734819D02*
X154225000Y-57258628D01*
X153986905Y-57734819D02*
X153986905Y-56734819D01*
X153986905Y-56734819D02*
X154367857Y-56734819D01*
X154367857Y-56734819D02*
X154463095Y-56782438D01*
X154463095Y-56782438D02*
X154510714Y-56830057D01*
X154510714Y-56830057D02*
X154558333Y-56925295D01*
X154558333Y-56925295D02*
X154558333Y-57068152D01*
X154558333Y-57068152D02*
X154510714Y-57163390D01*
X154510714Y-57163390D02*
X154463095Y-57211009D01*
X154463095Y-57211009D02*
X154367857Y-57258628D01*
X154367857Y-57258628D02*
X153986905Y-57258628D01*
X155510714Y-57734819D02*
X154939286Y-57734819D01*
X155225000Y-57734819D02*
X155225000Y-56734819D01*
X155225000Y-56734819D02*
X155129762Y-56877676D01*
X155129762Y-56877676D02*
X155034524Y-56972914D01*
X155034524Y-56972914D02*
X154939286Y-57020533D01*
X155690476Y-84909819D02*
X155690476Y-85624104D01*
X155690476Y-85624104D02*
X155642857Y-85766961D01*
X155642857Y-85766961D02*
X155547619Y-85862200D01*
X155547619Y-85862200D02*
X155404762Y-85909819D01*
X155404762Y-85909819D02*
X155309524Y-85909819D01*
X156595238Y-85243152D02*
X156595238Y-85909819D01*
X156357143Y-84862200D02*
X156119048Y-85576485D01*
X156119048Y-85576485D02*
X156738095Y-85576485D01*
X157119048Y-85528866D02*
X157880953Y-85528866D01*
X158690476Y-85386009D02*
X158833333Y-85433628D01*
X158833333Y-85433628D02*
X158880952Y-85481247D01*
X158880952Y-85481247D02*
X158928571Y-85576485D01*
X158928571Y-85576485D02*
X158928571Y-85719342D01*
X158928571Y-85719342D02*
X158880952Y-85814580D01*
X158880952Y-85814580D02*
X158833333Y-85862200D01*
X158833333Y-85862200D02*
X158738095Y-85909819D01*
X158738095Y-85909819D02*
X158357143Y-85909819D01*
X158357143Y-85909819D02*
X158357143Y-84909819D01*
X158357143Y-84909819D02*
X158690476Y-84909819D01*
X158690476Y-84909819D02*
X158785714Y-84957438D01*
X158785714Y-84957438D02*
X158833333Y-85005057D01*
X158833333Y-85005057D02*
X158880952Y-85100295D01*
X158880952Y-85100295D02*
X158880952Y-85195533D01*
X158880952Y-85195533D02*
X158833333Y-85290771D01*
X158833333Y-85290771D02*
X158785714Y-85338390D01*
X158785714Y-85338390D02*
X158690476Y-85386009D01*
X158690476Y-85386009D02*
X158357143Y-85386009D01*
X159500000Y-85909819D02*
X159404762Y-85862200D01*
X159404762Y-85862200D02*
X159357143Y-85766961D01*
X159357143Y-85766961D02*
X159357143Y-84909819D01*
X160309524Y-85243152D02*
X160309524Y-85909819D01*
X159880953Y-85243152D02*
X159880953Y-85766961D01*
X159880953Y-85766961D02*
X159928572Y-85862200D01*
X159928572Y-85862200D02*
X160023810Y-85909819D01*
X160023810Y-85909819D02*
X160166667Y-85909819D01*
X160166667Y-85909819D02*
X160261905Y-85862200D01*
X160261905Y-85862200D02*
X160309524Y-85814580D01*
X160785715Y-85528866D02*
X161547620Y-85528866D01*
X162500000Y-84909819D02*
X162023810Y-84909819D01*
X162023810Y-84909819D02*
X161976191Y-85386009D01*
X161976191Y-85386009D02*
X162023810Y-85338390D01*
X162023810Y-85338390D02*
X162119048Y-85290771D01*
X162119048Y-85290771D02*
X162357143Y-85290771D01*
X162357143Y-85290771D02*
X162452381Y-85338390D01*
X162452381Y-85338390D02*
X162500000Y-85386009D01*
X162500000Y-85386009D02*
X162547619Y-85481247D01*
X162547619Y-85481247D02*
X162547619Y-85719342D01*
X162547619Y-85719342D02*
X162500000Y-85814580D01*
X162500000Y-85814580D02*
X162452381Y-85862200D01*
X162452381Y-85862200D02*
X162357143Y-85909819D01*
X162357143Y-85909819D02*
X162119048Y-85909819D01*
X162119048Y-85909819D02*
X162023810Y-85862200D01*
X162023810Y-85862200D02*
X161976191Y-85814580D01*
X162976191Y-85909819D02*
X162976191Y-84909819D01*
X162976191Y-84909819D02*
X163309524Y-85624104D01*
X163309524Y-85624104D02*
X163642857Y-84909819D01*
X163642857Y-84909819D02*
X163642857Y-85909819D01*
X164642857Y-85909819D02*
X164071429Y-85909819D01*
X164357143Y-85909819D02*
X164357143Y-84909819D01*
X164357143Y-84909819D02*
X164261905Y-85052676D01*
X164261905Y-85052676D02*
X164166667Y-85147914D01*
X164166667Y-85147914D02*
X164071429Y-85195533D01*
X112297618Y-82394819D02*
X112297618Y-83109104D01*
X112297618Y-83109104D02*
X112249999Y-83251961D01*
X112249999Y-83251961D02*
X112154761Y-83347200D01*
X112154761Y-83347200D02*
X112011904Y-83394819D01*
X112011904Y-83394819D02*
X111916666Y-83394819D01*
X112821428Y-83394819D02*
X113011904Y-83394819D01*
X113011904Y-83394819D02*
X113107142Y-83347200D01*
X113107142Y-83347200D02*
X113154761Y-83299580D01*
X113154761Y-83299580D02*
X113249999Y-83156723D01*
X113249999Y-83156723D02*
X113297618Y-82966247D01*
X113297618Y-82966247D02*
X113297618Y-82585295D01*
X113297618Y-82585295D02*
X113249999Y-82490057D01*
X113249999Y-82490057D02*
X113202380Y-82442438D01*
X113202380Y-82442438D02*
X113107142Y-82394819D01*
X113107142Y-82394819D02*
X112916666Y-82394819D01*
X112916666Y-82394819D02*
X112821428Y-82442438D01*
X112821428Y-82442438D02*
X112773809Y-82490057D01*
X112773809Y-82490057D02*
X112726190Y-82585295D01*
X112726190Y-82585295D02*
X112726190Y-82823390D01*
X112726190Y-82823390D02*
X112773809Y-82918628D01*
X112773809Y-82918628D02*
X112821428Y-82966247D01*
X112821428Y-82966247D02*
X112916666Y-83013866D01*
X112916666Y-83013866D02*
X113107142Y-83013866D01*
X113107142Y-83013866D02*
X113202380Y-82966247D01*
X113202380Y-82966247D02*
X113249999Y-82918628D01*
X113249999Y-82918628D02*
X113297618Y-82823390D01*
X113726190Y-83013866D02*
X114488095Y-83013866D01*
X115535713Y-83394819D02*
X115202380Y-82918628D01*
X114964285Y-83394819D02*
X114964285Y-82394819D01*
X114964285Y-82394819D02*
X115345237Y-82394819D01*
X115345237Y-82394819D02*
X115440475Y-82442438D01*
X115440475Y-82442438D02*
X115488094Y-82490057D01*
X115488094Y-82490057D02*
X115535713Y-82585295D01*
X115535713Y-82585295D02*
X115535713Y-82728152D01*
X115535713Y-82728152D02*
X115488094Y-82823390D01*
X115488094Y-82823390D02*
X115440475Y-82871009D01*
X115440475Y-82871009D02*
X115345237Y-82918628D01*
X115345237Y-82918628D02*
X114964285Y-82918628D01*
X116345237Y-83347200D02*
X116249999Y-83394819D01*
X116249999Y-83394819D02*
X116059523Y-83394819D01*
X116059523Y-83394819D02*
X115964285Y-83347200D01*
X115964285Y-83347200D02*
X115916666Y-83251961D01*
X115916666Y-83251961D02*
X115916666Y-82871009D01*
X115916666Y-82871009D02*
X115964285Y-82775771D01*
X115964285Y-82775771D02*
X116059523Y-82728152D01*
X116059523Y-82728152D02*
X116249999Y-82728152D01*
X116249999Y-82728152D02*
X116345237Y-82775771D01*
X116345237Y-82775771D02*
X116392856Y-82871009D01*
X116392856Y-82871009D02*
X116392856Y-82966247D01*
X116392856Y-82966247D02*
X115916666Y-83061485D01*
X116964285Y-83394819D02*
X116869047Y-83347200D01*
X116869047Y-83347200D02*
X116821428Y-83251961D01*
X116821428Y-83251961D02*
X116821428Y-82394819D01*
X117773809Y-83394819D02*
X117773809Y-82871009D01*
X117773809Y-82871009D02*
X117726190Y-82775771D01*
X117726190Y-82775771D02*
X117630952Y-82728152D01*
X117630952Y-82728152D02*
X117440476Y-82728152D01*
X117440476Y-82728152D02*
X117345238Y-82775771D01*
X117773809Y-83347200D02*
X117678571Y-83394819D01*
X117678571Y-83394819D02*
X117440476Y-83394819D01*
X117440476Y-83394819D02*
X117345238Y-83347200D01*
X117345238Y-83347200D02*
X117297619Y-83251961D01*
X117297619Y-83251961D02*
X117297619Y-83156723D01*
X117297619Y-83156723D02*
X117345238Y-83061485D01*
X117345238Y-83061485D02*
X117440476Y-83013866D01*
X117440476Y-83013866D02*
X117678571Y-83013866D01*
X117678571Y-83013866D02*
X117773809Y-82966247D01*
X118154762Y-82728152D02*
X118392857Y-83394819D01*
X118630952Y-82728152D02*
X118392857Y-83394819D01*
X118392857Y-83394819D02*
X118297619Y-83632914D01*
X118297619Y-83632914D02*
X118250000Y-83680533D01*
X118250000Y-83680533D02*
X118154762Y-83728152D01*
X119535714Y-83394819D02*
X118964286Y-83394819D01*
X119250000Y-83394819D02*
X119250000Y-82394819D01*
X119250000Y-82394819D02*
X119154762Y-82537676D01*
X119154762Y-82537676D02*
X119059524Y-82632914D01*
X119059524Y-82632914D02*
X118964286Y-82680533D01*
X154558333Y-79234819D02*
X154225000Y-78758628D01*
X153986905Y-79234819D02*
X153986905Y-78234819D01*
X153986905Y-78234819D02*
X154367857Y-78234819D01*
X154367857Y-78234819D02*
X154463095Y-78282438D01*
X154463095Y-78282438D02*
X154510714Y-78330057D01*
X154510714Y-78330057D02*
X154558333Y-78425295D01*
X154558333Y-78425295D02*
X154558333Y-78568152D01*
X154558333Y-78568152D02*
X154510714Y-78663390D01*
X154510714Y-78663390D02*
X154463095Y-78711009D01*
X154463095Y-78711009D02*
X154367857Y-78758628D01*
X154367857Y-78758628D02*
X153986905Y-78758628D01*
X154891667Y-78234819D02*
X155510714Y-78234819D01*
X155510714Y-78234819D02*
X155177381Y-78615771D01*
X155177381Y-78615771D02*
X155320238Y-78615771D01*
X155320238Y-78615771D02*
X155415476Y-78663390D01*
X155415476Y-78663390D02*
X155463095Y-78711009D01*
X155463095Y-78711009D02*
X155510714Y-78806247D01*
X155510714Y-78806247D02*
X155510714Y-79044342D01*
X155510714Y-79044342D02*
X155463095Y-79139580D01*
X155463095Y-79139580D02*
X155415476Y-79187200D01*
X155415476Y-79187200D02*
X155320238Y-79234819D01*
X155320238Y-79234819D02*
X155034524Y-79234819D01*
X155034524Y-79234819D02*
X154939286Y-79187200D01*
X154939286Y-79187200D02*
X154891667Y-79139580D01*
X154785714Y-64644819D02*
X154785714Y-65359104D01*
X154785714Y-65359104D02*
X154738095Y-65501961D01*
X154738095Y-65501961D02*
X154642857Y-65597200D01*
X154642857Y-65597200D02*
X154500000Y-65644819D01*
X154500000Y-65644819D02*
X154404762Y-65644819D01*
X155214286Y-64740057D02*
X155261905Y-64692438D01*
X155261905Y-64692438D02*
X155357143Y-64644819D01*
X155357143Y-64644819D02*
X155595238Y-64644819D01*
X155595238Y-64644819D02*
X155690476Y-64692438D01*
X155690476Y-64692438D02*
X155738095Y-64740057D01*
X155738095Y-64740057D02*
X155785714Y-64835295D01*
X155785714Y-64835295D02*
X155785714Y-64930533D01*
X155785714Y-64930533D02*
X155738095Y-65073390D01*
X155738095Y-65073390D02*
X155166667Y-65644819D01*
X155166667Y-65644819D02*
X155785714Y-65644819D01*
X156214286Y-65263866D02*
X156976191Y-65263866D01*
X157642857Y-65168628D02*
X157642857Y-65644819D01*
X157309524Y-64644819D02*
X157642857Y-65168628D01*
X157642857Y-65168628D02*
X157976190Y-64644819D01*
X158690476Y-65597200D02*
X158595238Y-65644819D01*
X158595238Y-65644819D02*
X158404762Y-65644819D01*
X158404762Y-65644819D02*
X158309524Y-65597200D01*
X158309524Y-65597200D02*
X158261905Y-65501961D01*
X158261905Y-65501961D02*
X158261905Y-65121009D01*
X158261905Y-65121009D02*
X158309524Y-65025771D01*
X158309524Y-65025771D02*
X158404762Y-64978152D01*
X158404762Y-64978152D02*
X158595238Y-64978152D01*
X158595238Y-64978152D02*
X158690476Y-65025771D01*
X158690476Y-65025771D02*
X158738095Y-65121009D01*
X158738095Y-65121009D02*
X158738095Y-65216247D01*
X158738095Y-65216247D02*
X158261905Y-65311485D01*
X159309524Y-65644819D02*
X159214286Y-65597200D01*
X159214286Y-65597200D02*
X159166667Y-65501961D01*
X159166667Y-65501961D02*
X159166667Y-64644819D01*
X159690477Y-65263866D02*
X160452382Y-65263866D01*
X160880953Y-64740057D02*
X160928572Y-64692438D01*
X160928572Y-64692438D02*
X161023810Y-64644819D01*
X161023810Y-64644819D02*
X161261905Y-64644819D01*
X161261905Y-64644819D02*
X161357143Y-64692438D01*
X161357143Y-64692438D02*
X161404762Y-64740057D01*
X161404762Y-64740057D02*
X161452381Y-64835295D01*
X161452381Y-64835295D02*
X161452381Y-64930533D01*
X161452381Y-64930533D02*
X161404762Y-65073390D01*
X161404762Y-65073390D02*
X160833334Y-65644819D01*
X160833334Y-65644819D02*
X161452381Y-65644819D01*
X161880953Y-65644819D02*
X161880953Y-64644819D01*
X161880953Y-64644819D02*
X162214286Y-65359104D01*
X162214286Y-65359104D02*
X162547619Y-64644819D01*
X162547619Y-64644819D02*
X162547619Y-65644819D01*
X163547619Y-65644819D02*
X162976191Y-65644819D01*
X163261905Y-65644819D02*
X163261905Y-64644819D01*
X163261905Y-64644819D02*
X163166667Y-64787676D01*
X163166667Y-64787676D02*
X163071429Y-64882914D01*
X163071429Y-64882914D02*
X162976191Y-64930533D01*
X154558333Y-89734819D02*
X154225000Y-89258628D01*
X153986905Y-89734819D02*
X153986905Y-88734819D01*
X153986905Y-88734819D02*
X154367857Y-88734819D01*
X154367857Y-88734819D02*
X154463095Y-88782438D01*
X154463095Y-88782438D02*
X154510714Y-88830057D01*
X154510714Y-88830057D02*
X154558333Y-88925295D01*
X154558333Y-88925295D02*
X154558333Y-89068152D01*
X154558333Y-89068152D02*
X154510714Y-89163390D01*
X154510714Y-89163390D02*
X154463095Y-89211009D01*
X154463095Y-89211009D02*
X154367857Y-89258628D01*
X154367857Y-89258628D02*
X153986905Y-89258628D01*
X155415476Y-89068152D02*
X155415476Y-89734819D01*
X155177381Y-88687200D02*
X154939286Y-89401485D01*
X154939286Y-89401485D02*
X155558333Y-89401485D01*
D11*
%TO.C,D1-LED*%
X134790000Y-70275000D02*
X134790000Y-71995000D01*
X134790000Y-71995000D02*
X138210000Y-71995000D01*
X134910000Y-70275000D02*
X134910000Y-71995000D01*
X135030000Y-70275000D02*
X135030000Y-71995000D01*
X135230000Y-70145000D02*
X135230000Y-70145000D01*
X135230000Y-70145000D02*
X135230000Y-70275000D01*
X135230000Y-70275000D02*
X135230000Y-70145000D01*
X135230000Y-70275000D02*
X135230000Y-70275000D01*
X135540000Y-71995000D02*
X135540000Y-73395000D01*
X135540000Y-73395000D02*
X137460000Y-73395000D01*
X137460000Y-71995000D02*
X135540000Y-71995000D01*
X137460000Y-73395000D02*
X137460000Y-71995000D01*
X137770000Y-70145000D02*
X137770000Y-70145000D01*
X137770000Y-70145000D02*
X137770000Y-70275000D01*
X137770000Y-70275000D02*
X137770000Y-70145000D01*
X137770000Y-70275000D02*
X137770000Y-70275000D01*
X138210000Y-70275000D02*
X134790000Y-70275000D01*
X138210000Y-71995000D02*
X138210000Y-70275000D01*
%TO.C,J1*%
X126610000Y-96130000D02*
X127940000Y-96130000D01*
X126610000Y-97460000D02*
X126610000Y-96130000D01*
X129210000Y-96130000D02*
X147050000Y-96130000D01*
X129210000Y-98790000D02*
X129210000Y-96130000D01*
X129210000Y-98790000D02*
X147050000Y-98790000D01*
X147050000Y-98790000D02*
X147050000Y-96130000D01*
%TO.C,J3*%
X149470000Y-96130000D02*
X150800000Y-96130000D01*
X149470000Y-97460000D02*
X149470000Y-96130000D01*
X152070000Y-96130000D02*
X164830000Y-96130000D01*
X152070000Y-98790000D02*
X152070000Y-96130000D01*
X152070000Y-98790000D02*
X164830000Y-98790000D01*
X164830000Y-98790000D02*
X164830000Y-96130000D01*
%TO.C,J2*%
X117466000Y-47870000D02*
X118796000Y-47870000D01*
X117466000Y-49200000D02*
X117466000Y-47870000D01*
X120066000Y-47870000D02*
X142986000Y-47870000D01*
X120066000Y-50530000D02*
X120066000Y-47870000D01*
X120066000Y-50530000D02*
X142986000Y-50530000D01*
X142986000Y-50530000D02*
X142986000Y-47870000D01*
%TO.C,J4*%
X144390000Y-47870000D02*
X145720000Y-47870000D01*
X144390000Y-49200000D02*
X144390000Y-47870000D01*
X146990000Y-47870000D02*
X164830000Y-47870000D01*
X146990000Y-50530000D02*
X146990000Y-47870000D01*
X146990000Y-50530000D02*
X164830000Y-50530000D01*
X164830000Y-50530000D02*
X164830000Y-47870000D01*
%TO.C,J5-5v-LED1*%
X126170000Y-76230000D02*
X126170000Y-78830000D01*
X126170000Y-76230000D02*
X128830000Y-76230000D01*
X126170000Y-78830000D02*
X128830000Y-78830000D01*
X127500000Y-73630000D02*
X128830000Y-73630000D01*
X128830000Y-73630000D02*
X128830000Y-74960000D01*
X128830000Y-76230000D02*
X128830000Y-78830000D01*
%TO.C,BZ1*%
X135600000Y-60750000D02*
G75*
G02*
X123400000Y-60750000I-6100000J0D01*
G01*
X123400000Y-60750000D02*
G75*
G02*
X135600000Y-60750000I6100000J0D01*
G01*
%TO.C,SW5-Reset1*%
X129250000Y-88500000D02*
X129250000Y-90000000D01*
X130500000Y-92500000D02*
X135000000Y-92500000D01*
X135000000Y-86000000D02*
X130500000Y-86000000D01*
X136250000Y-90000000D02*
X136250000Y-88500000D01*
%TO.C,SW3-Grn-3M1*%
X142750000Y-78500000D02*
X142750000Y-80000000D01*
X144000000Y-82500000D02*
X148500000Y-82500000D01*
X148500000Y-76000000D02*
X144000000Y-76000000D01*
X149750000Y-80000000D02*
X149750000Y-78500000D01*
%TO.C,SW2-Yel-2M1*%
X142750000Y-68000000D02*
X142750000Y-69500000D01*
X144000000Y-72000000D02*
X148500000Y-72000000D01*
X148500000Y-65500000D02*
X144000000Y-65500000D01*
X149750000Y-69500000D02*
X149750000Y-68000000D01*
%TO.C,J7-Ext-Buz1*%
X118195000Y-57520000D02*
X118195000Y-60120000D01*
X118195000Y-57520000D02*
X120855000Y-57520000D01*
X118195000Y-60120000D02*
X120855000Y-60120000D01*
X119525000Y-54920000D02*
X120855000Y-54920000D01*
X120855000Y-54920000D02*
X120855000Y-56250000D01*
X120855000Y-57520000D02*
X120855000Y-60120000D01*
%TO.C,SW1-Red-1M1*%
X142750000Y-57500000D02*
X142750000Y-59000000D01*
X144000000Y-61500000D02*
X148500000Y-61500000D01*
X148500000Y-55000000D02*
X144000000Y-55000000D01*
X149750000Y-59000000D02*
X149750000Y-57500000D01*
%TO.C,J3-Grn-3M1*%
X158170000Y-79730000D02*
X158170000Y-82330000D01*
X158170000Y-79730000D02*
X160830000Y-79730000D01*
X158170000Y-82330000D02*
X160830000Y-82330000D01*
X159500000Y-77130000D02*
X160830000Y-77130000D01*
X160830000Y-77130000D02*
X160830000Y-78460000D01*
X160830000Y-79730000D02*
X160830000Y-82330000D01*
%TO.C,SW4-Blu-5M1*%
X142750000Y-89000000D02*
X142750000Y-90500000D01*
X144000000Y-93000000D02*
X148500000Y-93000000D01*
X148500000Y-86500000D02*
X144000000Y-86500000D01*
X149750000Y-90500000D02*
X149750000Y-89000000D01*
%TO.C,R5*%
X120554775Y-68971380D02*
G75*
G02*
X120663272Y-67200000I-1344775J971380D01*
G01*
%TO.C,R2*%
X154799775Y-71471380D02*
G75*
G02*
X154908272Y-69700000I-1344775J971380D01*
G01*
%TO.C,J1-Red-1M1*%
X158170000Y-57230000D02*
X158170000Y-59830000D01*
X158170000Y-57230000D02*
X160830000Y-57230000D01*
X158170000Y-59830000D02*
X160830000Y-59830000D01*
X159500000Y-54630000D02*
X160830000Y-54630000D01*
X160830000Y-54630000D02*
X160830000Y-55960000D01*
X160830000Y-57230000D02*
X160830000Y-59830000D01*
%TO.C,J8-Pololu-VReg1*%
X121170000Y-84900000D02*
X121170000Y-92580000D01*
X121170000Y-84900000D02*
X123830000Y-84900000D01*
X121170000Y-92580000D02*
X123830000Y-92580000D01*
X122500000Y-82300000D02*
X123830000Y-82300000D01*
X123830000Y-82300000D02*
X123830000Y-83630000D01*
X123830000Y-84900000D02*
X123830000Y-92580000D01*
%TO.C,J6-Reset1*%
X135170000Y-79980000D02*
X135170000Y-82580000D01*
X135170000Y-79980000D02*
X137830000Y-79980000D01*
X135170000Y-82580000D02*
X137830000Y-82580000D01*
X136500000Y-77380000D02*
X137830000Y-77380000D01*
X137830000Y-77380000D02*
X137830000Y-78710000D01*
X137830000Y-79980000D02*
X137830000Y-82580000D01*
%TO.C,R1*%
X154799775Y-60971380D02*
G75*
G02*
X154908272Y-59200000I-1344775J971380D01*
G01*
%TO.C,J4-Blu-5M1*%
X158670000Y-89495000D02*
X158670000Y-92095000D01*
X158670000Y-89495000D02*
X161330000Y-89495000D01*
X158670000Y-92095000D02*
X161330000Y-92095000D01*
X160000000Y-86895000D02*
X161330000Y-86895000D01*
X161330000Y-86895000D02*
X161330000Y-88225000D01*
X161330000Y-89495000D02*
X161330000Y-92095000D01*
%TO.C,J9-Relay1*%
X114420000Y-86980000D02*
X114420000Y-92120000D01*
X114420000Y-86980000D02*
X117080000Y-86980000D01*
X114420000Y-92120000D02*
X117080000Y-92120000D01*
X115750000Y-84380000D02*
X117080000Y-84380000D01*
X117080000Y-84380000D02*
X117080000Y-85710000D01*
X117080000Y-86980000D02*
X117080000Y-92120000D01*
%TO.C,R3*%
X154799775Y-82471380D02*
G75*
G02*
X154908272Y-80700000I-1344775J971380D01*
G01*
%TO.C,J2-Yel-2M1*%
X158170000Y-69230000D02*
X158170000Y-71830000D01*
X158170000Y-69230000D02*
X160830000Y-69230000D01*
X158170000Y-71830000D02*
X160830000Y-71830000D01*
X159500000Y-66630000D02*
X160830000Y-66630000D01*
X160830000Y-66630000D02*
X160830000Y-67960000D01*
X160830000Y-69230000D02*
X160830000Y-71830000D01*
%TO.C,R4*%
X154799775Y-92971380D02*
G75*
G02*
X154908272Y-91200000I-1344775J971380D01*
G01*
%TD*%
M02*
