%TF.GenerationSoftware,KiCad,Pcbnew,8.0.8-8.0.8-0~ubuntu24.10.1*%
%TF.CreationDate,2025-03-23T20:29:31-07:00*%
%TF.ProjectId,sailingRegattaTimer,7361696c-696e-4675-9265-676174746154,rev?*%
%TF.SameCoordinates,Original*%
%TF.FileFunction,Soldermask,Top*%
%TF.FilePolarity,Negative*%
%FSLAX46Y46*%
G04 Gerber Fmt 4.6, Leading zero omitted, Abs format (unit mm)*
G04 Created by KiCad (PCBNEW 8.0.8-8.0.8-0~ubuntu24.10.1) date 2025-03-23 20:29:31*
%MOMM*%
%LPD*%
G01*
G04 APERTURE LIST*
%ADD10R,1.800000X1.800000*%
%ADD11C,1.800000*%
%ADD12R,1.700000X1.700000*%
%ADD13O,1.700000X1.700000*%
%ADD14R,2.000000X2.000000*%
%ADD15C,2.000000*%
%ADD16C,1.600000*%
%ADD17O,1.600000X1.600000*%
%ADD18C,3.200000*%
G04 APERTURE END LIST*
D10*
%TO.C,D1-LED*%
X135230000Y-69065000D03*
D11*
X137770000Y-69065000D03*
%TD*%
D12*
%TO.C,J1*%
X127940000Y-97460000D03*
D13*
X130480000Y-97460000D03*
X133020000Y-97460000D03*
X135560000Y-97460000D03*
X138100000Y-97460000D03*
X140640000Y-97460000D03*
X143180000Y-97460000D03*
X145720000Y-97460000D03*
%TD*%
D12*
%TO.C,J3*%
X150800000Y-97460000D03*
D13*
X153340000Y-97460000D03*
X155880000Y-97460000D03*
X158420000Y-97460000D03*
X160960000Y-97460000D03*
X163500000Y-97460000D03*
%TD*%
D12*
%TO.C,J2*%
X118796000Y-49200000D03*
D13*
X121336000Y-49200000D03*
X123876000Y-49200000D03*
X126416000Y-49200000D03*
X128956000Y-49200000D03*
X131496000Y-49200000D03*
X134036000Y-49200000D03*
X136576000Y-49200000D03*
X139116000Y-49200000D03*
X141656000Y-49200000D03*
%TD*%
D12*
%TO.C,J4*%
X145720000Y-49200000D03*
D13*
X148260000Y-49200000D03*
X150800000Y-49200000D03*
X153340000Y-49200000D03*
X155880000Y-49200000D03*
X158420000Y-49200000D03*
X160960000Y-49200000D03*
X163500000Y-49200000D03*
%TD*%
D12*
%TO.C,J5-5v-LED1*%
X127500000Y-74960000D03*
D13*
X127500000Y-77500000D03*
%TD*%
D14*
%TO.C,BZ1*%
X125700000Y-60750000D03*
D15*
X133300000Y-60750000D03*
%TD*%
%TO.C,SW5-Reset1*%
X129500000Y-87000000D03*
X136000000Y-87000000D03*
X129500000Y-91500000D03*
X136000000Y-91500000D03*
%TD*%
%TO.C,SW3-Grn-3M1*%
X143000000Y-77000000D03*
X149500000Y-77000000D03*
X143000000Y-81500000D03*
X149500000Y-81500000D03*
%TD*%
%TO.C,SW2-Yel-2M1*%
X143000000Y-66500000D03*
X149500000Y-66500000D03*
X143000000Y-71000000D03*
X149500000Y-71000000D03*
%TD*%
D12*
%TO.C,J7-Ext-Buz1*%
X119525000Y-56250000D03*
D13*
X119525000Y-58790000D03*
%TD*%
D15*
%TO.C,SW1-Red-1M1*%
X143000000Y-56000000D03*
X149500000Y-56000000D03*
X143000000Y-60500000D03*
X149500000Y-60500000D03*
%TD*%
D12*
%TO.C,J3-Grn-3M1*%
X159500000Y-78460000D03*
D13*
X159500000Y-81000000D03*
%TD*%
D15*
%TO.C,SW4-Blu-5M1*%
X143000000Y-87500000D03*
X149500000Y-87500000D03*
X143000000Y-92000000D03*
X149500000Y-92000000D03*
%TD*%
D16*
%TO.C,R5*%
X119210000Y-68000000D03*
D17*
X121750000Y-68000000D03*
%TD*%
D18*
%TO.C,MH1*%
X115240000Y-49200000D03*
%TD*%
D16*
%TO.C,R2*%
X153455000Y-70500000D03*
D17*
X155995000Y-70500000D03*
%TD*%
D12*
%TO.C,J1-Red-1M1*%
X159500000Y-55960000D03*
D13*
X159500000Y-58500000D03*
%TD*%
D12*
%TO.C,J8-Pololu-VReg1*%
X122500000Y-83630000D03*
D13*
X122500000Y-86170000D03*
X122500000Y-88710000D03*
X122500000Y-91250000D03*
%TD*%
D12*
%TO.C,J6-Reset1*%
X136500000Y-78710000D03*
D13*
X136500000Y-81250000D03*
%TD*%
D16*
%TO.C,R1*%
X153455000Y-60000000D03*
D17*
X155995000Y-60000000D03*
%TD*%
D12*
%TO.C,J4-Blu-5M1*%
X160000000Y-88225000D03*
D13*
X160000000Y-90765000D03*
%TD*%
D12*
%TO.C,J9-Relay1*%
X115750000Y-85710000D03*
D13*
X115750000Y-88250000D03*
X115750000Y-90790000D03*
%TD*%
D16*
%TO.C,R3*%
X153455000Y-81500000D03*
D17*
X155995000Y-81500000D03*
%TD*%
D12*
%TO.C,J2-Yel-2M1*%
X159500000Y-67960000D03*
D13*
X159500000Y-70500000D03*
%TD*%
D18*
%TO.C,MH2*%
X113970000Y-97460000D03*
%TD*%
%TO.C,MH3*%
X166040000Y-64440000D03*
%TD*%
%TO.C,MH4*%
X166040000Y-92380000D03*
%TD*%
D16*
%TO.C,R4*%
X153455000Y-92000000D03*
D17*
X155995000Y-92000000D03*
%TD*%
M02*
