%TF.GenerationSoftware,KiCad,Pcbnew,8.0.8-8.0.8-0~ubuntu24.10.1*%
%TF.CreationDate,2025-03-15T17:44:08-07:00*%
%TF.ProjectId,sailingRegattaTimer,7361696c-696e-4675-9265-676174746154,rev?*%
%TF.SameCoordinates,Original*%
%TF.FileFunction,Copper,L2,Bot*%
%TF.FilePolarity,Positive*%
%FSLAX46Y46*%
G04 Gerber Fmt 4.6, Leading zero omitted, Abs format (unit mm)*
G04 Created by KiCad (PCBNEW 8.0.8-8.0.8-0~ubuntu24.10.1) date 2025-03-15 17:44:08*
%MOMM*%
%LPD*%
G01*
G04 APERTURE LIST*
%TA.AperFunction,ComponentPad*%
%ADD10R,1.800000X1.800000*%
%TD*%
%TA.AperFunction,ComponentPad*%
%ADD11C,1.800000*%
%TD*%
%TA.AperFunction,ComponentPad*%
%ADD12R,1.700000X1.700000*%
%TD*%
%TA.AperFunction,ComponentPad*%
%ADD13O,1.700000X1.700000*%
%TD*%
%TA.AperFunction,ComponentPad*%
%ADD14R,2.000000X2.000000*%
%TD*%
%TA.AperFunction,ComponentPad*%
%ADD15C,2.000000*%
%TD*%
%TA.AperFunction,ComponentPad*%
%ADD16C,1.600000*%
%TD*%
%TA.AperFunction,ComponentPad*%
%ADD17O,1.600000X1.600000*%
%TD*%
%TA.AperFunction,Conductor*%
%ADD18C,0.250000*%
%TD*%
G04 APERTURE END LIST*
D10*
%TO.P,D1-LED,1,K*%
%TO.N,Net-(D1-K)*%
X135230000Y-68565000D03*
D11*
%TO.P,D1-LED,2,A*%
%TO.N,/4*%
X137770000Y-68565000D03*
%TD*%
D12*
%TO.P,J1,1,Pin_1*%
%TO.N,unconnected-(J1-Pin_1-Pad1)*%
X127940000Y-97460000D03*
D13*
%TO.P,J1,2,Pin_2*%
%TO.N,/IOREF*%
X130480000Y-97460000D03*
%TO.P,J1,3,Pin_3*%
%TO.N,/~{RESET}*%
X133020000Y-97460000D03*
%TO.P,J1,4,Pin_4*%
%TO.N,+3V3*%
X135560000Y-97460000D03*
%TO.P,J1,5,Pin_5*%
%TO.N,+5V*%
X138100000Y-97460000D03*
%TO.P,J1,6,Pin_6*%
%TO.N,GND*%
X140640000Y-97460000D03*
%TO.P,J1,7,Pin_7*%
X143180000Y-97460000D03*
%TO.P,J1,8,Pin_8*%
%TO.N,VCC*%
X145720000Y-97460000D03*
%TD*%
D12*
%TO.P,J3,1,Pin_1*%
%TO.N,/A0*%
X150800000Y-97460000D03*
D13*
%TO.P,J3,2,Pin_2*%
%TO.N,/A1*%
X153340000Y-97460000D03*
%TO.P,J3,3,Pin_3*%
%TO.N,/A2*%
X155880000Y-97460000D03*
%TO.P,J3,4,Pin_4*%
%TO.N,/A3*%
X158420000Y-97460000D03*
%TO.P,J3,5,Pin_5*%
%TO.N,/SDA{slash}A4*%
X160960000Y-97460000D03*
%TO.P,J3,6,Pin_6*%
%TO.N,/SCL{slash}A5*%
X163500000Y-97460000D03*
%TD*%
D12*
%TO.P,J2,1,Pin_1*%
%TO.N,/SCL{slash}A5*%
X118796000Y-49200000D03*
D13*
%TO.P,J2,2,Pin_2*%
%TO.N,/SDA{slash}A4*%
X121336000Y-49200000D03*
%TO.P,J2,3,Pin_3*%
%TO.N,/AREF*%
X123876000Y-49200000D03*
%TO.P,J2,4,Pin_4*%
%TO.N,GND*%
X126416000Y-49200000D03*
%TO.P,J2,5,Pin_5*%
%TO.N,/13*%
X128956000Y-49200000D03*
%TO.P,J2,6,Pin_6*%
%TO.N,/12*%
X131496000Y-49200000D03*
%TO.P,J2,7,Pin_7*%
%TO.N,/\u002A11*%
X134036000Y-49200000D03*
%TO.P,J2,8,Pin_8*%
%TO.N,/\u002A10*%
X136576000Y-49200000D03*
%TO.P,J2,9,Pin_9*%
%TO.N,/\u002A9*%
X139116000Y-49200000D03*
%TO.P,J2,10,Pin_10*%
%TO.N,/8*%
X141656000Y-49200000D03*
%TD*%
D12*
%TO.P,J4,1,Pin_1*%
%TO.N,/7*%
X145720000Y-49200000D03*
D13*
%TO.P,J4,2,Pin_2*%
%TO.N,/\u002A6*%
X148260000Y-49200000D03*
%TO.P,J4,3,Pin_3*%
%TO.N,/\u002A5*%
X150800000Y-49200000D03*
%TO.P,J4,4,Pin_4*%
%TO.N,/4*%
X153340000Y-49200000D03*
%TO.P,J4,5,Pin_5*%
%TO.N,/\u002A3*%
X155880000Y-49200000D03*
%TO.P,J4,6,Pin_6*%
%TO.N,/2*%
X158420000Y-49200000D03*
%TO.P,J4,7,Pin_7*%
%TO.N,/TX{slash}1*%
X160960000Y-49200000D03*
%TO.P,J4,8,Pin_8*%
%TO.N,/RX{slash}0*%
X163500000Y-49200000D03*
%TD*%
D12*
%TO.P,J5-5v-LED1,1,Pin_1*%
%TO.N,+5V*%
X127500000Y-74960000D03*
D13*
%TO.P,J5-5v-LED1,2,Pin_2*%
%TO.N,GND*%
X127500000Y-77500000D03*
%TD*%
D14*
%TO.P,BZ1,1,+*%
%TO.N,/4*%
X125700000Y-60750000D03*
D15*
%TO.P,BZ1,2,-*%
%TO.N,GND*%
X133300000Y-60750000D03*
%TD*%
%TO.P,SW5-Reset1,1,1*%
%TO.N,/~{RESET}*%
X129500000Y-87000000D03*
X136000000Y-87000000D03*
%TO.P,SW5-Reset1,2,2*%
%TO.N,GND*%
X129500000Y-91500000D03*
X136000000Y-91500000D03*
%TD*%
%TO.P,SW3-Grn-3M1,1,1*%
%TO.N,+5V*%
X143000000Y-77000000D03*
X149500000Y-77000000D03*
%TO.P,SW3-Grn-3M1,2,2*%
%TO.N,/8*%
X143000000Y-81500000D03*
X149500000Y-81500000D03*
%TD*%
%TO.P,SW2-Yel-2M1,1,1*%
%TO.N,+5V*%
X143000000Y-66500000D03*
X149500000Y-66500000D03*
%TO.P,SW2-Yel-2M1,2,2*%
%TO.N,/7*%
X143000000Y-71000000D03*
X149500000Y-71000000D03*
%TD*%
D12*
%TO.P,J7-Ext-Buz1,1,Pin_1*%
%TO.N,/4*%
X119525000Y-56250000D03*
D13*
%TO.P,J7-Ext-Buz1,2,Pin_2*%
%TO.N,GND*%
X119525000Y-58790000D03*
%TD*%
D15*
%TO.P,SW1-Red-1M1,1,1*%
%TO.N,+5V*%
X143000000Y-56000000D03*
X149500000Y-56000000D03*
%TO.P,SW1-Red-1M1,2,2*%
%TO.N,/2*%
X143000000Y-60500000D03*
X149500000Y-60500000D03*
%TD*%
D12*
%TO.P,J3-Grn-3M1,1,Pin_1*%
%TO.N,+5V*%
X159500000Y-78460000D03*
D13*
%TO.P,J3-Grn-3M1,2,Pin_2*%
%TO.N,/8*%
X159500000Y-81000000D03*
%TD*%
D15*
%TO.P,SW4-Blu-5M1,1,1*%
%TO.N,+5V*%
X143000000Y-87500000D03*
X149500000Y-87500000D03*
%TO.P,SW4-Blu-5M1,2,2*%
%TO.N,/12*%
X143000000Y-92000000D03*
X149500000Y-92000000D03*
%TD*%
D16*
%TO.P,R5,1*%
%TO.N,Net-(D1-K)*%
X119210000Y-68000000D03*
D17*
%TO.P,R5,2*%
%TO.N,GND*%
X121750000Y-68000000D03*
%TD*%
D16*
%TO.P,R2,1*%
%TO.N,/7*%
X153455000Y-70500000D03*
D17*
%TO.P,R2,2*%
%TO.N,GND*%
X155995000Y-70500000D03*
%TD*%
D12*
%TO.P,J1-Red-1M1,1,Pin_1*%
%TO.N,+5V*%
X159500000Y-55960000D03*
D13*
%TO.P,J1-Red-1M1,2,Pin_2*%
%TO.N,/2*%
X159500000Y-58500000D03*
%TD*%
D12*
%TO.P,J8-Pololu-VReg1,1,Pin_1*%
%TO.N,unconnected-(J8-Pololu-VReg1-Pin_1-Pad1)*%
X122500000Y-83630000D03*
D13*
%TO.P,J8-Pololu-VReg1,2,Pin_2*%
%TO.N,unconnected-(J8-Pololu-VReg1-Pin_2-Pad2)*%
X122500000Y-86170000D03*
%TO.P,J8-Pololu-VReg1,3,Pin_3*%
%TO.N,GND*%
X122500000Y-88710000D03*
%TO.P,J8-Pololu-VReg1,4,Pin_4*%
%TO.N,VCC*%
X122500000Y-91250000D03*
%TD*%
D12*
%TO.P,J6-Reset1,1,Pin_1*%
%TO.N,/~{RESET}*%
X136500000Y-78710000D03*
D13*
%TO.P,J6-Reset1,2,Pin_2*%
%TO.N,GND*%
X136500000Y-81250000D03*
%TD*%
D16*
%TO.P,R1,1*%
%TO.N,/2*%
X153455000Y-60000000D03*
D17*
%TO.P,R1,2*%
%TO.N,GND*%
X155995000Y-60000000D03*
%TD*%
D12*
%TO.P,J4-Blu-5M1,1,Pin_1*%
%TO.N,+5V*%
X160000000Y-88225000D03*
D13*
%TO.P,J4-Blu-5M1,2,Pin_2*%
%TO.N,/12*%
X160000000Y-90765000D03*
%TD*%
D12*
%TO.P,J9-Relay1,1,Pin_1*%
%TO.N,Net-(D1-K)*%
X115750000Y-85710000D03*
D13*
%TO.P,J9-Relay1,2,Pin_2*%
%TO.N,+5V*%
X115750000Y-88250000D03*
%TO.P,J9-Relay1,3,Pin_3*%
%TO.N,GND*%
X115750000Y-90790000D03*
%TD*%
D16*
%TO.P,R3,1*%
%TO.N,/8*%
X153455000Y-81500000D03*
D17*
%TO.P,R3,2*%
%TO.N,GND*%
X155995000Y-81500000D03*
%TD*%
D12*
%TO.P,J2-Yel-2M1,1,Pin_1*%
%TO.N,+5V*%
X159500000Y-67960000D03*
D13*
%TO.P,J2-Yel-2M1,2,Pin_2*%
%TO.N,/7*%
X159500000Y-70500000D03*
%TD*%
D16*
%TO.P,R4,1*%
%TO.N,/12*%
X153455000Y-92000000D03*
D17*
%TO.P,R4,2*%
%TO.N,GND*%
X155995000Y-92000000D03*
%TD*%
D18*
%TO.N,+5V*%
X149500000Y-87500000D02*
X158000000Y-87500000D01*
X158000000Y-87500000D02*
X158725000Y-88225000D01*
X158725000Y-88225000D02*
X160000000Y-88225000D01*
%TO.N,GND*%
X138000000Y-91500000D02*
X138250000Y-91750000D01*
X136000000Y-91500000D02*
X138000000Y-91500000D01*
X138250000Y-91750000D02*
X138250000Y-95070000D01*
X138250000Y-95070000D02*
X140640000Y-97460000D01*
X133300000Y-60750000D02*
X133300000Y-58550000D01*
X133300000Y-58550000D02*
X132750000Y-58000000D01*
X132750000Y-58000000D02*
X120315000Y-58000000D01*
X120315000Y-58000000D02*
X119525000Y-58790000D01*
%TO.N,/4*%
X137770000Y-68565000D02*
X137770000Y-54430000D01*
X150540000Y-52000000D02*
X153340000Y-49200000D01*
X137770000Y-54430000D02*
X140200000Y-52000000D01*
X140200000Y-52000000D02*
X150540000Y-52000000D01*
%TO.N,GND*%
X155995000Y-81500000D02*
X155995000Y-70500000D01*
X124250000Y-77500000D02*
X121750000Y-75000000D01*
X121750000Y-68000000D02*
X126050000Y-68000000D01*
X126050000Y-68000000D02*
X133300000Y-60750000D01*
X127500000Y-77500000D02*
X124250000Y-77500000D01*
X121750000Y-75000000D02*
X121750000Y-68000000D01*
%TO.N,+5V*%
X159500000Y-56000000D02*
X160250000Y-55250000D01*
X160250000Y-55250000D02*
X160250000Y-55960000D01*
X159275000Y-87500000D02*
X160000000Y-88225000D01*
%TO.N,/12*%
X153750000Y-89500000D02*
X158750000Y-89500000D01*
X158750000Y-89500000D02*
X160000000Y-90750000D01*
X153455000Y-89795000D02*
X153750000Y-89500000D01*
X160000000Y-90750000D02*
X160000000Y-90765000D01*
X153455000Y-92000000D02*
X153455000Y-89795000D01*
%TO.N,VCC*%
X145720000Y-97460000D02*
X145720000Y-100220000D01*
X145720000Y-100220000D02*
X145750000Y-100250000D01*
X145750000Y-100250000D02*
X125000000Y-100250000D01*
X122500000Y-97750000D02*
X122500000Y-91250000D01*
X125000000Y-100250000D02*
X122500000Y-97750000D01*
%TD*%
M02*
