%TF.GenerationSoftware,KiCad,Pcbnew,8.0.8-8.0.8-0~ubuntu24.10.1*%
%TF.CreationDate,2025-03-23T20:29:32-07:00*%
%TF.ProjectId,sailingRegattaTimer,7361696c-696e-4675-9265-676174746154,rev?*%
%TF.SameCoordinates,Original*%
%TF.FileFunction,AssemblyDrawing,Top*%
%FSLAX46Y46*%
G04 Gerber Fmt 4.6, Leading zero omitted, Abs format (unit mm)*
G04 Created by KiCad (PCBNEW 8.0.8-8.0.8-0~ubuntu24.10.1) date 2025-03-23 20:29:32*
%MOMM*%
%LPD*%
G01*
G04 APERTURE LIST*
%ADD10C,0.150000*%
%ADD11C,0.100000*%
G04 APERTURE END LIST*
D10*
X135857142Y-74849819D02*
X135380952Y-74849819D01*
X135380952Y-74849819D02*
X135380952Y-73849819D01*
X136190476Y-74326009D02*
X136523809Y-74326009D01*
X136666666Y-74849819D02*
X136190476Y-74849819D01*
X136190476Y-74849819D02*
X136190476Y-73849819D01*
X136190476Y-73849819D02*
X136666666Y-73849819D01*
X137095238Y-74849819D02*
X137095238Y-73849819D01*
X137095238Y-73849819D02*
X137333333Y-73849819D01*
X137333333Y-73849819D02*
X137476190Y-73897438D01*
X137476190Y-73897438D02*
X137571428Y-73992676D01*
X137571428Y-73992676D02*
X137619047Y-74087914D01*
X137619047Y-74087914D02*
X137666666Y-74278390D01*
X137666666Y-74278390D02*
X137666666Y-74421247D01*
X137666666Y-74421247D02*
X137619047Y-74611723D01*
X137619047Y-74611723D02*
X137571428Y-74706961D01*
X137571428Y-74706961D02*
X137476190Y-74802200D01*
X137476190Y-74802200D02*
X137333333Y-74849819D01*
X137333333Y-74849819D02*
X137095238Y-74849819D01*
X134853809Y-101724819D02*
X134853809Y-100724819D01*
X134853809Y-100724819D02*
X135234761Y-100724819D01*
X135234761Y-100724819D02*
X135329999Y-100772438D01*
X135329999Y-100772438D02*
X135377618Y-100820057D01*
X135377618Y-100820057D02*
X135425237Y-100915295D01*
X135425237Y-100915295D02*
X135425237Y-101058152D01*
X135425237Y-101058152D02*
X135377618Y-101153390D01*
X135377618Y-101153390D02*
X135329999Y-101201009D01*
X135329999Y-101201009D02*
X135234761Y-101248628D01*
X135234761Y-101248628D02*
X134853809Y-101248628D01*
X135996666Y-101724819D02*
X135901428Y-101677200D01*
X135901428Y-101677200D02*
X135853809Y-101629580D01*
X135853809Y-101629580D02*
X135806190Y-101534342D01*
X135806190Y-101534342D02*
X135806190Y-101248628D01*
X135806190Y-101248628D02*
X135853809Y-101153390D01*
X135853809Y-101153390D02*
X135901428Y-101105771D01*
X135901428Y-101105771D02*
X135996666Y-101058152D01*
X135996666Y-101058152D02*
X136139523Y-101058152D01*
X136139523Y-101058152D02*
X136234761Y-101105771D01*
X136234761Y-101105771D02*
X136282380Y-101153390D01*
X136282380Y-101153390D02*
X136329999Y-101248628D01*
X136329999Y-101248628D02*
X136329999Y-101534342D01*
X136329999Y-101534342D02*
X136282380Y-101629580D01*
X136282380Y-101629580D02*
X136234761Y-101677200D01*
X136234761Y-101677200D02*
X136139523Y-101724819D01*
X136139523Y-101724819D02*
X135996666Y-101724819D01*
X136663333Y-101058152D02*
X136853809Y-101724819D01*
X136853809Y-101724819D02*
X137044285Y-101248628D01*
X137044285Y-101248628D02*
X137234761Y-101724819D01*
X137234761Y-101724819D02*
X137425237Y-101058152D01*
X138187142Y-101677200D02*
X138091904Y-101724819D01*
X138091904Y-101724819D02*
X137901428Y-101724819D01*
X137901428Y-101724819D02*
X137806190Y-101677200D01*
X137806190Y-101677200D02*
X137758571Y-101581961D01*
X137758571Y-101581961D02*
X137758571Y-101201009D01*
X137758571Y-101201009D02*
X137806190Y-101105771D01*
X137806190Y-101105771D02*
X137901428Y-101058152D01*
X137901428Y-101058152D02*
X138091904Y-101058152D01*
X138091904Y-101058152D02*
X138187142Y-101105771D01*
X138187142Y-101105771D02*
X138234761Y-101201009D01*
X138234761Y-101201009D02*
X138234761Y-101296247D01*
X138234761Y-101296247D02*
X137758571Y-101391485D01*
X138663333Y-101724819D02*
X138663333Y-101058152D01*
X138663333Y-101248628D02*
X138710952Y-101153390D01*
X138710952Y-101153390D02*
X138758571Y-101105771D01*
X138758571Y-101105771D02*
X138853809Y-101058152D01*
X138853809Y-101058152D02*
X138949047Y-101058152D01*
X127606666Y-100724819D02*
X127606666Y-101439104D01*
X127606666Y-101439104D02*
X127559047Y-101581961D01*
X127559047Y-101581961D02*
X127463809Y-101677200D01*
X127463809Y-101677200D02*
X127320952Y-101724819D01*
X127320952Y-101724819D02*
X127225714Y-101724819D01*
X128606666Y-101724819D02*
X128035238Y-101724819D01*
X128320952Y-101724819D02*
X128320952Y-100724819D01*
X128320952Y-100724819D02*
X128225714Y-100867676D01*
X128225714Y-100867676D02*
X128130476Y-100962914D01*
X128130476Y-100962914D02*
X128035238Y-101010533D01*
X154840476Y-101439104D02*
X155316666Y-101439104D01*
X154745238Y-101724819D02*
X155078571Y-100724819D01*
X155078571Y-100724819D02*
X155411904Y-101724819D01*
X155745238Y-101058152D02*
X155745238Y-101724819D01*
X155745238Y-101153390D02*
X155792857Y-101105771D01*
X155792857Y-101105771D02*
X155888095Y-101058152D01*
X155888095Y-101058152D02*
X156030952Y-101058152D01*
X156030952Y-101058152D02*
X156126190Y-101105771D01*
X156126190Y-101105771D02*
X156173809Y-101201009D01*
X156173809Y-101201009D02*
X156173809Y-101724819D01*
X157078571Y-101724819D02*
X157078571Y-101201009D01*
X157078571Y-101201009D02*
X157030952Y-101105771D01*
X157030952Y-101105771D02*
X156935714Y-101058152D01*
X156935714Y-101058152D02*
X156745238Y-101058152D01*
X156745238Y-101058152D02*
X156650000Y-101105771D01*
X157078571Y-101677200D02*
X156983333Y-101724819D01*
X156983333Y-101724819D02*
X156745238Y-101724819D01*
X156745238Y-101724819D02*
X156650000Y-101677200D01*
X156650000Y-101677200D02*
X156602381Y-101581961D01*
X156602381Y-101581961D02*
X156602381Y-101486723D01*
X156602381Y-101486723D02*
X156650000Y-101391485D01*
X156650000Y-101391485D02*
X156745238Y-101343866D01*
X156745238Y-101343866D02*
X156983333Y-101343866D01*
X156983333Y-101343866D02*
X157078571Y-101296247D01*
X157697619Y-101724819D02*
X157602381Y-101677200D01*
X157602381Y-101677200D02*
X157554762Y-101581961D01*
X157554762Y-101581961D02*
X157554762Y-100724819D01*
X158221429Y-101724819D02*
X158126191Y-101677200D01*
X158126191Y-101677200D02*
X158078572Y-101629580D01*
X158078572Y-101629580D02*
X158030953Y-101534342D01*
X158030953Y-101534342D02*
X158030953Y-101248628D01*
X158030953Y-101248628D02*
X158078572Y-101153390D01*
X158078572Y-101153390D02*
X158126191Y-101105771D01*
X158126191Y-101105771D02*
X158221429Y-101058152D01*
X158221429Y-101058152D02*
X158364286Y-101058152D01*
X158364286Y-101058152D02*
X158459524Y-101105771D01*
X158459524Y-101105771D02*
X158507143Y-101153390D01*
X158507143Y-101153390D02*
X158554762Y-101248628D01*
X158554762Y-101248628D02*
X158554762Y-101534342D01*
X158554762Y-101534342D02*
X158507143Y-101629580D01*
X158507143Y-101629580D02*
X158459524Y-101677200D01*
X158459524Y-101677200D02*
X158364286Y-101724819D01*
X158364286Y-101724819D02*
X158221429Y-101724819D01*
X159411905Y-101058152D02*
X159411905Y-101867676D01*
X159411905Y-101867676D02*
X159364286Y-101962914D01*
X159364286Y-101962914D02*
X159316667Y-102010533D01*
X159316667Y-102010533D02*
X159221429Y-102058152D01*
X159221429Y-102058152D02*
X159078572Y-102058152D01*
X159078572Y-102058152D02*
X158983334Y-102010533D01*
X159411905Y-101677200D02*
X159316667Y-101724819D01*
X159316667Y-101724819D02*
X159126191Y-101724819D01*
X159126191Y-101724819D02*
X159030953Y-101677200D01*
X159030953Y-101677200D02*
X158983334Y-101629580D01*
X158983334Y-101629580D02*
X158935715Y-101534342D01*
X158935715Y-101534342D02*
X158935715Y-101248628D01*
X158935715Y-101248628D02*
X158983334Y-101153390D01*
X158983334Y-101153390D02*
X159030953Y-101105771D01*
X159030953Y-101105771D02*
X159126191Y-101058152D01*
X159126191Y-101058152D02*
X159316667Y-101058152D01*
X159316667Y-101058152D02*
X159411905Y-101105771D01*
X150466666Y-100724819D02*
X150466666Y-101439104D01*
X150466666Y-101439104D02*
X150419047Y-101581961D01*
X150419047Y-101581961D02*
X150323809Y-101677200D01*
X150323809Y-101677200D02*
X150180952Y-101724819D01*
X150180952Y-101724819D02*
X150085714Y-101724819D01*
X150847619Y-100724819D02*
X151466666Y-100724819D01*
X151466666Y-100724819D02*
X151133333Y-101105771D01*
X151133333Y-101105771D02*
X151276190Y-101105771D01*
X151276190Y-101105771D02*
X151371428Y-101153390D01*
X151371428Y-101153390D02*
X151419047Y-101201009D01*
X151419047Y-101201009D02*
X151466666Y-101296247D01*
X151466666Y-101296247D02*
X151466666Y-101534342D01*
X151466666Y-101534342D02*
X151419047Y-101629580D01*
X151419047Y-101629580D02*
X151371428Y-101677200D01*
X151371428Y-101677200D02*
X151276190Y-101724819D01*
X151276190Y-101724819D02*
X150990476Y-101724819D01*
X150990476Y-101724819D02*
X150895238Y-101677200D01*
X150895238Y-101677200D02*
X150847619Y-101629580D01*
X125868857Y-45844819D02*
X125868857Y-44844819D01*
X125868857Y-44844819D02*
X126106952Y-44844819D01*
X126106952Y-44844819D02*
X126249809Y-44892438D01*
X126249809Y-44892438D02*
X126345047Y-44987676D01*
X126345047Y-44987676D02*
X126392666Y-45082914D01*
X126392666Y-45082914D02*
X126440285Y-45273390D01*
X126440285Y-45273390D02*
X126440285Y-45416247D01*
X126440285Y-45416247D02*
X126392666Y-45606723D01*
X126392666Y-45606723D02*
X126345047Y-45701961D01*
X126345047Y-45701961D02*
X126249809Y-45797200D01*
X126249809Y-45797200D02*
X126106952Y-45844819D01*
X126106952Y-45844819D02*
X125868857Y-45844819D01*
X126868857Y-45844819D02*
X126868857Y-45178152D01*
X126868857Y-44844819D02*
X126821238Y-44892438D01*
X126821238Y-44892438D02*
X126868857Y-44940057D01*
X126868857Y-44940057D02*
X126916476Y-44892438D01*
X126916476Y-44892438D02*
X126868857Y-44844819D01*
X126868857Y-44844819D02*
X126868857Y-44940057D01*
X127773618Y-45178152D02*
X127773618Y-45987676D01*
X127773618Y-45987676D02*
X127725999Y-46082914D01*
X127725999Y-46082914D02*
X127678380Y-46130533D01*
X127678380Y-46130533D02*
X127583142Y-46178152D01*
X127583142Y-46178152D02*
X127440285Y-46178152D01*
X127440285Y-46178152D02*
X127345047Y-46130533D01*
X127773618Y-45797200D02*
X127678380Y-45844819D01*
X127678380Y-45844819D02*
X127487904Y-45844819D01*
X127487904Y-45844819D02*
X127392666Y-45797200D01*
X127392666Y-45797200D02*
X127345047Y-45749580D01*
X127345047Y-45749580D02*
X127297428Y-45654342D01*
X127297428Y-45654342D02*
X127297428Y-45368628D01*
X127297428Y-45368628D02*
X127345047Y-45273390D01*
X127345047Y-45273390D02*
X127392666Y-45225771D01*
X127392666Y-45225771D02*
X127487904Y-45178152D01*
X127487904Y-45178152D02*
X127678380Y-45178152D01*
X127678380Y-45178152D02*
X127773618Y-45225771D01*
X128249809Y-45844819D02*
X128249809Y-45178152D01*
X128249809Y-44844819D02*
X128202190Y-44892438D01*
X128202190Y-44892438D02*
X128249809Y-44940057D01*
X128249809Y-44940057D02*
X128297428Y-44892438D01*
X128297428Y-44892438D02*
X128249809Y-44844819D01*
X128249809Y-44844819D02*
X128249809Y-44940057D01*
X128583142Y-45178152D02*
X128964094Y-45178152D01*
X128725999Y-44844819D02*
X128725999Y-45701961D01*
X128725999Y-45701961D02*
X128773618Y-45797200D01*
X128773618Y-45797200D02*
X128868856Y-45844819D01*
X128868856Y-45844819D02*
X128964094Y-45844819D01*
X129725999Y-45844819D02*
X129725999Y-45321009D01*
X129725999Y-45321009D02*
X129678380Y-45225771D01*
X129678380Y-45225771D02*
X129583142Y-45178152D01*
X129583142Y-45178152D02*
X129392666Y-45178152D01*
X129392666Y-45178152D02*
X129297428Y-45225771D01*
X129725999Y-45797200D02*
X129630761Y-45844819D01*
X129630761Y-45844819D02*
X129392666Y-45844819D01*
X129392666Y-45844819D02*
X129297428Y-45797200D01*
X129297428Y-45797200D02*
X129249809Y-45701961D01*
X129249809Y-45701961D02*
X129249809Y-45606723D01*
X129249809Y-45606723D02*
X129297428Y-45511485D01*
X129297428Y-45511485D02*
X129392666Y-45463866D01*
X129392666Y-45463866D02*
X129630761Y-45463866D01*
X129630761Y-45463866D02*
X129725999Y-45416247D01*
X130345047Y-45844819D02*
X130249809Y-45797200D01*
X130249809Y-45797200D02*
X130202190Y-45701961D01*
X130202190Y-45701961D02*
X130202190Y-44844819D01*
X131440285Y-44797200D02*
X130583143Y-46082914D01*
X131773619Y-45844819D02*
X131773619Y-44844819D01*
X131773619Y-44844819D02*
X132154571Y-44844819D01*
X132154571Y-44844819D02*
X132249809Y-44892438D01*
X132249809Y-44892438D02*
X132297428Y-44940057D01*
X132297428Y-44940057D02*
X132345047Y-45035295D01*
X132345047Y-45035295D02*
X132345047Y-45178152D01*
X132345047Y-45178152D02*
X132297428Y-45273390D01*
X132297428Y-45273390D02*
X132249809Y-45321009D01*
X132249809Y-45321009D02*
X132154571Y-45368628D01*
X132154571Y-45368628D02*
X131773619Y-45368628D01*
X132678381Y-44844819D02*
X132916476Y-45844819D01*
X132916476Y-45844819D02*
X133106952Y-45130533D01*
X133106952Y-45130533D02*
X133297428Y-45844819D01*
X133297428Y-45844819D02*
X133535524Y-44844819D01*
X133916476Y-45844819D02*
X133916476Y-44844819D01*
X133916476Y-44844819D02*
X134249809Y-45559104D01*
X134249809Y-45559104D02*
X134583142Y-44844819D01*
X134583142Y-44844819D02*
X134583142Y-45844819D01*
X118462666Y-44844819D02*
X118462666Y-45559104D01*
X118462666Y-45559104D02*
X118415047Y-45701961D01*
X118415047Y-45701961D02*
X118319809Y-45797200D01*
X118319809Y-45797200D02*
X118176952Y-45844819D01*
X118176952Y-45844819D02*
X118081714Y-45844819D01*
X118891238Y-44940057D02*
X118938857Y-44892438D01*
X118938857Y-44892438D02*
X119034095Y-44844819D01*
X119034095Y-44844819D02*
X119272190Y-44844819D01*
X119272190Y-44844819D02*
X119367428Y-44892438D01*
X119367428Y-44892438D02*
X119415047Y-44940057D01*
X119415047Y-44940057D02*
X119462666Y-45035295D01*
X119462666Y-45035295D02*
X119462666Y-45130533D01*
X119462666Y-45130533D02*
X119415047Y-45273390D01*
X119415047Y-45273390D02*
X118843619Y-45844819D01*
X118843619Y-45844819D02*
X119462666Y-45844819D01*
X150252857Y-45844819D02*
X150252857Y-44844819D01*
X150252857Y-44844819D02*
X150490952Y-44844819D01*
X150490952Y-44844819D02*
X150633809Y-44892438D01*
X150633809Y-44892438D02*
X150729047Y-44987676D01*
X150729047Y-44987676D02*
X150776666Y-45082914D01*
X150776666Y-45082914D02*
X150824285Y-45273390D01*
X150824285Y-45273390D02*
X150824285Y-45416247D01*
X150824285Y-45416247D02*
X150776666Y-45606723D01*
X150776666Y-45606723D02*
X150729047Y-45701961D01*
X150729047Y-45701961D02*
X150633809Y-45797200D01*
X150633809Y-45797200D02*
X150490952Y-45844819D01*
X150490952Y-45844819D02*
X150252857Y-45844819D01*
X151252857Y-45844819D02*
X151252857Y-45178152D01*
X151252857Y-44844819D02*
X151205238Y-44892438D01*
X151205238Y-44892438D02*
X151252857Y-44940057D01*
X151252857Y-44940057D02*
X151300476Y-44892438D01*
X151300476Y-44892438D02*
X151252857Y-44844819D01*
X151252857Y-44844819D02*
X151252857Y-44940057D01*
X152157618Y-45178152D02*
X152157618Y-45987676D01*
X152157618Y-45987676D02*
X152109999Y-46082914D01*
X152109999Y-46082914D02*
X152062380Y-46130533D01*
X152062380Y-46130533D02*
X151967142Y-46178152D01*
X151967142Y-46178152D02*
X151824285Y-46178152D01*
X151824285Y-46178152D02*
X151729047Y-46130533D01*
X152157618Y-45797200D02*
X152062380Y-45844819D01*
X152062380Y-45844819D02*
X151871904Y-45844819D01*
X151871904Y-45844819D02*
X151776666Y-45797200D01*
X151776666Y-45797200D02*
X151729047Y-45749580D01*
X151729047Y-45749580D02*
X151681428Y-45654342D01*
X151681428Y-45654342D02*
X151681428Y-45368628D01*
X151681428Y-45368628D02*
X151729047Y-45273390D01*
X151729047Y-45273390D02*
X151776666Y-45225771D01*
X151776666Y-45225771D02*
X151871904Y-45178152D01*
X151871904Y-45178152D02*
X152062380Y-45178152D01*
X152062380Y-45178152D02*
X152157618Y-45225771D01*
X152633809Y-45844819D02*
X152633809Y-45178152D01*
X152633809Y-44844819D02*
X152586190Y-44892438D01*
X152586190Y-44892438D02*
X152633809Y-44940057D01*
X152633809Y-44940057D02*
X152681428Y-44892438D01*
X152681428Y-44892438D02*
X152633809Y-44844819D01*
X152633809Y-44844819D02*
X152633809Y-44940057D01*
X152967142Y-45178152D02*
X153348094Y-45178152D01*
X153109999Y-44844819D02*
X153109999Y-45701961D01*
X153109999Y-45701961D02*
X153157618Y-45797200D01*
X153157618Y-45797200D02*
X153252856Y-45844819D01*
X153252856Y-45844819D02*
X153348094Y-45844819D01*
X154109999Y-45844819D02*
X154109999Y-45321009D01*
X154109999Y-45321009D02*
X154062380Y-45225771D01*
X154062380Y-45225771D02*
X153967142Y-45178152D01*
X153967142Y-45178152D02*
X153776666Y-45178152D01*
X153776666Y-45178152D02*
X153681428Y-45225771D01*
X154109999Y-45797200D02*
X154014761Y-45844819D01*
X154014761Y-45844819D02*
X153776666Y-45844819D01*
X153776666Y-45844819D02*
X153681428Y-45797200D01*
X153681428Y-45797200D02*
X153633809Y-45701961D01*
X153633809Y-45701961D02*
X153633809Y-45606723D01*
X153633809Y-45606723D02*
X153681428Y-45511485D01*
X153681428Y-45511485D02*
X153776666Y-45463866D01*
X153776666Y-45463866D02*
X154014761Y-45463866D01*
X154014761Y-45463866D02*
X154109999Y-45416247D01*
X154729047Y-45844819D02*
X154633809Y-45797200D01*
X154633809Y-45797200D02*
X154586190Y-45701961D01*
X154586190Y-45701961D02*
X154586190Y-44844819D01*
X155824285Y-44797200D02*
X154967143Y-46082914D01*
X156157619Y-45844819D02*
X156157619Y-44844819D01*
X156157619Y-44844819D02*
X156538571Y-44844819D01*
X156538571Y-44844819D02*
X156633809Y-44892438D01*
X156633809Y-44892438D02*
X156681428Y-44940057D01*
X156681428Y-44940057D02*
X156729047Y-45035295D01*
X156729047Y-45035295D02*
X156729047Y-45178152D01*
X156729047Y-45178152D02*
X156681428Y-45273390D01*
X156681428Y-45273390D02*
X156633809Y-45321009D01*
X156633809Y-45321009D02*
X156538571Y-45368628D01*
X156538571Y-45368628D02*
X156157619Y-45368628D01*
X157062381Y-44844819D02*
X157300476Y-45844819D01*
X157300476Y-45844819D02*
X157490952Y-45130533D01*
X157490952Y-45130533D02*
X157681428Y-45844819D01*
X157681428Y-45844819D02*
X157919524Y-44844819D01*
X158300476Y-45844819D02*
X158300476Y-44844819D01*
X158300476Y-44844819D02*
X158633809Y-45559104D01*
X158633809Y-45559104D02*
X158967142Y-44844819D01*
X158967142Y-44844819D02*
X158967142Y-45844819D01*
X145386666Y-44844819D02*
X145386666Y-45559104D01*
X145386666Y-45559104D02*
X145339047Y-45701961D01*
X145339047Y-45701961D02*
X145243809Y-45797200D01*
X145243809Y-45797200D02*
X145100952Y-45844819D01*
X145100952Y-45844819D02*
X145005714Y-45844819D01*
X146291428Y-45178152D02*
X146291428Y-45844819D01*
X146053333Y-44797200D02*
X145815238Y-45511485D01*
X145815238Y-45511485D02*
X146434285Y-45511485D01*
X125309048Y-58283866D02*
X126070953Y-58283866D01*
X125690000Y-58664819D02*
X125690000Y-57902914D01*
X132988095Y-93773866D02*
X133035714Y-93726247D01*
X133035714Y-93726247D02*
X133130952Y-93678628D01*
X133130952Y-93678628D02*
X133321428Y-93773866D01*
X133321428Y-93773866D02*
X133416666Y-93726247D01*
X133416666Y-93726247D02*
X133464285Y-93678628D01*
X146488095Y-83773866D02*
X146535714Y-83726247D01*
X146535714Y-83726247D02*
X146630952Y-83678628D01*
X146630952Y-83678628D02*
X146821428Y-83773866D01*
X146821428Y-83773866D02*
X146916666Y-83726247D01*
X146916666Y-83726247D02*
X146964285Y-83678628D01*
X146488095Y-73273866D02*
X146535714Y-73226247D01*
X146535714Y-73226247D02*
X146630952Y-73178628D01*
X146630952Y-73178628D02*
X146821428Y-73273866D01*
X146821428Y-73273866D02*
X146916666Y-73226247D01*
X146916666Y-73226247D02*
X146964285Y-73178628D01*
X146488095Y-62773866D02*
X146535714Y-62726247D01*
X146535714Y-62726247D02*
X146630952Y-62678628D01*
X146630952Y-62678628D02*
X146821428Y-62773866D01*
X146821428Y-62773866D02*
X146916666Y-62726247D01*
X146916666Y-62726247D02*
X146964285Y-62678628D01*
X146488095Y-94273866D02*
X146535714Y-94226247D01*
X146535714Y-94226247D02*
X146630952Y-94178628D01*
X146630952Y-94178628D02*
X146821428Y-94273866D01*
X146821428Y-94273866D02*
X146916666Y-94226247D01*
X146916666Y-94226247D02*
X146964285Y-94178628D01*
X120313333Y-65734819D02*
X119980000Y-65258628D01*
X119741905Y-65734819D02*
X119741905Y-64734819D01*
X119741905Y-64734819D02*
X120122857Y-64734819D01*
X120122857Y-64734819D02*
X120218095Y-64782438D01*
X120218095Y-64782438D02*
X120265714Y-64830057D01*
X120265714Y-64830057D02*
X120313333Y-64925295D01*
X120313333Y-64925295D02*
X120313333Y-65068152D01*
X120313333Y-65068152D02*
X120265714Y-65163390D01*
X120265714Y-65163390D02*
X120218095Y-65211009D01*
X120218095Y-65211009D02*
X120122857Y-65258628D01*
X120122857Y-65258628D02*
X119741905Y-65258628D01*
X121218095Y-64734819D02*
X120741905Y-64734819D01*
X120741905Y-64734819D02*
X120694286Y-65211009D01*
X120694286Y-65211009D02*
X120741905Y-65163390D01*
X120741905Y-65163390D02*
X120837143Y-65115771D01*
X120837143Y-65115771D02*
X121075238Y-65115771D01*
X121075238Y-65115771D02*
X121170476Y-65163390D01*
X121170476Y-65163390D02*
X121218095Y-65211009D01*
X121218095Y-65211009D02*
X121265714Y-65306247D01*
X121265714Y-65306247D02*
X121265714Y-65544342D01*
X121265714Y-65544342D02*
X121218095Y-65639580D01*
X121218095Y-65639580D02*
X121170476Y-65687200D01*
X121170476Y-65687200D02*
X121075238Y-65734819D01*
X121075238Y-65734819D02*
X120837143Y-65734819D01*
X120837143Y-65734819D02*
X120741905Y-65687200D01*
X120741905Y-65687200D02*
X120694286Y-65639580D01*
X154463095Y-73293866D02*
X154510714Y-73246247D01*
X154510714Y-73246247D02*
X154605952Y-73198628D01*
X154605952Y-73198628D02*
X154796428Y-73293866D01*
X154796428Y-73293866D02*
X154891666Y-73246247D01*
X154891666Y-73246247D02*
X154939285Y-73198628D01*
X154558333Y-68234819D02*
X154225000Y-67758628D01*
X153986905Y-68234819D02*
X153986905Y-67234819D01*
X153986905Y-67234819D02*
X154367857Y-67234819D01*
X154367857Y-67234819D02*
X154463095Y-67282438D01*
X154463095Y-67282438D02*
X154510714Y-67330057D01*
X154510714Y-67330057D02*
X154558333Y-67425295D01*
X154558333Y-67425295D02*
X154558333Y-67568152D01*
X154558333Y-67568152D02*
X154510714Y-67663390D01*
X154510714Y-67663390D02*
X154463095Y-67711009D01*
X154463095Y-67711009D02*
X154367857Y-67758628D01*
X154367857Y-67758628D02*
X153986905Y-67758628D01*
X154939286Y-67330057D02*
X154986905Y-67282438D01*
X154986905Y-67282438D02*
X155082143Y-67234819D01*
X155082143Y-67234819D02*
X155320238Y-67234819D01*
X155320238Y-67234819D02*
X155415476Y-67282438D01*
X155415476Y-67282438D02*
X155463095Y-67330057D01*
X155463095Y-67330057D02*
X155510714Y-67425295D01*
X155510714Y-67425295D02*
X155510714Y-67520533D01*
X155510714Y-67520533D02*
X155463095Y-67663390D01*
X155463095Y-67663390D02*
X154891667Y-68234819D01*
X154891667Y-68234819D02*
X155510714Y-68234819D01*
X154463095Y-62793866D02*
X154510714Y-62746247D01*
X154510714Y-62746247D02*
X154605952Y-62698628D01*
X154605952Y-62698628D02*
X154796428Y-62793866D01*
X154796428Y-62793866D02*
X154891666Y-62746247D01*
X154891666Y-62746247D02*
X154939285Y-62698628D01*
X154558333Y-57734819D02*
X154225000Y-57258628D01*
X153986905Y-57734819D02*
X153986905Y-56734819D01*
X153986905Y-56734819D02*
X154367857Y-56734819D01*
X154367857Y-56734819D02*
X154463095Y-56782438D01*
X154463095Y-56782438D02*
X154510714Y-56830057D01*
X154510714Y-56830057D02*
X154558333Y-56925295D01*
X154558333Y-56925295D02*
X154558333Y-57068152D01*
X154558333Y-57068152D02*
X154510714Y-57163390D01*
X154510714Y-57163390D02*
X154463095Y-57211009D01*
X154463095Y-57211009D02*
X154367857Y-57258628D01*
X154367857Y-57258628D02*
X153986905Y-57258628D01*
X155510714Y-57734819D02*
X154939286Y-57734819D01*
X155225000Y-57734819D02*
X155225000Y-56734819D01*
X155225000Y-56734819D02*
X155129762Y-56877676D01*
X155129762Y-56877676D02*
X155034524Y-56972914D01*
X155034524Y-56972914D02*
X154939286Y-57020533D01*
X115204819Y-91702381D02*
X115919104Y-91702381D01*
X115919104Y-91702381D02*
X116061961Y-91750000D01*
X116061961Y-91750000D02*
X116157200Y-91845238D01*
X116157200Y-91845238D02*
X116204819Y-91988095D01*
X116204819Y-91988095D02*
X116204819Y-92083333D01*
X116204819Y-91178571D02*
X116204819Y-90988095D01*
X116204819Y-90988095D02*
X116157200Y-90892857D01*
X116157200Y-90892857D02*
X116109580Y-90845238D01*
X116109580Y-90845238D02*
X115966723Y-90750000D01*
X115966723Y-90750000D02*
X115776247Y-90702381D01*
X115776247Y-90702381D02*
X115395295Y-90702381D01*
X115395295Y-90702381D02*
X115300057Y-90750000D01*
X115300057Y-90750000D02*
X115252438Y-90797619D01*
X115252438Y-90797619D02*
X115204819Y-90892857D01*
X115204819Y-90892857D02*
X115204819Y-91083333D01*
X115204819Y-91083333D02*
X115252438Y-91178571D01*
X115252438Y-91178571D02*
X115300057Y-91226190D01*
X115300057Y-91226190D02*
X115395295Y-91273809D01*
X115395295Y-91273809D02*
X115633390Y-91273809D01*
X115633390Y-91273809D02*
X115728628Y-91226190D01*
X115728628Y-91226190D02*
X115776247Y-91178571D01*
X115776247Y-91178571D02*
X115823866Y-91083333D01*
X115823866Y-91083333D02*
X115823866Y-90892857D01*
X115823866Y-90892857D02*
X115776247Y-90797619D01*
X115776247Y-90797619D02*
X115728628Y-90750000D01*
X115728628Y-90750000D02*
X115633390Y-90702381D01*
X115823866Y-90273809D02*
X115823866Y-89511905D01*
X116204819Y-88464286D02*
X115728628Y-88797619D01*
X116204819Y-89035714D02*
X115204819Y-89035714D01*
X115204819Y-89035714D02*
X115204819Y-88654762D01*
X115204819Y-88654762D02*
X115252438Y-88559524D01*
X115252438Y-88559524D02*
X115300057Y-88511905D01*
X115300057Y-88511905D02*
X115395295Y-88464286D01*
X115395295Y-88464286D02*
X115538152Y-88464286D01*
X115538152Y-88464286D02*
X115633390Y-88511905D01*
X115633390Y-88511905D02*
X115681009Y-88559524D01*
X115681009Y-88559524D02*
X115728628Y-88654762D01*
X115728628Y-88654762D02*
X115728628Y-89035714D01*
X116157200Y-87654762D02*
X116204819Y-87750000D01*
X116204819Y-87750000D02*
X116204819Y-87940476D01*
X116204819Y-87940476D02*
X116157200Y-88035714D01*
X116157200Y-88035714D02*
X116061961Y-88083333D01*
X116061961Y-88083333D02*
X115681009Y-88083333D01*
X115681009Y-88083333D02*
X115585771Y-88035714D01*
X115585771Y-88035714D02*
X115538152Y-87940476D01*
X115538152Y-87940476D02*
X115538152Y-87750000D01*
X115538152Y-87750000D02*
X115585771Y-87654762D01*
X115585771Y-87654762D02*
X115681009Y-87607143D01*
X115681009Y-87607143D02*
X115776247Y-87607143D01*
X115776247Y-87607143D02*
X115871485Y-88083333D01*
X116204819Y-87035714D02*
X116157200Y-87130952D01*
X116157200Y-87130952D02*
X116061961Y-87178571D01*
X116061961Y-87178571D02*
X115204819Y-87178571D01*
X116204819Y-86226190D02*
X115681009Y-86226190D01*
X115681009Y-86226190D02*
X115585771Y-86273809D01*
X115585771Y-86273809D02*
X115538152Y-86369047D01*
X115538152Y-86369047D02*
X115538152Y-86559523D01*
X115538152Y-86559523D02*
X115585771Y-86654761D01*
X116157200Y-86226190D02*
X116204819Y-86321428D01*
X116204819Y-86321428D02*
X116204819Y-86559523D01*
X116204819Y-86559523D02*
X116157200Y-86654761D01*
X116157200Y-86654761D02*
X116061961Y-86702380D01*
X116061961Y-86702380D02*
X115966723Y-86702380D01*
X115966723Y-86702380D02*
X115871485Y-86654761D01*
X115871485Y-86654761D02*
X115823866Y-86559523D01*
X115823866Y-86559523D02*
X115823866Y-86321428D01*
X115823866Y-86321428D02*
X115776247Y-86226190D01*
X115538152Y-85845237D02*
X116204819Y-85607142D01*
X115538152Y-85369047D02*
X116204819Y-85607142D01*
X116204819Y-85607142D02*
X116442914Y-85702380D01*
X116442914Y-85702380D02*
X116490533Y-85749999D01*
X116490533Y-85749999D02*
X116538152Y-85845237D01*
X116204819Y-84464285D02*
X116204819Y-85035713D01*
X116204819Y-84749999D02*
X115204819Y-84749999D01*
X115204819Y-84749999D02*
X115347676Y-84845237D01*
X115347676Y-84845237D02*
X115442914Y-84940475D01*
X115442914Y-84940475D02*
X115490533Y-85035713D01*
X154463095Y-84293866D02*
X154510714Y-84246247D01*
X154510714Y-84246247D02*
X154605952Y-84198628D01*
X154605952Y-84198628D02*
X154796428Y-84293866D01*
X154796428Y-84293866D02*
X154891666Y-84246247D01*
X154891666Y-84246247D02*
X154939285Y-84198628D01*
X154558333Y-79234819D02*
X154225000Y-78758628D01*
X153986905Y-79234819D02*
X153986905Y-78234819D01*
X153986905Y-78234819D02*
X154367857Y-78234819D01*
X154367857Y-78234819D02*
X154463095Y-78282438D01*
X154463095Y-78282438D02*
X154510714Y-78330057D01*
X154510714Y-78330057D02*
X154558333Y-78425295D01*
X154558333Y-78425295D02*
X154558333Y-78568152D01*
X154558333Y-78568152D02*
X154510714Y-78663390D01*
X154510714Y-78663390D02*
X154463095Y-78711009D01*
X154463095Y-78711009D02*
X154367857Y-78758628D01*
X154367857Y-78758628D02*
X153986905Y-78758628D01*
X154891667Y-78234819D02*
X155510714Y-78234819D01*
X155510714Y-78234819D02*
X155177381Y-78615771D01*
X155177381Y-78615771D02*
X155320238Y-78615771D01*
X155320238Y-78615771D02*
X155415476Y-78663390D01*
X155415476Y-78663390D02*
X155463095Y-78711009D01*
X155463095Y-78711009D02*
X155510714Y-78806247D01*
X155510714Y-78806247D02*
X155510714Y-79044342D01*
X155510714Y-79044342D02*
X155463095Y-79139580D01*
X155463095Y-79139580D02*
X155415476Y-79187200D01*
X155415476Y-79187200D02*
X155320238Y-79234819D01*
X155320238Y-79234819D02*
X155034524Y-79234819D01*
X155034524Y-79234819D02*
X154939286Y-79187200D01*
X154939286Y-79187200D02*
X154891667Y-79139580D01*
X154463095Y-94793866D02*
X154510714Y-94746247D01*
X154510714Y-94746247D02*
X154605952Y-94698628D01*
X154605952Y-94698628D02*
X154796428Y-94793866D01*
X154796428Y-94793866D02*
X154891666Y-94746247D01*
X154891666Y-94746247D02*
X154939285Y-94698628D01*
X154558333Y-89734819D02*
X154225000Y-89258628D01*
X153986905Y-89734819D02*
X153986905Y-88734819D01*
X153986905Y-88734819D02*
X154367857Y-88734819D01*
X154367857Y-88734819D02*
X154463095Y-88782438D01*
X154463095Y-88782438D02*
X154510714Y-88830057D01*
X154510714Y-88830057D02*
X154558333Y-88925295D01*
X154558333Y-88925295D02*
X154558333Y-89068152D01*
X154558333Y-89068152D02*
X154510714Y-89163390D01*
X154510714Y-89163390D02*
X154463095Y-89211009D01*
X154463095Y-89211009D02*
X154367857Y-89258628D01*
X154367857Y-89258628D02*
X153986905Y-89258628D01*
X155415476Y-89068152D02*
X155415476Y-89734819D01*
X155177381Y-88687200D02*
X154939286Y-89401485D01*
X154939286Y-89401485D02*
X155558333Y-89401485D01*
D11*
%TO.C,D1-LED*%
X134850000Y-70335000D02*
X134850000Y-71935000D01*
X134850000Y-71935000D02*
X138150000Y-71935000D01*
X135230000Y-69065000D02*
X135230000Y-69065000D01*
X135230000Y-69065000D02*
X135230000Y-70335000D01*
X135230000Y-70335000D02*
X135230000Y-69065000D01*
X135230000Y-70335000D02*
X135230000Y-70335000D01*
X135600000Y-71935000D02*
X135600000Y-73335000D01*
X135600000Y-73335000D02*
X137400000Y-73335000D01*
X137400000Y-71935000D02*
X135600000Y-71935000D01*
X137400000Y-73335000D02*
X137400000Y-71935000D01*
X137770000Y-69065000D02*
X137770000Y-69065000D01*
X137770000Y-69065000D02*
X137770000Y-70335000D01*
X137770000Y-70335000D02*
X137770000Y-69065000D01*
X137770000Y-70335000D02*
X137770000Y-70335000D01*
X138150000Y-70335000D02*
X134850000Y-70335000D01*
X138150000Y-71935000D02*
X138150000Y-70335000D01*
%TO.C,J1*%
X126670000Y-96825000D02*
X127305000Y-96190000D01*
X126670000Y-98730000D02*
X126670000Y-96825000D01*
X127305000Y-96190000D02*
X146990000Y-96190000D01*
X146990000Y-96190000D02*
X146990000Y-98730000D01*
X146990000Y-98730000D02*
X126670000Y-98730000D01*
%TO.C,J3*%
X149530000Y-96825000D02*
X150165000Y-96190000D01*
X149530000Y-98730000D02*
X149530000Y-96825000D01*
X150165000Y-96190000D02*
X164770000Y-96190000D01*
X164770000Y-96190000D02*
X164770000Y-98730000D01*
X164770000Y-98730000D02*
X149530000Y-98730000D01*
%TO.C,J2*%
X117526000Y-48565000D02*
X118161000Y-47930000D01*
X117526000Y-50470000D02*
X117526000Y-48565000D01*
X118161000Y-47930000D02*
X142926000Y-47930000D01*
X142926000Y-47930000D02*
X142926000Y-50470000D01*
X142926000Y-50470000D02*
X117526000Y-50470000D01*
%TO.C,J4*%
X144450000Y-48565000D02*
X145085000Y-47930000D01*
X144450000Y-50470000D02*
X144450000Y-48565000D01*
X145085000Y-47930000D02*
X164770000Y-47930000D01*
X164770000Y-47930000D02*
X164770000Y-50470000D01*
X164770000Y-50470000D02*
X144450000Y-50470000D01*
%TO.C,J5-5v-LED1*%
X126230000Y-73690000D02*
X128135000Y-73690000D01*
X126230000Y-78770000D02*
X126230000Y-73690000D01*
X128135000Y-73690000D02*
X128770000Y-74325000D01*
X128770000Y-74325000D02*
X128770000Y-78770000D01*
X128770000Y-78770000D02*
X126230000Y-78770000D01*
%TO.C,BZ1*%
X130500000Y-60750000D02*
G75*
G02*
X128500000Y-60750000I-1000000J0D01*
G01*
X128500000Y-60750000D02*
G75*
G02*
X130500000Y-60750000I1000000J0D01*
G01*
X135500000Y-60750000D02*
G75*
G02*
X123500000Y-60750000I-6000000J0D01*
G01*
X123500000Y-60750000D02*
G75*
G02*
X135500000Y-60750000I6000000J0D01*
G01*
%TO.C,SW5-Reset1*%
X129750000Y-86250000D02*
X132750000Y-86250000D01*
X129750000Y-92250000D02*
X129750000Y-86250000D01*
X132750000Y-86250000D02*
X135750000Y-86250000D01*
X135750000Y-86250000D02*
X135750000Y-92250000D01*
X135750000Y-92250000D02*
X129750000Y-92250000D01*
X134765564Y-89250000D02*
G75*
G02*
X130734436Y-89250000I-2015564J0D01*
G01*
X130734436Y-89250000D02*
G75*
G02*
X134765564Y-89250000I2015564J0D01*
G01*
%TO.C,SW3-Grn-3M1*%
X143250000Y-76250000D02*
X146250000Y-76250000D01*
X143250000Y-82250000D02*
X143250000Y-76250000D01*
X146250000Y-76250000D02*
X149250000Y-76250000D01*
X149250000Y-76250000D02*
X149250000Y-82250000D01*
X149250000Y-82250000D02*
X143250000Y-82250000D01*
X148265564Y-79250000D02*
G75*
G02*
X144234436Y-79250000I-2015564J0D01*
G01*
X144234436Y-79250000D02*
G75*
G02*
X148265564Y-79250000I2015564J0D01*
G01*
%TO.C,SW2-Yel-2M1*%
X143250000Y-65750000D02*
X146250000Y-65750000D01*
X143250000Y-71750000D02*
X143250000Y-65750000D01*
X146250000Y-65750000D02*
X149250000Y-65750000D01*
X149250000Y-65750000D02*
X149250000Y-71750000D01*
X149250000Y-71750000D02*
X143250000Y-71750000D01*
X148265564Y-68750000D02*
G75*
G02*
X144234436Y-68750000I-2015564J0D01*
G01*
X144234436Y-68750000D02*
G75*
G02*
X148265564Y-68750000I2015564J0D01*
G01*
%TO.C,J7-Ext-Buz1*%
X118255000Y-54980000D02*
X120160000Y-54980000D01*
X118255000Y-60060000D02*
X118255000Y-54980000D01*
X120160000Y-54980000D02*
X120795000Y-55615000D01*
X120795000Y-55615000D02*
X120795000Y-60060000D01*
X120795000Y-60060000D02*
X118255000Y-60060000D01*
%TO.C,SW1-Red-1M1*%
X143250000Y-55250000D02*
X146250000Y-55250000D01*
X143250000Y-61250000D02*
X143250000Y-55250000D01*
X146250000Y-55250000D02*
X149250000Y-55250000D01*
X149250000Y-55250000D02*
X149250000Y-61250000D01*
X149250000Y-61250000D02*
X143250000Y-61250000D01*
X148265564Y-58250000D02*
G75*
G02*
X144234436Y-58250000I-2015564J0D01*
G01*
X144234436Y-58250000D02*
G75*
G02*
X148265564Y-58250000I2015564J0D01*
G01*
%TO.C,J3-Grn-3M1*%
X158230000Y-77190000D02*
X160135000Y-77190000D01*
X158230000Y-82270000D02*
X158230000Y-77190000D01*
X160135000Y-77190000D02*
X160770000Y-77825000D01*
X160770000Y-77825000D02*
X160770000Y-82270000D01*
X160770000Y-82270000D02*
X158230000Y-82270000D01*
%TO.C,SW4-Blu-5M1*%
X143250000Y-86750000D02*
X146250000Y-86750000D01*
X143250000Y-92750000D02*
X143250000Y-86750000D01*
X146250000Y-86750000D02*
X149250000Y-86750000D01*
X149250000Y-86750000D02*
X149250000Y-92750000D01*
X149250000Y-92750000D02*
X143250000Y-92750000D01*
X148265564Y-89750000D02*
G75*
G02*
X144234436Y-89750000I-2015564J0D01*
G01*
X144234436Y-89750000D02*
G75*
G02*
X148265564Y-89750000I2015564J0D01*
G01*
%TO.C,R5*%
X119210000Y-68000000D02*
X121750000Y-68000000D01*
X120810000Y-68000000D02*
G75*
G02*
X117610000Y-68000000I-1600000J0D01*
G01*
X117610000Y-68000000D02*
G75*
G02*
X120810000Y-68000000I1600000J0D01*
G01*
%TO.C,R2*%
X153455000Y-70500000D02*
X155995000Y-70500000D01*
X155055000Y-70500000D02*
G75*
G02*
X151855000Y-70500000I-1600000J0D01*
G01*
X151855000Y-70500000D02*
G75*
G02*
X155055000Y-70500000I1600000J0D01*
G01*
%TO.C,J1-Red-1M1*%
X158230000Y-54690000D02*
X160135000Y-54690000D01*
X158230000Y-59770000D02*
X158230000Y-54690000D01*
X160135000Y-54690000D02*
X160770000Y-55325000D01*
X160770000Y-55325000D02*
X160770000Y-59770000D01*
X160770000Y-59770000D02*
X158230000Y-59770000D01*
%TO.C,J8-Pololu-VReg1*%
X121230000Y-82360000D02*
X123135000Y-82360000D01*
X121230000Y-92520000D02*
X121230000Y-82360000D01*
X123135000Y-82360000D02*
X123770000Y-82995000D01*
X123770000Y-82995000D02*
X123770000Y-92520000D01*
X123770000Y-92520000D02*
X121230000Y-92520000D01*
%TO.C,J6-Reset1*%
X135230000Y-77440000D02*
X137135000Y-77440000D01*
X135230000Y-82520000D02*
X135230000Y-77440000D01*
X137135000Y-77440000D02*
X137770000Y-78075000D01*
X137770000Y-78075000D02*
X137770000Y-82520000D01*
X137770000Y-82520000D02*
X135230000Y-82520000D01*
%TO.C,R1*%
X153455000Y-60000000D02*
X155995000Y-60000000D01*
X155055000Y-60000000D02*
G75*
G02*
X151855000Y-60000000I-1600000J0D01*
G01*
X151855000Y-60000000D02*
G75*
G02*
X155055000Y-60000000I1600000J0D01*
G01*
%TO.C,J4-Blu-5M1*%
X158730000Y-86955000D02*
X160635000Y-86955000D01*
X158730000Y-92035000D02*
X158730000Y-86955000D01*
X160635000Y-86955000D02*
X161270000Y-87590000D01*
X161270000Y-87590000D02*
X161270000Y-92035000D01*
X161270000Y-92035000D02*
X158730000Y-92035000D01*
%TO.C,J9-Relay1*%
X114480000Y-84440000D02*
X116385000Y-84440000D01*
X114480000Y-92060000D02*
X114480000Y-84440000D01*
X116385000Y-84440000D02*
X117020000Y-85075000D01*
X117020000Y-85075000D02*
X117020000Y-92060000D01*
X117020000Y-92060000D02*
X114480000Y-92060000D01*
%TO.C,R3*%
X153455000Y-81500000D02*
X155995000Y-81500000D01*
X155055000Y-81500000D02*
G75*
G02*
X151855000Y-81500000I-1600000J0D01*
G01*
X151855000Y-81500000D02*
G75*
G02*
X155055000Y-81500000I1600000J0D01*
G01*
%TO.C,J2-Yel-2M1*%
X158230000Y-66690000D02*
X160135000Y-66690000D01*
X158230000Y-71770000D02*
X158230000Y-66690000D01*
X160135000Y-66690000D02*
X160770000Y-67325000D01*
X160770000Y-67325000D02*
X160770000Y-71770000D01*
X160770000Y-71770000D02*
X158230000Y-71770000D01*
%TO.C,R4*%
X153455000Y-92000000D02*
X155995000Y-92000000D01*
X155055000Y-92000000D02*
G75*
G02*
X151855000Y-92000000I-1600000J0D01*
G01*
X151855000Y-92000000D02*
G75*
G02*
X155055000Y-92000000I1600000J0D01*
G01*
%TD*%
M02*
